<svg width="23" height="31" viewBox="0 0 23 31" fill="none" xmlns="http://www.w3.org/2000/svg">
<path d="M21.7895 0.5H0.724252C0.379095 0.5 0.100098 0.779621 0.100098 1.12415V29.8758C0.100098 30.1261 0.249271 30.3521 0.479584 30.4501C0.709897 30.5481 0.977035 30.4988 1.15679 30.3252L11.2569 20.5997L21.3569 30.3252C21.4749 30.4395 21.6309 30.5 21.7895 30.5C21.8719 30.5 21.9555 30.4838 22.0341 30.4501C22.2645 30.3521 22.4136 30.1255 22.4136 29.8758V1.12415C22.4136 0.779621 22.134 0.5 21.7895 0.5ZM21.1653 28.4085L11.6894 19.2839C11.5689 19.1672 11.4129 19.1092 11.2569 19.1092C11.1008 19.1092 10.9448 19.1672 10.8243 19.2839L1.34841 28.4085V1.74831H21.1653V28.4085Z" fill="#444444"/>
</svg>
