<svg width="90" height="86" viewBox="0 0 90 86" fill="none" xmlns="http://www.w3.org/2000/svg">
<g clip-path="url(#clip0)">
<path d="M68.9693 66.7646C65.6617 66.7646 62.9803 69.2929 62.9803 72.4116C62.9803 75.5303 65.6617 78.0585 68.9693 78.0585C72.2769 78.0585 74.9583 75.5303 74.9583 72.4116C74.9546 69.2944 72.2753 66.7682 68.9693 66.7646ZM68.9693 75.2352C67.3154 75.2352 65.9747 73.971 65.9747 72.4116C65.9747 70.8521 67.3154 69.588 68.9693 69.588C70.6232 69.588 71.9638 70.8521 71.9638 72.4116C71.9621 73.9703 70.6225 75.2337 68.9693 75.2352Z" fill="#444444"/>
<path d="M75.3325 0.411895H14.6935C8.32112 0.387741 3.13032 5.23152 3.08978 11.24V66.1435C3.12014 70.3109 6.65162 73.7043 11.0702 73.8114L14.7017 82.0293C15.5025 83.8959 17.4243 85.1174 19.5597 85.1174C21.695 85.1174 23.617 83.8957 24.4178 82.0291L28.0439 73.8233H55.5821C56.358 80.4133 62.3819 85.3303 69.4101 85.1104C76.4383 84.8903 82.1031 79.6073 82.4136 72.9833C85.1707 71.6922 86.9204 69.046 86.9361 66.1434V11.24C86.8958 5.23152 81.7049 0.387576 75.3325 0.411895ZM6.08435 42.7648H16.5651V45.5883H6.08435V42.7648ZM16.5874 48.4117C16.7148 49.9059 17.9749 51.0911 19.5597 51.2074V65.3529H15.3823C14.3538 65.3237 13.5439 64.5159 13.5707 63.5461V48.4117H16.5874ZM21.6542 80.943C21.3183 81.7577 20.4865 82.2942 19.5595 82.2942C18.6326 82.2942 17.8009 81.7577 17.4648 80.943L14.3187 73.8235H24.8001L21.6542 80.943ZM55.5821 70.9999H11.3247C8.45675 71.02 6.1126 68.8477 6.08418 66.1435V48.4117H10.5759V63.5461C10.5504 66.0749 12.7002 68.1462 15.3821 68.1764H56.2799C55.9328 69.089 55.6987 70.0365 55.5821 70.9999ZM24.0515 47.0001C24.8784 47.0001 25.5486 46.3679 25.5486 45.5883V42.7648H30.0404V45.5883C30.0404 46.3681 30.7107 47.0001 31.5376 47.0001C32.3646 47.0001 33.0348 46.3679 33.0348 45.5883V42.7648H37.5266V45.5883C37.5266 46.3681 38.1969 47.0001 39.0238 47.0001C39.8508 47.0001 40.521 46.3679 40.521 45.5883V42.7648H43.5156V48.2098C43.5156 48.3055 43.3928 48.4117 43.2159 48.4117H19.8593C19.6824 48.4117 19.5597 48.3055 19.5597 48.2098V42.7648H21.0569H22.5541V45.5883C22.5541 46.3679 23.2245 47.0001 24.0515 47.0001ZM31.5378 35.7059C32.3648 35.7059 33.035 35.0738 33.035 34.2942V31.4706H40.5213V39.9412H22.5541V31.4706H30.0404V34.2942C30.0404 35.0738 30.7109 35.7059 31.5378 35.7059ZM67.4718 51.2354H51.0019C48.5223 51.2378 46.5128 53.1326 46.5102 55.4706V65.3529H39.0238V51.2354H43.2159C44.9235 51.2499 46.3523 50.0168 46.4878 48.4117H76.4552V57.0236C76.4585 58.4909 76.0989 59.9387 75.4047 61.2519C74.3225 60.6984 73.1644 60.2881 71.9634 60.033V55.4705C71.9609 53.1324 69.9516 51.2378 67.4718 51.2354ZM52.4993 55.4706V65.3529H49.5047V55.4706C49.5047 54.6909 50.1752 54.0589 51.0019 54.0589C51.8291 54.0587 52.4993 54.6909 52.4993 55.4706ZM31.5378 59.7059V56.8823H36.0296V59.7059H31.5378ZM36.0294 62.5293V65.3529H31.5376V62.5293H36.0294ZM31.5378 54.0587V51.2352H36.0296V54.0587H31.5378ZM28.5433 51.2354V65.3529H22.5541V51.2354H28.5433ZM55.4939 65.3529V55.4706C55.4888 54.9885 55.3954 54.5108 55.2181 54.0589H67.4718C68.2982 54.0599 68.968 54.6914 68.969 55.4706V59.7059C64.4711 59.7077 60.2708 61.8261 57.7724 65.3529H55.4939ZM68.9692 82.294C64.7301 82.294 60.9084 79.8862 59.2862 76.1936C57.664 72.5008 58.5607 68.2502 61.5583 65.4239C64.5559 62.5974 69.0637 61.7521 72.9802 63.2816C76.8966 64.8113 79.4501 68.4147 79.4501 72.4116C79.4434 77.867 74.7548 82.2879 68.9692 82.294ZM83.9417 66.1435C83.9324 67.543 83.2781 68.8693 82.1492 69.7779C81.5418 67.1023 80.0339 64.683 77.8503 62.8807C78.8963 61.0858 79.4464 59.0716 79.4499 57.0236V48.4117H83.9417V66.1435ZM83.9417 45.5881H46.5103V42.7646H83.9417V45.5881ZM83.9417 39.9412H43.5158V31.4706C43.5142 29.9118 42.1743 28.6486 40.5211 28.647H22.5541C20.9009 28.6485 19.5613 29.9118 19.5595 31.4706V39.9412H6.08418V25.8236H12.0732H83.9415V39.9412H83.9417ZM70.4664 15.9412C73.7724 15.9446 76.4517 18.4709 76.4554 21.5881V22.9999H13.5705V21.5881C13.5743 18.4709 16.2534 15.9446 19.5595 15.9412H24.0513H70.4664ZM25.5486 13.1177C25.5502 11.5589 26.8901 10.2958 28.5433 10.2942H37.5267C39.18 10.2957 40.5195 11.5589 40.5213 13.1177H25.5486ZM83.9417 23.0001H79.4499V21.5883C79.4445 16.9123 75.4256 13.1229 70.4664 13.1177H43.5158C43.5119 10.0005 40.8328 7.47423 37.5267 7.47076H28.5433C25.237 7.47423 22.5579 10.0004 22.5541 13.1177H19.5595C14.6003 13.1229 10.5814 16.9123 10.5759 21.5883V23.0001H6.08418V11.24C6.12296 6.79014 9.97413 3.2095 14.6935 3.23547H75.3325C80.0517 3.2095 83.903 6.7903 83.9417 11.24V23.0001Z" fill="#444444"/>
<path d="M49.5049 37.1176H56.9912C58.6443 37.1161 59.984 35.8528 59.9858 34.294V31.4705C59.9842 29.9117 58.6443 28.6485 56.9912 28.6469H49.5049C47.8517 28.6484 46.5121 29.9117 46.5103 31.4705V34.294C46.5121 35.8528 47.8519 37.1161 49.5049 37.1176ZM49.5049 31.4706H56.9912L56.9933 34.2942H49.5049V31.4706Z" fill="#444444"/>
</g>
<defs>
<clipPath id="clip0">
<rect x="0.0952148" y="0.411743" width="89.8357" height="84.7059" fill="white"/>
</clipPath>
</defs>
</svg>
