<svg width="90" height="86" viewBox="0 0 90 86" fill="none" xmlns="http://www.w3.org/2000/svg">
<g clip-path="url(#clip0)">
<path d="M87.643 43.3263L73.9536 30.4193C74.0483 29.5217 74.1647 28.6305 74.1647 27.7095C74.1647 12.6576 61.1772 0.411743 45.2138 0.411743C29.2496 0.411743 16.2629 12.6576 16.2629 27.7095C16.2629 34.5126 18.9667 40.9196 23.7754 45.9411C24.151 46.8962 24.3526 46.6997 29.9515 52.0992L63.4493 20.5141L57.8668 15.2504C56.8387 14.2817 55.1732 14.2817 54.1452 15.2504L26.5355 41.2841C23.347 37.393 21.5266 32.6941 21.5266 27.7095C21.5266 15.3939 32.1516 5.37498 45.2138 5.37498C57.4453 5.37498 67.4219 14.1924 68.6555 25.4231L67.171 24.0233L33.6731 55.6084L54.1452 74.9113C55.6846 76.3628 57.7051 77.0872 59.7277 77.0872C61.7503 77.0872 63.7708 76.3628 65.3101 74.9113L87.6423 53.8538C89.133 52.4482 89.9562 50.5798 89.9562 48.59C89.9562 46.6028 89.1337 44.7318 87.643 43.3263Z" fill="#444444"/>
<path d="M19.7206 79.5585L26.615 74.8602V64.9338L20.4293 60.7312C19.744 60.0636 18.9194 59.9725 18.3314 59.9919C11.622 60.05 5.23354 62.7817 0.777812 67.5459C-0.183107 68.5741 -0.0775559 70.1419 1.01222 71.048C2.09513 71.9534 3.76612 71.8577 4.72567 70.8276C7.63721 67.7159 11.6248 65.7914 15.9113 65.2V70.1484C9.91202 71.3013 5.38365 76.6446 5.38365 82.636C5.38365 84.0073 6.56115 85.1176 8.01555 85.1176C9.47064 85.1176 10.6474 84.0073 10.6474 82.636C10.6474 79.4047 12.8544 76.3454 15.9113 75.3171V77.3386C15.9119 79.1837 17.9708 80.3831 19.7206 79.5585Z" fill="#444444"/>
<path d="M36.12 64.9338H31.8788V74.8603H46.6476L36.12 64.9338Z" fill="#444444"/>
</g>
<defs>
<clipPath id="clip0">
<rect x="0.120483" y="0.411743" width="89.8357" height="84.7059" fill="white"/>
</clipPath>
</defs>
</svg>
