<svg width="91" height="84" viewBox="0 0 91 84" fill="none" xmlns="http://www.w3.org/2000/svg">
<path fill-rule="evenodd" clip-rule="evenodd" d="M38.642 5.52832V23.3671H41.5399V4.50366L45.8868 2.96667L50.2338 4.50366V28.832H53.1316V5.52832L56.9685 6.88635L57.9885 4.32605L45.8868 0.0484009L33.785 4.32605L34.8052 6.88635L38.642 5.52832ZM38.6421 26.0995H41.54V31.5645H38.6421V26.0995ZM86.8099 48.2802L85.009 47.6135V45.2267C88.2053 45.2267 90.8048 42.7757 90.8048 39.7618C90.8048 36.7479 88.2053 34.2969 85.009 34.2969H6.76501C3.5686 34.2969 0.969116 36.7479 0.969116 39.7618C0.969116 42.7757 3.5686 45.2267 6.76501 45.2267V76.6499C6.76501 80.4166 10.015 83.481 14.0098 83.481H77.7642C81.7589 83.481 85.009 80.4166 85.009 76.6499V60.2073C88.2429 59.9628 90.8048 57.4312 90.8048 54.319V53.8053C90.8048 51.3474 89.2371 49.1792 86.8099 48.2802ZM85.009 37.0294C86.6072 37.0294 87.9069 38.2549 87.9069 39.7618C87.9069 41.2688 86.6072 42.4943 85.009 42.4943H71.1887L56.4353 37.0294H85.009ZM82.111 45.2267V46.5397L78.5653 45.2267H82.111ZM45.887 37.0294C47.4851 37.0294 48.7848 38.2549 48.7848 39.7618C48.7848 41.2688 47.4851 42.4943 45.887 42.4943C44.2888 42.4943 42.989 41.2688 42.989 39.7618C42.989 38.2549 44.2888 37.0294 45.887 37.0294ZM6.76501 42.4943C5.16675 42.4943 3.86707 41.2688 3.86707 39.7618C3.86707 38.2549 5.16675 37.0294 6.76501 37.0294H40.8967C40.3983 37.8368 40.0912 38.7618 40.0912 39.7618C40.0912 40.7619 40.3983 41.6869 40.8967 42.4943H6.76501ZM82.111 76.6499C82.111 78.9095 80.1608 80.7485 77.7642 80.7485H14.0098C11.6132 80.7485 9.66284 78.9095 9.66284 76.6499V45.2267H44.1554L56.6194 50.0153C56.2469 50.6246 56.0297 51.3228 56.0297 52.0579V73.9175C56.0297 76.1771 57.98 78.0161 60.3766 78.0161C62.7732 78.0161 64.7235 76.1771 64.7235 73.9175V53.1276L70.5193 55.3546V73.9175C70.5193 76.1771 72.4696 78.0161 74.8662 78.0161C77.2627 78.0161 79.2131 76.1771 79.2131 73.9175V72.5511H76.3152V73.9175C76.3152 74.6715 75.666 75.2837 74.8662 75.2837C74.0664 75.2837 73.4172 74.6715 73.4172 73.9175V56.4666L76.3152 57.5801V69.8187H79.2131V58.6935L82.111 59.8071V76.6499ZM58.9276 73.9175V52.0579C58.9276 51.678 59.103 51.3296 59.384 51.0769L61.8154 52.0099C61.8154 52.0182 61.8179 52.0261 61.8204 52.0339C61.823 52.0417 61.8254 52.0496 61.8254 52.0579V73.9175C61.8254 74.6715 61.1764 75.2837 60.3766 75.2837C59.5767 75.2837 58.9276 74.6715 58.9276 73.9175ZM87.9069 54.319C87.9069 56.0854 86.3826 57.5227 84.509 57.5227C84.0671 57.5227 83.6353 57.4421 83.2267 57.2864L49.2152 44.2212C50.7034 43.2307 51.6829 41.6062 51.6829 39.7618C51.6829 39.1757 51.5582 38.621 51.3771 38.0909L85.7522 50.8241C87.0607 51.3092 87.9069 52.48 87.9069 53.8053V54.319ZM16.9077 47.9592C14.5111 47.9592 12.5608 49.7981 12.5608 52.0579V73.9174C12.5608 76.1772 14.5111 78.0161 16.9077 78.0161C19.3042 78.0161 21.2546 76.1772 21.2546 73.9174V72.5512H18.3567V73.9174C18.3567 74.6716 17.7075 75.2836 16.9077 75.2836C16.1079 75.2836 15.4587 74.6716 15.4587 73.9174V52.0579C15.4587 51.3037 16.1079 50.6917 16.9077 50.6917C17.7075 50.6917 18.3567 51.3037 18.3567 52.0579V69.8188H21.2546V52.0579C21.2546 49.7981 19.3042 47.9592 16.9077 47.9592ZM31.3973 47.9592C29.0007 47.9592 27.0504 49.7981 27.0504 52.0579V73.9174C27.0504 76.1772 29.0007 78.0161 31.3973 78.0161C33.7938 78.0161 35.7443 76.1772 35.7443 73.9174V72.5512H32.8463V73.9174C32.8463 74.6716 32.1971 75.2836 31.3973 75.2836C30.5975 75.2836 29.9484 74.6716 29.9484 73.9174V52.0579C29.9484 51.3037 30.5975 50.6917 31.3973 50.6917C32.1971 50.6917 32.8463 51.3037 32.8463 52.0579V69.8188H35.7443V52.0579C35.7443 49.7981 33.7938 47.9592 31.3973 47.9592ZM41.54 52.0579C41.54 49.7981 43.4902 47.9592 45.8868 47.9592C48.2834 47.9592 50.2338 49.7981 50.2338 52.0579V69.8188H47.3358V52.0579C47.3358 51.3037 46.6868 50.6917 45.8868 50.6917C45.087 50.6917 44.438 51.3037 44.438 52.0579V73.9174C44.438 74.6716 45.087 75.2836 45.8868 75.2836C46.6868 75.2836 47.3358 74.6716 47.3358 73.9174V72.5512H50.2338V73.9174C50.2338 76.1772 48.2834 78.0161 45.8868 78.0161C43.4902 78.0161 41.54 76.1772 41.54 73.9174V52.0579ZM18.3567 28.832H21.2546V31.5645H18.3567V28.832ZM9.66296 16.5359H6.76501V31.5645H9.66296V16.5359ZM6.76404 13.8035V10.9932L2.92712 12.3512L1.9071 9.79095L14.0089 5.51331L26.1106 9.79095L25.0906 12.3512L21.2537 10.9932V26.0995H18.3557V9.96857L14.0089 8.43158L9.66199 9.96857V13.8035H6.76404ZM85.0089 26.0995H82.111V31.5645H85.0089V26.0995ZM70.5192 31.5644V13.7256L66.6824 15.0836L65.6622 12.5234L77.764 8.24573L89.8657 12.5234L88.8456 15.0836L85.0088 13.7256V23.3671H82.1108V12.701L77.764 11.164L73.4171 12.701V31.5644H70.5192ZM63.2745 28.832H60.3766V31.5645H63.2745V28.832ZM60.3766 17.9022H63.2745V26.0996H60.3766V17.9022ZM31.3973 26.0995H28.4994V28.8321H31.3973V26.0995ZM28.4994 15.1698H31.3973V23.3672H28.4994V15.1698Z" fill="#444444"/>
</svg>
