<svg width="90" height="86" viewBox="0 0 90 86" fill="none" xmlns="http://www.w3.org/2000/svg">
<path d="M89.6705 1.09001C89.2843 0.447271 88.4194 0.221445 87.737 0.585414L76.3899 6.64485C75.9453 6.88243 75.6705 7.3268 75.6705 7.80857V17.6562H73.8346V16.6755C73.8346 14.7583 72.1803 13.1982 70.1467 13.1982C68.1132 13.1982 66.4586 14.7581 66.4586 16.6755V21.3121C66.4586 23.2295 68.1131 24.7894 70.1467 24.7894C72.1803 24.7894 73.8346 23.2295 73.8346 21.3121V20.3313H75.6705V23.8577C73.7694 23.9952 72.2662 25.4944 72.2662 27.3215V49.3607V57.9939C72.2662 59.6311 73.4739 61.0041 75.0925 61.3714C74.8732 65.7758 71.0045 69.2957 66.2795 69.2957H58.4021V38.2715V24.2596C58.4021 22.3424 56.7477 20.7823 54.7141 20.7823H42.1178V18.7783C42.1178 16.861 40.4634 15.3009 38.4298 15.3009H19.9912C17.9578 15.3009 16.3033 16.8609 16.3033 18.7783V20.7823H3.70716C1.67358 20.7823 0.019165 22.3422 0.019165 24.2596V38.2715V77.3232C0.019165 79.1899 1.58847 80.7136 3.54784 80.793V81.6401C3.54784 83.5575 5.20225 85.1174 7.23583 85.1174H14.611C16.6446 85.1174 18.2989 83.5575 18.2989 81.6401V80.8006H20.1614C20.9451 80.8006 21.5798 80.2019 21.5798 79.4631C21.5798 78.7245 20.9451 78.1257 20.1614 78.1257H16.8807H4.96643H3.70716C3.23798 78.1257 2.85601 77.7657 2.85601 77.3232V39.6089H39.4524C40.236 39.6089 40.8708 39.0102 40.8708 38.2715C40.8708 37.5329 40.236 36.9341 39.4524 36.9341H2.85618V24.2596C2.85618 23.8171 3.23798 23.4573 3.70734 23.4573H54.7139C55.1831 23.4573 55.5649 23.8171 55.5649 24.2596V36.9341H44.1807C43.3971 36.9341 42.7623 37.5327 42.7623 38.2715C42.7623 39.0104 43.3972 39.6089 44.1807 39.6089H55.5649V69.2957H50.3104C49.697 67.3394 47.7751 65.9074 45.5044 65.9074C42.7408 65.9074 40.4925 68.0274 40.4925 70.6331C40.4925 73.2387 42.7408 75.3587 45.5044 75.3587C47.7753 75.3587 49.6972 73.9266 50.3104 71.9705H55.5649V77.3232C55.5649 77.7656 55.1831 78.1257 54.7139 78.1257H53.4546H41.5403H24.7008C23.9171 78.1257 23.2823 78.7243 23.2823 79.4631C23.2823 80.202 23.9171 80.8006 24.7008 80.8006H40.1219V81.6401C40.1219 83.5575 41.7764 85.1174 43.81 85.1174H51.1852C53.2188 85.1174 54.8732 83.5575 54.8732 81.6401V80.793C56.8325 80.7134 58.4019 79.1899 58.4019 77.3232V71.9705H66.2794C72.5666 71.9705 77.7048 67.2538 77.929 61.3767C79.5584 61.0167 80.7767 59.6384 80.7767 57.9938V49.3605V39.4162C80.7767 38.6773 80.1419 38.0788 79.3583 38.0788C78.5747 38.0788 77.9399 38.6773 77.9399 39.4162V48.0229H75.103V27.3213C75.103 26.8787 75.4848 26.5187 75.9541 26.5187H77.0887C77.5579 26.5187 77.9397 26.8786 77.9397 27.3213V35.1364C77.9397 35.8753 78.5747 36.4739 79.3581 36.4739C80.1416 36.4739 80.7765 35.8753 80.7765 35.1364V27.3213C80.7765 25.8777 79.8383 24.6374 78.507 24.1121V20.3308H79.3581C80.1417 20.3308 80.7765 19.7322 80.7765 18.9934C80.7765 18.2545 80.1417 17.656 79.3581 17.656H78.507V8.58828L89.1347 2.91317C89.8168 2.5492 90.0565 1.73291 89.6705 1.09001ZM70.9976 21.3121C70.9976 21.7544 70.6158 22.1146 70.1465 22.1146C69.6771 22.1146 69.2953 21.7546 69.2953 21.3121V16.6755C69.2953 16.233 69.6771 15.873 70.1465 15.873C70.6158 15.873 70.9976 16.2328 70.9976 16.6755V21.3121ZM6.38485 80.8006H15.4621V81.6401C15.4621 82.0824 15.0803 82.4426 14.611 82.4426H7.23601C6.76683 82.4426 6.38485 82.0826 6.38485 81.6401V80.8006ZM39.2809 20.0118H19.1405V18.7781C19.1405 18.3356 19.5223 17.9756 19.9916 17.9756H38.43C38.8991 17.9756 39.2811 18.3354 39.2811 18.7781V20.0118H39.2809ZM45.5044 71.9707H47.1493C46.7503 72.4065 46.1615 72.6841 45.5044 72.6841C44.3051 72.6841 43.3293 71.764 43.3293 70.6333C43.3293 69.5025 44.3051 68.5825 45.5044 68.5825C46.1617 68.5825 46.7503 68.8599 47.1493 69.2959H45.5044C44.7208 69.2959 44.086 69.8944 44.086 70.6333C44.0858 71.3719 44.7208 71.9707 45.5044 71.9707ZM52.0362 81.6399C52.0362 82.0822 51.6544 82.4424 51.1851 82.4424H43.81C43.3407 82.4424 42.9588 82.0824 42.9588 81.6399V80.8004H52.036V81.6399H52.0362ZM75.103 50.6981H77.9399V57.9939C77.9399 58.4363 77.5581 58.7965 77.0887 58.7965H75.9541C75.4848 58.7965 75.1028 58.4365 75.1028 57.9939V50.6981H75.103Z" fill="#444444"/>
<path d="M48.4358 30.2393C48.4358 27.6337 46.1875 25.5137 43.4239 25.5137C40.6605 25.5137 38.4121 27.6337 38.4121 30.2393C38.4121 32.8451 40.6605 34.9651 43.4239 34.9651C46.1875 34.9651 48.4358 32.8451 48.4358 30.2393ZM41.2489 30.2393C41.2489 29.1086 42.2246 28.1886 43.4239 28.1886C44.6233 28.1886 45.599 29.1086 45.599 30.2393C45.599 31.3701 44.6233 32.2901 43.4239 32.2901C42.2246 32.29 41.2489 31.3701 41.2489 30.2393Z" fill="#444444"/>
<path d="M24.1 30.2393C24.1 32.8451 26.3484 34.9651 29.1118 34.9651C31.8753 34.9651 34.1237 32.8451 34.1237 30.2393C34.1237 27.6337 31.8753 25.5137 29.1118 25.5137C26.3484 25.5137 24.1 27.6335 24.1 30.2393ZM31.2868 30.2393C31.2868 31.3701 30.3111 32.2901 29.1118 32.2901C27.9126 32.2901 26.9369 31.3701 26.9369 30.2393C26.9369 29.1086 27.9126 28.1886 29.1118 28.1886C30.3111 28.1886 31.2868 29.1086 31.2868 30.2393Z" fill="#444444"/>
<path d="M9.78845 30.2393C9.78845 32.8451 12.0368 34.9651 14.8003 34.9651C17.5638 34.9651 19.8121 32.8451 19.8121 30.2393C19.8121 27.6337 17.5638 25.5137 14.8003 25.5137C12.0368 25.5136 9.78845 27.6335 9.78845 30.2393ZM16.9753 30.2393C16.9753 31.3701 15.9996 32.2901 14.8003 32.2901C13.6011 32.2901 12.6253 31.3701 12.6253 30.2393C12.6253 29.1086 13.6011 28.1886 14.8003 28.1886C15.9996 28.1886 16.9753 29.1086 16.9753 30.2393Z" fill="#444444"/>
<path d="M11.6535 48.7654H33.5612C34.3449 48.7654 34.9796 48.1668 34.9796 47.4279C34.9796 46.689 34.3449 46.0905 33.5612 46.0905H11.6535C10.8699 46.0905 10.2351 46.6892 10.2351 47.4279C10.2351 48.1664 10.8699 48.7654 11.6535 48.7654Z" fill="#444444"/>
<path d="M11.6535 54.4213H33.5612C34.3449 54.4213 34.9796 53.8227 34.9796 53.0838C34.9796 52.3449 34.3449 51.7463 33.5612 51.7463H11.6535C10.8699 51.7463 10.2351 52.3449 10.2351 53.0838C10.2351 53.8225 10.8699 54.4213 11.6535 54.4213Z" fill="#444444"/>
<path d="M11.6535 60.0771H33.5612C34.3449 60.0771 34.9796 59.4786 34.9796 58.7396C34.9796 58.001 34.3449 57.4022 33.5612 57.4022H11.6535C10.8699 57.4022 10.2351 58.0012 10.2351 58.7396C10.2351 59.4784 10.8699 60.0771 11.6535 60.0771Z" fill="#444444"/>
<path d="M11.6535 65.733H33.5612C34.3449 65.733 34.9796 65.1345 34.9796 64.3956C34.9796 63.6569 34.3449 63.0582 33.5612 63.0582H11.6535C10.8699 63.0582 10.2351 63.6571 10.2351 64.3956C10.2351 65.1345 10.8699 65.733 11.6535 65.733Z" fill="#444444"/>
<path d="M11.6535 71.3892H33.5612C34.3449 71.3892 34.9796 70.7904 34.9796 70.0518C34.9796 69.313 34.3449 68.7144 33.5612 68.7144H11.6535C10.8699 68.7144 10.2351 69.3129 10.2351 70.0518C10.2351 70.7906 10.8699 71.3892 11.6535 71.3892Z" fill="#444444"/>
<path d="M42.9511 62.9053H48.0575C48.8412 62.9053 49.4759 62.3066 49.4759 61.5679C49.4759 60.8292 48.841 60.2305 48.0575 60.2305H42.9511C42.1676 60.2305 41.5327 60.8291 41.5327 61.5679C41.5327 62.3064 42.1676 62.9053 42.9511 62.9053Z" fill="#444444"/>
<path d="M48.0575 54.5745H42.9511C42.1676 54.5745 41.5327 55.173 41.5327 55.9119C41.5327 56.6507 42.1676 57.2493 42.9511 57.2493H48.0575C48.8412 57.2493 49.4759 56.6507 49.4759 55.9119C49.4759 55.1731 48.8412 54.5745 48.0575 54.5745Z" fill="#444444"/>
<path d="M48.0575 48.9186H42.9511C42.1676 48.9186 41.5327 49.5171 41.5327 50.256C41.5327 50.9948 42.1676 51.5934 42.9511 51.5934H48.0575C48.8412 51.5934 49.4759 50.9948 49.4759 50.256C49.4759 49.5173 48.8412 48.9186 48.0575 48.9186Z" fill="#444444"/>
</svg>
