<svg width="88" height="86" viewBox="0 0 88 86" fill="none" xmlns="http://www.w3.org/2000/svg">
<g clip-path="url(#clip0)">
<path d="M74.651 40.6328L63.1277 51.758V71.9599L69.1487 77.773H87.956V40.6328H74.651ZM85.3857 75.2914H70.2137L65.6981 70.9317V52.7855L75.7152 43.1144H85.3857V75.2914Z" fill="#444444"/>
<path d="M37.6256 57.2014C33.5023 57.2014 30.1467 60.4404 30.1467 64.422C30.1467 68.4036 33.5017 71.6426 37.6256 71.6426C41.7496 71.6426 45.1045 68.4036 45.1045 64.422C45.1045 60.4404 41.7496 57.2014 37.6256 57.2014ZM37.6256 69.1609C34.9194 69.1609 32.7171 67.0348 32.7171 64.422C32.7171 61.8086 34.9194 59.683 37.6256 59.683C40.3326 59.683 42.5342 61.8086 42.5342 64.422C42.5342 67.0348 40.3326 69.1609 37.6256 69.1609Z" fill="#444444"/>
<path d="M50.95 58.8506C55.1148 58.8506 58.5039 55.5793 58.5039 51.5576C58.5039 49.7159 57.7923 48.0317 56.6216 46.7463H67.434V34.057L74.5949 27.1434L67.2258 20.0281L57.0119 29.89V44.2647H36.3403V49.0023H38.9107V46.7463H45.2778C44.107 48.0317 43.3962 49.7159 43.3962 51.5576C43.3962 51.811 43.4096 52.0604 43.4356 52.3066C41.6685 51.5137 39.6999 51.0704 37.6256 51.0704C30.0007 51.0704 23.7969 57.0599 23.7969 64.422C23.7969 71.7834 30.0007 77.773 37.6256 77.773C45.251 77.773 51.4548 71.7834 51.4548 64.422C51.4548 62.4199 50.9955 60.5186 50.1742 58.8125C50.4293 58.8377 50.6877 58.8506 50.95 58.8506ZM59.5822 30.9175L67.2258 23.538L70.9602 27.1434L64.8629 33.0295V44.2647H59.5822V30.9175ZM48.8114 65.6628C48.5664 67.7315 47.7176 69.6263 46.4398 71.1773L45.154 69.9351L43.3366 71.6898L44.6225 72.9319C43.016 74.1655 41.0541 74.985 38.9107 75.2209V73.4599H36.3403V75.2209C34.1976 74.985 32.2358 74.1655 30.6292 72.9319L31.9151 71.6898L30.0977 69.9351L28.8119 71.1773C27.5341 69.6263 26.6853 67.7315 26.4403 65.6628H28.265V63.1812H26.4403C26.6853 61.1119 27.5341 59.2177 28.8119 57.6667L30.0977 58.9088L31.9151 57.1542L30.6292 55.9121C32.2358 54.6784 34.1976 53.8589 36.3403 53.6231V55.3841H38.9107V53.6231C41.0541 53.8589 43.016 54.6784 44.6225 55.9121L43.3366 57.1542L45.154 58.9088L46.4398 57.6667C47.7176 59.2177 48.5664 61.1119 48.8114 63.1812H46.9867V65.6628H48.8114ZM55.9335 51.5576C55.9335 54.2112 53.6978 56.369 50.95 56.369C48.2016 56.369 45.9665 54.2112 45.9665 51.5576C45.9665 48.9047 48.2016 46.7463 50.95 46.7463C53.6978 46.7463 55.9335 48.9047 55.9335 51.5576Z" fill="#444444"/>
<path d="M42.5626 41.4295H54.8704V38.9479H39.9923V42.6936H42.5626V41.4295Z" fill="#444444"/>
<path d="M30.1334 50.817L13.0664 22.2772C12.6039 21.5035 12.9921 20.6163 13.6822 20.2815L31.6629 50.3498L33.8893 49.109L12.701 13.6775H2.79024V10.6316H14.5229L33.77 42.8177L35.9957 41.5769L16.0069 8.15002H0.219849V16.1591H11.217L12.3957 18.1307C10.5155 19.1254 9.64259 21.5152 10.8401 23.5179L27.907 52.0579L30.1334 50.817Z" fill="#444444"/>
<path d="M75.4036 14.8052C77.4352 14.8052 79.0879 13.2095 79.0879 11.2482C79.0879 9.28676 77.4352 7.69116 75.4036 7.69116C73.3722 7.69116 71.7194 9.28676 71.7194 11.2482C71.7194 13.2095 73.3722 14.8052 75.4036 14.8052ZM75.4036 10.1728C76.0182 10.1728 76.5175 10.6549 76.5175 11.2482C76.5175 11.8414 76.0182 12.3235 75.4036 12.3235C74.7899 12.3235 74.2898 11.8414 74.2898 11.2482C74.2898 10.6549 74.7899 10.1728 75.4036 10.1728Z" fill="#444444"/>
<path d="M84.2715 23.3661C86.303 23.3661 87.9557 21.7704 87.9557 19.8091C87.9557 17.8484 86.303 16.2521 84.2715 16.2521C82.2399 16.2521 80.5872 17.8484 80.5872 19.8091C80.5872 21.7704 82.2399 23.3661 84.2715 23.3661ZM84.2715 18.7337C84.8853 18.7337 85.3853 19.2165 85.3853 19.8091C85.3853 20.4023 84.8853 20.8844 84.2715 20.8844C83.657 20.8844 83.1576 20.4023 83.1576 19.8091C83.1576 19.2165 83.657 18.7337 84.2715 18.7337Z" fill="#444444"/>
<path d="M75.4036 23.3661C77.4352 23.3661 79.0879 21.7704 79.0879 19.8091C79.0879 17.8484 77.4352 16.2521 75.4036 16.2521C73.3722 16.2521 71.7194 17.8484 71.7194 19.8091C71.7194 21.7704 73.3722 23.3661 75.4036 23.3661ZM75.4036 18.7337C76.0182 18.7337 76.5175 19.2165 76.5175 19.8091C76.5175 20.4023 76.0182 20.8844 75.4036 20.8844C74.7899 20.8844 74.2898 20.4023 74.2898 19.8091C74.2898 19.2165 74.7899 18.7337 75.4036 18.7337Z" fill="#444444"/>
<path d="M51.8608 70.1678H60.985V72.6494H51.8608V70.1678Z" fill="#444444"/>
<path d="M50.9502 54.9007C50.0626 54.9007 49.1757 54.5749 48.5003 53.9229L50.3176 52.1683C50.6664 52.5043 51.2333 52.5043 51.5821 52.1683C51.9301 51.8316 51.9301 51.2842 51.5821 50.9475L53.3994 49.193C54.7502 50.4971 54.7502 52.6188 53.3994 53.9229C52.724 54.5749 51.8371 54.9007 50.9502 54.9007Z" fill="#444444"/>
<path d="M63.6713 42.0389H61.1008V32.8143H63.6713V42.0389ZM63.9383 32.2948L62.121 30.5401L63.9383 28.7856L65.7557 30.5401L63.9383 32.2948ZM66.9679 29.3704L65.1499 27.6158L66.9679 25.8606L68.7852 27.6158L66.9679 29.3704Z" fill="#444444"/>
<path d="M83.867 73.7972H81.2965V62.9175H83.867V73.7972ZM83.867 61.2631H81.2965V58.7814H83.867V61.2631ZM83.867 57.127H81.2965V54.6454H83.867V57.127Z" fill="#444444"/>
</g>
<defs>
<clipPath id="clip0">
<rect x="0.219849" y="0.411743" width="87.7359" height="84.7059" fill="white"/>
</clipPath>
</defs>
</svg>
