<svg width="90" height="85" viewBox="0 0 90 85" fill="none" xmlns="http://www.w3.org/2000/svg">
<path fill-rule="evenodd" clip-rule="evenodd" d="M89.6339 0.687379C89.2526 0.0496726 88.3848 -0.180428 87.7011 0.181159L76.3604 6.24266C75.9134 6.47933 75.6373 6.92638 75.6373 7.40631V17.2546H73.803V16.275C73.803 14.3553 72.1529 12.7972 70.1148 12.7972C68.0834 12.7972 66.4267 14.3553 66.4267 16.275V20.9099C66.4267 22.823 68.0834 24.3877 70.1148 24.3877C72.1529 24.3877 73.803 22.823 73.803 20.9099V19.9303H75.6373V23.4542C73.7373 23.5922 72.2383 25.0912 72.2383 26.9188V48.9493V57.5813C72.2383 59.2183 73.4414 60.5923 75.0587 60.9605C74.8418 65.3653 70.9761 68.8825 66.2492 68.8825H58.3732V37.865V23.8552C58.3732 21.9355 56.7164 20.3774 54.685 20.3774H42.0952V18.3722C42.0952 16.4591 40.4385 14.8944 38.407 14.8944H19.9661C17.9347 14.8944 16.2845 16.4591 16.2845 18.3722V20.3774H3.68818C1.65672 20.3774 0 21.9355 0 23.8552V37.865V76.9097C0 78.7768 1.57126 80.3021 3.5304 80.381V81.229C3.5304 83.1422 5.18054 84.7003 7.21857 84.7003H14.5884C16.6198 84.7003 18.2765 83.1422 18.2765 81.229V80.3875H20.1371C20.926 80.3875 21.5571 79.7893 21.5571 79.0464C21.5571 78.3101 20.926 77.7118 20.1371 77.7118H16.8565H4.94387H3.68818C3.2214 77.7118 2.83352 77.3502 2.83352 76.9097V39.1996H39.426C40.2084 39.1996 40.8461 38.6013 40.8461 37.865C40.8461 37.1287 40.2084 36.5304 39.426 36.5304H2.83352V23.8552C2.83352 23.4147 3.2214 23.0531 3.68818 23.0531H54.685C55.1518 23.0531 55.5396 23.4147 55.5396 23.8552V36.5304H44.153C43.3706 36.5304 42.7329 37.1287 42.7329 37.865C42.7329 38.6013 43.3706 39.1996 44.153 39.1996H55.5396V68.8825H50.2802C49.6688 66.93 47.7491 65.4968 45.481 65.4968C42.7132 65.4968 40.4648 67.6137 40.4648 70.2237C40.4648 72.8271 42.7132 74.944 45.481 74.944C47.7491 74.944 49.6688 73.5108 50.2802 71.5583H55.5396V76.9097C55.5396 77.3502 55.1518 77.7118 54.685 77.7118H53.4293H41.5167H24.6799C23.891 77.7118 23.2599 78.3101 23.2599 79.0464C23.2599 79.7893 23.891 80.3875 24.6799 80.3875H40.0966V81.229C40.0966 83.1422 41.7533 84.7003 43.7848 84.7003H51.1546C53.1926 84.7003 54.8428 83.1422 54.8428 81.229V80.381C56.8019 80.3021 58.3732 78.7768 58.3732 76.9097V71.5583H66.2492C72.5342 71.5583 77.6753 66.8445 77.8988 60.9671C79.5292 60.6055 80.7455 59.2249 80.7455 57.5813V48.9493V39.0089C80.7455 38.2726 80.1078 37.6744 79.3254 37.6744C78.5431 37.6744 77.9054 38.2726 77.9054 39.0089V47.6147H75.0719V26.9188C75.0719 26.4718 75.4532 26.1167 75.9199 26.1167H77.0573C77.5241 26.1167 77.9054 26.4718 77.9054 26.9188V34.7291C77.9054 35.472 78.5431 36.0702 79.3254 36.0702C80.1078 36.0702 80.7455 35.472 80.7455 34.7291V26.9188C80.7455 25.4725 79.8054 24.2299 78.4773 23.7106V19.9238H79.3254C80.1078 19.9238 80.7455 19.3255 80.7455 18.5892C80.7455 17.8529 80.1078 17.2546 79.3254 17.2546H78.4773V8.18865L89.1014 2.51503C89.7851 2.14687 90.0218 1.33166 89.6339 0.687379V0.687379ZM48.0318 48.5088H42.9236C42.1412 48.5088 41.5101 49.107 41.5101 49.8499C41.5101 50.5863 42.1412 51.1845 42.9236 51.1845H48.0318C48.8141 51.1845 49.4453 50.5863 49.4453 49.8499C49.4453 49.107 48.8141 48.5088 48.0318 48.5088ZM48.0318 54.1627H42.9236C42.1412 54.1627 41.5101 54.7609 41.5101 55.5038C41.5101 56.2402 42.1412 56.8384 42.9236 56.8384H48.0318C48.8141 56.8384 49.4453 56.2402 49.4453 55.5038C49.4453 54.7609 48.8141 54.1627 48.0318 54.1627ZM42.9236 62.4923H48.0318C48.8141 62.4923 49.4453 61.8941 49.4453 61.1577C49.4453 60.4214 48.8141 59.8166 48.0318 59.8166H42.9236C42.1412 59.8166 41.5101 60.4214 41.5101 61.1577C41.5101 61.8941 42.1412 62.4923 42.9236 62.4923ZM11.6299 70.9797H33.5355C34.3178 70.9797 34.9555 70.3749 34.9555 69.6386C34.9555 68.9022 34.3178 68.304 33.5355 68.304H11.6299C10.8476 68.304 10.2165 68.9022 10.2165 69.6386C10.2165 70.3749 10.8476 70.9797 11.6299 70.9797ZM11.6299 65.3193H33.5355C34.3178 65.3193 34.9555 64.721 34.9555 63.9847C34.9555 63.2484 34.3178 62.6501 33.5355 62.6501H11.6299C10.8476 62.6501 10.2165 63.2484 10.2165 63.9847C10.2165 64.721 10.8476 65.3193 11.6299 65.3193ZM11.6299 59.6654H33.5355C34.3178 59.6654 34.9555 59.0671 34.9555 58.3308C34.9555 57.5879 34.3178 56.9896 33.5355 56.9896H11.6299C10.8476 56.9896 10.2165 57.5879 10.2165 58.3308C10.2165 59.0671 10.8476 59.6654 11.6299 59.6654ZM11.6299 54.0115H33.5355C34.3178 54.0115 34.9555 53.4132 34.9555 52.6769C34.9555 51.934 34.3178 51.3357 33.5355 51.3357H11.6299C10.8476 51.3357 10.2165 51.934 10.2165 52.6769C10.2165 53.4132 10.8476 54.0115 11.6299 54.0115ZM11.6299 48.3576H33.5355C34.3178 48.3576 34.9555 47.7593 34.9555 47.0164C34.9555 46.2801 34.3178 45.6818 33.5355 45.6818H11.6299C10.8476 45.6818 10.2165 46.2801 10.2165 47.0164C10.2165 47.7593 10.8476 48.3576 11.6299 48.3576ZM9.7694 29.8312C9.7694 32.4412 12.0178 34.5581 14.779 34.5581C17.5402 34.5581 19.7886 32.4412 19.7886 29.8312C19.7886 27.2278 17.5402 25.1109 14.779 25.1109C12.0178 25.1109 9.7694 27.2278 9.7694 29.8312V29.8312ZM16.9551 29.8312C16.9551 30.962 15.9755 31.8824 14.779 31.8824C13.5825 31.8824 12.6029 30.962 12.6029 29.8312C12.6029 28.7004 13.5825 27.7866 14.779 27.7866C15.9755 27.7866 16.9551 28.7004 16.9551 29.8312ZM24.0751 29.8312C24.0751 32.4412 26.3235 34.5581 29.0847 34.5581C31.8525 34.5581 34.1009 32.4412 34.1009 29.8312C34.1009 27.2278 31.8525 25.1109 29.0847 25.1109C26.3235 25.1109 24.0751 27.2278 24.0751 29.8312ZM31.2608 29.8312C31.2608 30.962 30.2878 31.8824 29.0847 31.8824C27.8882 31.8824 26.9152 30.962 26.9152 29.8312C26.9152 28.7004 27.8882 27.7866 29.0847 27.7866C30.2878 27.7866 31.2608 28.7004 31.2608 29.8312ZM48.4065 29.8312C48.4065 27.2278 46.1581 25.1109 43.3969 25.1109C40.6357 25.1109 38.3873 27.2278 38.3873 29.8312C38.3873 32.4412 40.6357 34.5581 43.3969 34.5581C46.1581 34.5581 48.4065 32.4412 48.4065 29.8312ZM41.2208 29.8312C41.2208 28.7004 42.2004 27.7866 43.3969 27.7866C44.5934 27.7866 45.573 28.7004 45.573 29.8312C45.573 30.962 44.5934 31.8824 43.3969 31.8824C42.2004 31.8824 41.2208 30.962 41.2208 29.8312V29.8312ZM70.9695 20.9099C70.9695 21.3504 70.5882 21.712 70.1148 21.712C69.6481 21.712 69.2668 21.3504 69.2668 20.9099V16.275C69.2668 15.828 69.6481 15.4664 70.1148 15.4664C70.5882 15.4664 70.9695 15.828 70.9695 16.275V20.9099ZM6.36392 80.3875H15.443V81.229C15.443 81.6695 15.0617 82.0311 14.5884 82.0311H7.21857C6.74523 82.0311 6.36392 81.6695 6.36392 81.229V80.3875ZM39.2551 19.6082H19.118V18.3722C19.118 17.9318 19.4994 17.5702 19.9661 17.5702H38.407C38.8738 17.5702 39.2551 17.9318 39.2551 18.3722V19.6082ZM45.481 71.5583H47.1245C46.7235 71.9922 46.1318 72.2683 45.481 72.2683C44.2779 72.2683 43.3049 71.3545 43.3049 70.2237C43.3049 69.0929 44.2779 68.1725 45.481 68.1725C46.1318 68.1725 46.7235 68.4486 47.1245 68.8825H45.481C44.6921 68.8825 44.0609 69.4808 44.0609 70.2237C44.0609 70.96 44.6921 71.5583 45.481 71.5583ZM52.0092 81.229C52.0092 81.6695 51.6279 82.0311 51.1546 82.0311H43.7848C43.3114 82.0311 42.9301 81.6695 42.9301 81.229V80.3875H52.0092V81.229V81.229ZM75.0719 50.2904H77.9054V57.5813C77.9054 58.0284 77.5241 58.3834 77.0573 58.3834H75.9199C75.4532 58.3834 75.0719 58.0284 75.0719 57.5813V50.2904V50.2904Z" fill="#444444"/>
</svg>
