<svg width="70" height="86" viewBox="0 0 70 86" fill="none" xmlns="http://www.w3.org/2000/svg">
<path fill-rule="evenodd" clip-rule="evenodd" d="M7.75085 0.411743C16.4905 0.63269 29.9229 5.08472 31.9825 29.7149C30.7157 28.1539 28.976 26.9252 26.9122 26.2368C24.8182 11.3911 15.8514 4.04175 7.75085 0.411743ZM13.3916 31.2304C13.3916 31.2304 14.3707 13.6964 0.177673 1.23871C0.177673 1.23871 1.5415 0.838623 3.70184 0.588928C5.26428 1.11713 6.90906 1.77698 8.57001 2.61737C17.8483 7.31067 23.3696 15.1038 25.0377 25.7896C24.4327 25.695 23.8259 25.6309 23.2175 25.6309C19.0114 25.6309 15.337 27.8484 13.4756 31.2269L13.3916 31.2304ZM68.2261 55.8065L47.5145 42.5085C48.6281 40.9678 48.2054 38.8685 46.5715 37.8188C44.9375 36.7691 42.7107 37.1674 41.5977 38.7081L33.5383 49.8663C32.4253 51.4069 32.8475 53.5065 34.4816 54.5561C36.1158 55.6056 38.3419 55.2075 39.4556 53.6667L60.1667 66.9648C61.8007 68.0147 64.0273 67.6162 65.1404 66.0756L69.171 60.4965C70.2823 58.9555 69.8602 56.8561 68.2261 55.8065ZM34.2537 36.0314L39.1145 39.1535L33.0707 47.5242L28.9899 44.9031C31.4508 43.4822 33.3015 41.1835 33.9852 38.3569C34.1731 37.5772 34.2537 36.7993 34.2537 36.0314ZM7.28906 83.5303L14.269 85.0321C16.1967 85.4471 18.1153 84.3099 18.5556 82.4923L24.1326 59.4583C26.0599 59.8734 27.9786 58.7362 28.4191 56.9186C28.8594 55.1011 27.653 53.2917 25.7253 52.8769L11.7668 49.8712C9.83923 49.4559 7.92053 50.5934 7.48035 52.411C7.04016 54.2285 8.24646 56.0378 10.174 56.4527L4.59534 79.4885C4.15491 81.306 5.36139 83.115 7.28906 83.5303ZM13.91 48.6057L15.2202 43.197L15.4688 42.1794L15.7319 41.0911C14.2499 39.1336 13.5984 36.6307 14.2106 34.1011C14.4754 33.0059 14.9624 32.0171 15.5942 31.1428C17.2963 28.7886 20.1422 27.3204 23.2169 27.3204C23.8934 27.3204 24.5807 27.393 25.2699 27.5398C25.272 27.5398 25.275 27.5398 25.278 27.5402C25.2795 27.5405 25.281 27.5408 25.2822 27.5414C25.9354 27.6814 26.5511 27.8907 27.1346 28.1473C28.4161 28.7109 29.4937 29.5513 30.3562 30.5504C31.4104 31.7689 32.1157 33.232 32.3555 34.815C32.5112 35.8428 32.4988 36.9092 32.2393 37.9827C31.595 40.637 29.7209 42.7094 27.3209 43.8334C26.8804 44.0392 26.4258 44.2133 25.9534 44.3516L25.7279 45.2831L25.5043 46.2062L24.3784 50.8587L13.91 48.6057ZM22.562 38.7823C24.1689 39.1284 25.7673 38.1799 26.1342 36.666C26.5011 35.1524 25.4952 33.6437 23.8899 33.2977C22.2827 32.9515 20.6843 33.9001 20.3175 35.4138C19.9506 36.9292 20.9548 38.4363 22.562 38.7823Z" fill="#444444"/>
</svg>
