<svg width="88" height="86" viewBox="0 0 88 86" fill="none" xmlns="http://www.w3.org/2000/svg">
<g clip-path="url(#clip0)">
<path fill-rule="evenodd" clip-rule="evenodd" d="M82.2781 0.411743H5.94795C2.87719 0.411743 0.245117 2.95292 0.245117 5.91763V79.6117C0.245117 82.5764 2.87719 85.1176 5.94795 85.1176H82.2781C85.3489 85.1176 87.981 82.5764 87.981 79.6117V5.91763C87.981 2.95292 85.3489 0.411743 82.2781 0.411743ZM82.7168 35.5647C81.4008 35.5647 80.5234 36.4117 80.5234 37.2588C80.5234 38.5294 81.4008 39.3764 82.7168 39.3764C83.5942 39.3764 84.4715 38.5294 84.4715 37.2588C84.4715 36.4117 83.5942 35.5647 82.7168 35.5647ZM83.5942 38.9529L82.7168 37.6823H81.8395V38.9529V35.9882H82.7168C83.5942 35.9882 83.5942 36.4117 83.5942 36.8353C83.5942 37.2588 83.1555 37.6823 82.7168 37.6823L83.5942 38.9529ZM15.1602 41.0706H21.3017C22.6178 41.0706 23.9338 42.7647 23.0564 44.4588L21.7404 48.2706C20.863 50.3882 19.547 50.8117 18.6696 50.8117H5.94795L7.26399 47H16.9149C17.3536 47 17.7923 47 17.7923 46.5764L18.231 45.3059L17.7923 44.8823H11.6508C9.89606 44.8823 9.0187 43.6117 9.45738 41.9176L11.2121 37.6823C11.6508 36.4117 12.9668 35.1412 14.2829 35.1412H26.1272L24.8112 38.9529H16.0376C15.5989 38.9529 15.1602 39.3764 15.1602 39.3764L14.7215 40.647C14.2829 41.0706 14.7215 41.0706 15.1602 41.0706ZM31.3913 50.8117H26.5659L30.9527 38.9529H26.1272L27.4432 35.1412H42.3583L41.0423 38.9529H35.7781L31.3913 50.8117ZM37.9715 50.8117L43.6744 35.1412H48.4998L42.797 50.8117H37.9715ZM56.8347 50.8117L59.0281 44.4588H53.3253L51.1319 50.8117H46.3064L52.0093 35.1412H56.8347L54.6413 40.647H60.7829L62.5376 35.1412H67.363L61.6602 50.8117H56.8347ZM80.0847 50.8117H65.1696L70.8725 35.1412H75.698L71.3112 47H81.8395L80.0847 50.8117ZM82.7168 39.8C81.4008 39.8 80.0847 38.5294 80.0847 37.2588C80.0847 35.9882 81.4008 35.1412 82.7168 35.1412C84.0329 35.1412 84.9102 35.9882 84.9102 37.2588C84.9102 38.5294 84.0329 39.8 82.7168 39.8Z" fill="#F46717"/>
<path fill-rule="evenodd" clip-rule="evenodd" d="M83.5941 36.8353C83.5941 36.4117 83.1555 36.4117 82.7168 36.4117H81.8394V37.2588H82.7168C82.7168 37.2588 83.5941 37.2588 83.5941 36.8353Z" fill="#F46717"/>
</g>
<defs>
<clipPath id="clip0">
<rect x="0.245117" y="0.411743" width="87.7359" height="84.7059" fill="white"/>
</clipPath>
</defs>
</svg>
