<svg width="90" height="86" viewBox="0 0 90 86" fill="none" xmlns="http://www.w3.org/2000/svg">
<path fill-rule="evenodd" clip-rule="evenodd" d="M87.643 43.3263L73.9536 30.4193C73.9686 30.2773 73.9841 30.1355 73.9996 29.9937C74.0822 29.2391 74.1647 28.4849 74.1647 27.7095C74.1647 12.6576 61.1772 0.411743 45.2138 0.411743C29.2496 0.411743 16.2629 12.6576 16.2629 27.7095C16.2629 34.5126 18.9667 40.9196 23.7755 45.941C24.0062 46.5279 24.1713 46.6801 25.5631 47.9626C26.4365 48.7675 27.7929 50.0174 29.9515 52.0992L63.4493 20.5142L57.8668 15.2504C56.8387 14.2817 55.1732 14.2817 54.1451 15.2504L26.5355 41.2841C23.347 37.393 21.5267 32.6941 21.5267 27.7095C21.5267 15.3939 32.1516 5.375 45.2138 5.375C57.4453 5.375 67.4219 14.1924 68.6555 25.4232L67.171 24.0233L33.6731 55.6083L54.1451 74.9113C55.6846 76.3628 57.7051 77.0872 59.7277 77.0872C61.7502 77.0872 63.7708 76.3628 65.3101 74.9113L87.6423 53.8538C89.1329 52.4482 89.9562 50.5798 89.9562 48.59C89.9562 46.6028 89.1337 44.7318 87.643 43.3263ZM19.7206 79.5585L26.615 74.8602V64.9338L20.4293 60.7311C19.744 60.0636 18.9194 59.9725 18.3314 59.9919C11.6221 60.05 5.23352 62.7817 0.777836 67.546C-0.183101 68.5741 -0.0775717 70.1419 1.01221 71.048C2.09516 71.9534 3.76612 71.8577 4.72565 70.8276C7.63721 67.7159 11.6248 65.7914 15.9113 65.2001V70.1484C9.91205 71.3013 5.38367 76.6445 5.38367 82.636C5.38367 84.0073 6.56116 85.1176 8.01557 85.1176C9.47065 85.1176 10.6474 84.0073 10.6474 82.636C10.6474 79.4047 12.8544 76.3453 15.9113 75.3171V77.3386C15.9119 79.1837 17.9708 80.3831 19.7206 79.5585ZM31.8788 64.9338H36.12L46.6476 74.8604H31.8788V64.9338Z" fill="#444444"/>
</svg>
