<svg width="91" height="86" viewBox="0 0 91 86" fill="none" xmlns="http://www.w3.org/2000/svg">
<g clip-path="url(#clip0)">
<path d="M16.9077 48.9592C14.5111 48.9592 12.5608 50.7981 12.5608 53.0579V74.9174C12.5608 77.1772 14.5111 79.0161 16.9077 79.0161C19.3043 79.0161 21.2546 77.1772 21.2546 74.9174V73.5512H18.3567V74.9174C18.3567 75.6716 17.7075 76.2836 16.9077 76.2836C16.1079 76.2836 15.4587 75.6716 15.4587 74.9174V53.0579C15.4587 52.3037 16.1079 51.6917 16.9077 51.6917C17.7075 51.6917 18.3567 52.3037 18.3567 53.0579V70.8188H21.2546V53.0579C21.2546 50.7981 19.3043 48.9592 16.9077 48.9592Z" fill="#444444"/>
<path d="M31.3974 48.9592C29.0007 48.9592 27.0504 50.7981 27.0504 53.0579V74.9174C27.0504 77.1772 29.0007 79.0161 31.3974 79.0161C33.7939 79.0161 35.7442 77.1772 35.7442 74.9174V73.5512H32.8463V74.9174C32.8463 75.6716 32.1972 76.2836 31.3974 76.2836C30.5975 76.2836 29.9484 75.6716 29.9484 74.9174V53.0579C29.9484 52.3037 30.5975 51.6917 31.3974 51.6917C32.1972 51.6917 32.8463 52.3037 32.8463 53.0579V70.8188H35.7442V53.0579C35.7442 50.7981 33.7939 48.9592 31.3974 48.9592Z" fill="#444444"/>
<path d="M45.8869 48.9592C43.4903 48.9592 41.54 50.7981 41.54 53.0579V74.9174C41.54 77.1772 43.4903 79.0161 45.8869 79.0161C48.2835 79.0161 50.2337 77.1772 50.2337 74.9174V73.5512H47.3358V74.9174C47.3358 75.6716 46.6867 76.2836 45.8869 76.2836C45.087 76.2836 44.4379 75.6716 44.4379 74.9174V53.0579C44.4379 52.3037 45.087 51.6917 45.8869 51.6917C46.6867 51.6917 47.3358 52.3037 47.3358 53.0579V70.8188H50.2337V53.0579C50.2337 50.7981 48.2835 48.9592 45.8869 48.9592Z" fill="#444444"/>
<path d="M86.81 49.2802L85.009 48.6136V46.2267C88.2053 46.2267 90.8048 43.7757 90.8048 40.7618C90.8048 37.7479 88.2053 35.2969 85.009 35.2969H6.76496C3.56855 35.2969 0.969116 37.7479 0.969116 40.7618C0.969116 43.7757 3.56855 46.2267 6.76496 46.2267V77.6499C6.76496 81.4166 10.015 84.4809 14.0098 84.4809H77.7641C81.7589 84.4809 85.009 81.4166 85.009 77.6499V61.2073C88.243 60.9628 90.8048 58.4312 90.8048 55.319V54.8053C90.8048 52.3474 89.237 50.1792 86.81 49.2802ZM85.009 38.0294C86.6072 38.0294 87.9069 39.2549 87.9069 40.7618C87.9069 42.2688 86.6072 43.4943 85.009 43.4943H71.1888L56.4353 38.0294H85.009ZM82.111 46.2267V47.5397L78.5654 46.2267H82.111ZM45.8869 38.0294C47.4851 38.0294 48.7848 39.2549 48.7848 40.7618C48.7848 42.2688 47.4851 43.4943 45.8869 43.4943C44.2888 43.4943 42.989 42.2688 42.989 40.7618C42.989 39.2549 44.2888 38.0294 45.8869 38.0294ZM6.76496 43.4943C5.16676 43.4943 3.86704 42.2688 3.86704 40.7618C3.86704 39.2549 5.16676 38.0294 6.76496 38.0294H40.8967C40.3983 38.8368 40.0911 39.7618 40.0911 40.7618C40.0911 41.7619 40.3983 42.6869 40.8967 43.4943H6.76496ZM82.111 77.6499C82.111 79.9095 80.1608 81.7485 77.7641 81.7485H14.0098C11.6131 81.7485 9.66289 79.9095 9.66289 77.6499V46.2267H44.1554L56.6194 51.0153C56.247 51.6247 56.0297 52.3228 56.0297 53.0579V74.9175C56.0297 77.1771 57.98 79.0161 60.3765 79.0161C62.7732 79.0161 64.7235 77.1771 64.7235 74.9175V54.1276L70.5193 56.3545V74.9175C70.5193 77.1771 72.4696 79.0161 74.8662 79.0161C77.2628 79.0161 79.2131 77.1771 79.2131 74.9175V73.5512H76.3152V74.9175C76.3152 75.6715 75.666 76.2837 74.8662 76.2837C74.0664 76.2837 73.4173 75.6715 73.4173 74.9175V57.4666L76.3152 58.5801V70.8187H79.2131V59.6936L82.111 60.8071V77.6499ZM58.9276 74.9175V53.0579C58.9276 52.678 59.103 52.3296 59.3841 52.0769L61.8154 53.01C61.8154 53.0264 61.8255 53.0414 61.8255 53.0579V74.9175C61.8255 75.6715 61.1764 76.2837 60.3765 76.2837C59.5767 76.2837 58.9276 75.6715 58.9276 74.9175ZM87.9069 55.319C87.9069 57.0855 86.3826 58.5227 84.509 58.5227C84.0671 58.5227 83.6353 58.4422 83.2267 58.2864L49.2153 45.2212C50.7033 44.2307 51.6828 42.6062 51.6828 40.7618C51.6828 40.1757 51.5582 39.621 51.3771 39.0909L85.7522 51.8241C87.0606 52.3092 87.9069 53.48 87.9069 54.8053V55.319Z" fill="#444444"/>
<path d="M41.54 27.0995H38.6421V32.5645H41.54V27.0995Z" fill="#444444"/>
<path d="M38.6419 6.52832V24.3671H41.5399V5.50365L45.8868 3.96666L50.2337 5.50365V29.832H53.1316V6.52832L56.9685 7.88635L57.9886 5.32605L45.8868 1.0484L33.785 5.32605L34.8052 7.88635L38.6419 6.52832Z" fill="#444444"/>
<path d="M21.2546 29.832H18.3567V32.5645H21.2546V29.832Z" fill="#444444"/>
<path d="M9.66293 17.5359H6.76501V32.5645H9.66293V17.5359Z" fill="#444444"/>
<path d="M6.76403 11.9932V14.8036H9.66195V10.9685L14.0089 9.43156L18.3557 10.9685V27.0996H21.2536V11.9932L25.0905 13.3512L26.1105 10.7909L14.0089 6.51331L1.9071 10.7909L2.92718 13.3512L6.76403 11.9932Z" fill="#444444"/>
<path d="M85.0089 27.0995H82.111V32.5645H85.0089V27.0995Z" fill="#444444"/>
<path d="M70.5191 14.7256V32.5644H73.4171V13.701L77.764 12.164L82.1108 13.701V24.3671H85.0088V14.7256L88.8456 16.0836L89.8658 13.5234L77.764 9.24573L65.6622 13.5234L66.6824 16.0836L70.5191 14.7256Z" fill="#444444"/>
<path d="M63.2745 29.832H60.3766V32.5645H63.2745V29.832Z" fill="#444444"/>
<path d="M63.2745 18.9022H60.3766V27.0996H63.2745V18.9022Z" fill="#444444"/>
<path d="M31.3973 27.0995H28.4994V29.8321H31.3973V27.0995Z" fill="#444444"/>
<path d="M31.3973 16.1698H28.4994V24.3672H31.3973V16.1698Z" fill="#444444"/>
</g>
<defs>
<clipPath id="clip0">
<rect x="0.969116" y="0.411743" width="89.8357" height="84.7059" fill="white"/>
</clipPath>
</defs>
</svg>
