<svg width="91" height="73" viewBox="0 0 91 73" fill="none" xmlns="http://www.w3.org/2000/svg">
<path d="M69.2484 55.3581C69.2484 57.4733 71.075 59.1943 73.3197 59.1943H79.2085C81.4539 59.1943 83.2797 57.4733 83.2797 55.3581V49.9096C83.2797 49.2245 82.691 48.6687 81.9639 48.6687C81.2373 48.6687 80.6479 49.2245 80.6479 49.9096V55.3581C80.6479 56.1052 80.0022 56.7127 79.2085 56.7127H73.3197C72.5266 56.7127 71.8803 56.1052 71.8803 55.3581V37.9526C71.8803 37.2055 72.5259 36.598 73.3197 36.598H79.2085C80.0022 36.598 80.6479 37.2055 80.6479 37.9526V44.1753C80.6479 44.8603 81.2373 45.4161 81.9639 45.4161C82.691 45.4161 83.2797 44.8603 83.2797 44.1753V37.9526C83.2797 35.8374 81.4539 34.1163 79.2085 34.1163H73.3197C71.075 34.1163 69.2484 35.8374 69.2484 37.9526V55.3581Z" fill="#444444"/>
<path d="M22.484 32.9629C20.6731 32.3127 18.8007 31.64 17.14 32.4659C15.9591 33.0527 15.1791 34.2302 14.6842 36.1702C13.7911 39.6742 15.8864 46.9201 20.4998 49.3681C21.4052 49.8476 22.5333 50.2192 23.8596 50.2192C25.8801 50.2192 28.3592 49.3557 31.2001 46.6983C32.941 45.0685 34.335 43.1776 35.3529 41.0682C35.5119 41.0779 35.6716 41.0844 35.8334 41.0844C37.211 41.0844 38.5009 40.7251 39.6057 40.1014C40.1637 41.0307 40.6235 42.0027 40.9745 43.0051C41.2596 43.8212 41.4214 44.7046 41.5783 45.559C41.908 47.3608 42.2493 49.224 43.8497 50.1493C44.4494 50.4958 45.141 50.669 45.958 50.669C46.6906 50.669 47.5248 50.5294 48.4809 50.2508C52.1272 49.1909 57.6624 43.7999 57.5445 38.8083C57.4863 36.3344 56.0696 33.0553 49.6515 31.481C47.2657 30.898 44.8311 30.732 42.4001 30.9834C41.8332 29.9358 40.9951 29.0407 39.971 28.3828C40.6276 27.5123 41.3672 26.7077 42.1821 25.982C42.8456 25.3926 43.6262 24.8795 44.3809 24.3832C45.971 23.3389 47.6152 22.2583 47.8271 20.4998C47.9778 19.2487 47.3863 17.9775 45.9662 16.4995C43.4083 13.8311 35.8923 11.3793 31.1467 13.5881C28.793 14.6835 26.2393 17.2815 27.4415 23.4364C27.8869 25.7132 28.7573 27.8665 30.0342 29.8505C29.0521 31.0319 28.464 32.5183 28.464 34.1319C28.464 34.1371 28.4647 34.1416 28.4647 34.1468C27.3277 34.1255 26.207 34.0027 25.1193 33.7746C24.231 33.5897 23.3428 33.2711 22.484 32.9629ZM43.2027 34.1319C43.2027 33.8877 43.1889 33.646 43.1623 33.4075C45.1177 33.2556 47.0731 33.4152 48.9908 33.8832C52.8653 34.8338 54.8578 36.5089 54.9133 38.8632C54.9996 42.5249 50.4822 47.0725 47.705 47.8797C46.5275 48.2223 45.6468 48.2771 45.2259 48.0336C44.6406 47.6955 44.4124 46.4528 44.1719 45.137C44.0067 44.2374 43.8202 43.2183 43.4741 42.2282C43.0122 40.9086 42.3877 39.6361 41.618 38.4315C42.6091 37.2475 43.2027 35.7547 43.2027 34.1319ZM40.5707 34.1319C40.5707 36.5974 38.4454 38.6027 35.8334 38.6027C33.2213 38.6027 31.0966 36.5968 31.0966 34.1319C31.0966 31.6672 33.2213 29.6618 35.8334 29.6618C38.4454 29.6618 40.5707 31.6672 40.5707 34.1319ZM30.0301 22.9866C29.3043 19.27 30.0719 16.8563 32.3118 15.8139C35.7916 14.1937 42.067 16.1325 44.0148 18.1643C44.8428 19.0264 45.2677 19.756 45.2122 20.2194C45.1348 20.8637 44.0382 21.5843 42.8764 22.3475C42.0821 22.8696 41.1814 23.461 40.3761 24.177C39.3056 25.1302 38.3487 26.2011 37.5187 27.3651C36.9773 27.2454 36.4132 27.1795 35.834 27.1795C34.4475 27.1795 33.15 27.5434 32.0417 28.1734C31.063 26.5566 30.388 24.8168 30.0301 22.9866ZM28.9582 36.6297C29.6504 38.319 31.0212 39.691 32.7545 40.4465C31.8896 42.119 30.7471 43.6254 29.3462 44.9367C26.5052 47.5947 23.963 48.3573 21.7911 47.2051C18.4073 45.4098 16.5629 39.419 17.2435 36.7499C17.5314 35.6203 17.9309 34.8784 18.3683 34.6612C18.9754 34.3587 20.225 34.8073 21.547 35.2823C22.4511 35.6067 23.4757 35.9744 24.5511 36.1973C25.9815 36.4979 27.4599 36.6401 28.9582 36.6297Z" fill="#444444"/>
<path d="M37.186 30.8075C36.7527 30.6486 36.3011 30.5685 35.8432 30.5685C34.9104 30.5685 34.0228 30.8993 33.3422 31.503C32.6157 32.1505 32.199 33.0611 32.199 34.0007C32.199 34.2405 32.2271 34.4867 32.2846 34.7413C32.589 36.0428 33.6719 37.0652 35.0475 37.3502C35.297 37.4065 35.5574 37.4329 35.8432 37.4329C36.7726 37.4329 37.6561 37.1033 38.3285 36.5075C39.0611 35.8613 39.482 34.9482 39.482 34.0007C39.482 33.6317 39.4217 33.2704 39.3024 32.9266C39.3024 32.926 39.3024 32.9247 39.3017 32.9241C38.9672 31.9618 38.201 31.1921 37.186 30.8075ZM36.528 34.6974C36.3436 34.8609 36.0995 34.9514 35.8432 34.9514C35.7617 34.9514 35.7007 34.9462 35.6514 34.9346C35.6397 34.932 35.6287 34.9294 35.617 34.9274C35.2442 34.8519 34.9385 34.5629 34.8576 34.2172C34.8398 34.1403 34.8316 34.0673 34.8316 34.0007C34.8316 33.7364 34.9447 33.4902 35.1483 33.3086C35.3367 33.1418 35.5835 33.0501 35.8432 33.0501C35.9735 33.0501 36.1036 33.0733 36.2174 33.1153C36.4916 33.2194 36.7095 33.4365 36.8008 33.697C36.8329 33.79 36.8494 33.8954 36.8494 34.0007C36.8501 34.2669 36.7363 34.5132 36.528 34.6974Z" fill="#444444"/>
<path d="M59.4226 21.6082C60.0477 21.2585 60.254 20.4972 59.8832 19.9078C54.9546 12.0791 45.7484 7.21606 35.8575 7.21606C20.3198 7.21606 7.67847 19.1433 7.67847 33.8035C7.67847 48.4638 20.3198 60.391 35.8575 60.391C51.3953 60.391 64.036 48.4638 64.036 33.8035C64.036 31.1772 63.6097 28.5534 62.768 26.0059C62.5521 25.3512 61.8139 24.986 61.1203 25.1896C60.426 25.3932 60.0388 26.0892 60.2547 26.7432C61.0175 29.0523 61.4041 31.4273 61.4041 33.8035C61.4041 47.0957 49.9437 57.9094 35.8575 57.9094C21.7708 57.9094 10.3104 47.095 10.3104 33.8035C10.3104 20.5114 21.7708 9.69766 35.8568 9.69766C44.8245 9.69766 53.163 14.0954 57.6193 21.1745C57.9901 21.7638 58.7976 21.9584 59.4226 21.6082Z" fill="#444444"/>
<path d="M86.0765 0.533264H43.592C42.8648 0.533264 42.2761 1.08904 42.2761 1.77406C42.2761 2.45974 42.8648 3.01487 43.592 3.01487H86.0765C87.2465 3.01487 88.1978 3.91118 88.1978 5.01245V62.0177C88.1978 63.1214 87.2465 64.0191 86.0765 64.0191H5.74207C4.57554 64.0191 3.62628 63.1214 3.62628 62.0177V5.01245C3.62628 3.91118 4.57554 3.01551 5.74207 3.01551H37.5188C38.2459 3.01551 38.8348 2.45974 38.8348 1.77471C38.8348 1.08904 38.2459 0.533914 37.5188 0.533914H5.74207C3.12458 0.533264 0.994385 2.54246 0.994385 5.01245V62.0177C0.994385 64.4902 3.12458 66.5014 5.74207 66.5014H7.4158V70.0991C7.4158 71.6966 8.79343 72.9968 10.487 72.9968H23.9659C25.6595 72.9968 27.0378 71.6966 27.0378 70.0991V66.5014H64.7822V70.0991C64.7822 71.6966 66.1598 72.9968 67.8534 72.9968H81.3322C83.0258 72.9968 84.4042 71.6966 84.4042 70.0991V66.5014H86.0772C88.6982 66.5014 90.8303 64.4902 90.8303 62.0177V5.01245C90.8296 2.54246 88.6974 0.533264 86.0765 0.533264ZM24.4053 70.0991C24.4053 70.324 24.2044 70.5146 23.9659 70.5146H10.487C10.2485 70.5146 10.0477 70.3247 10.0477 70.0991V66.5014H24.4053V70.0991ZM81.7716 70.0991C81.7716 70.324 81.5708 70.5146 81.3322 70.5146H67.8534C67.6149 70.5146 67.4141 70.3247 67.4141 70.0991V66.5014H81.7716V70.0991Z" fill="#444444"/>
<path d="M70.5644 22.3125H81.9639C82.691 22.3125 83.2797 21.7568 83.2797 21.0718C83.2797 20.386 82.6903 19.8309 81.9639 19.8309H70.5644C69.8371 19.8309 69.2484 20.3867 69.2484 21.0718C69.2484 21.7568 69.8371 22.3125 70.5644 22.3125Z" fill="#444444"/>
<path d="M70.5644 29.4414H81.9639C82.691 29.4414 83.2797 28.8856 83.2797 28.2005C83.2797 27.5149 82.6903 26.9598 81.9639 26.9598H70.5644C69.8371 26.9598 69.2484 27.5149 69.2484 28.2005C69.2484 28.8856 69.8371 29.4414 70.5644 29.4414Z" fill="#444444"/>
<path d="M71.4245 15.1838H81.1036C82.3037 15.1838 83.2797 14.2628 83.2797 13.1312V9.41463C83.2797 8.28239 82.3037 7.36145 81.1036 7.36145H71.4245C70.2244 7.36145 69.2484 8.28239 69.2484 9.41463V13.1312C69.2484 14.2628 70.2244 15.1838 71.4245 15.1838ZM71.8803 9.84305H80.6479V12.7022H71.8803V9.84305Z" fill="#444444"/>
</svg>
