<svg width="88" height="71" viewBox="0 0 88 71" fill="none" xmlns="http://www.w3.org/2000/svg">
<path fill-rule="evenodd" clip-rule="evenodd" d="M79.0879 4.24817C79.0879 6.20947 77.4352 7.80518 75.4036 7.80518C73.3722 7.80518 71.7194 6.20947 71.7194 4.24817C71.7194 2.28674 73.3722 0.691162 75.4036 0.691162C77.4352 0.691162 79.0879 2.28674 79.0879 4.24817ZM76.5175 4.24817C76.5175 3.65485 76.0182 3.17279 75.4036 3.17279C74.7899 3.17279 74.2898 3.65485 74.2898 4.24817C74.2898 4.84137 74.7899 5.32349 75.4036 5.32349C76.0182 5.32349 76.5175 4.84137 76.5175 4.24817ZM30.1334 43.817L13.0664 15.2772C12.6039 14.5035 12.9922 13.6163 13.6822 13.2815L31.6629 43.3499L33.8893 42.109L12.701 6.67749H2.79022V3.63165H14.5229L33.7701 35.8177L35.9957 34.5768L16.0069 1.15002H0.219849V9.15906H11.2169L12.3957 11.1307C10.5154 12.1254 9.64258 14.5152 10.8401 16.5179L27.907 45.0579L30.1334 43.817ZM50.95 51.8506C55.1148 51.8506 58.5039 48.5793 58.5039 44.5576C58.5039 42.7159 57.7923 41.0317 56.6216 39.7463H67.434V27.057L74.5949 20.1434L67.2258 13.0281L57.0119 22.89V37.2646H36.3403V42.0023H38.9107V39.7463H45.2778C44.107 41.0317 43.3961 42.7159 43.3961 44.5576C43.3961 44.811 43.4096 45.0604 43.4356 45.3066C41.6685 44.5137 39.7 44.0704 37.6256 44.0704C30.0007 44.0704 23.7969 50.0599 23.7969 57.422C23.7969 64.7834 30.0007 70.7729 37.6256 70.7729C45.251 70.7729 51.4548 64.7834 51.4548 57.422C51.4548 55.4199 50.9955 53.5186 50.1742 51.8125C50.4293 51.8377 50.6877 51.8506 50.95 51.8506ZM59.5822 23.9175L67.2258 16.538L70.9602 20.1434L64.8629 26.0295V37.2646H59.5822V23.9175ZM48.8114 58.6628C48.5664 60.7314 47.7176 62.6262 46.4398 64.1773L45.154 62.9351L43.3366 64.6898L44.6225 65.9318C43.016 67.1655 41.0541 67.985 38.9107 68.2209V66.4598H36.3403V68.2209C34.1976 67.985 32.2357 67.1655 30.6292 65.9318L31.9151 64.6898L30.0977 62.9351L28.8119 64.1773C27.5341 62.6262 26.6853 60.7314 26.4403 58.6628H28.265V56.1812H26.4403C26.6853 54.1119 27.5341 52.2177 28.8119 50.6667L30.0977 51.9088L31.9151 50.1542L30.6292 48.9121C32.2357 47.6784 34.1976 46.8589 36.3403 46.623V48.3841H38.9107V46.623C41.0541 46.8589 43.016 47.6784 44.6225 48.9121L43.3366 50.1542L45.154 51.9088L46.4398 50.6667C47.7176 52.2177 48.5664 54.1119 48.8114 56.1812H46.9867V58.6628H48.8114ZM55.9335 44.5576C55.9335 47.2112 53.6978 49.369 50.95 49.369C48.2016 49.369 45.9665 47.2112 45.9665 44.5576C45.9665 41.9047 48.2016 39.7463 50.95 39.7463C53.6978 39.7463 55.9335 41.9047 55.9335 44.5576ZM63.1277 44.758L74.651 33.6328H87.956V70.7729H69.1487L63.1277 64.9599V44.758ZM70.2137 68.2914H85.3857V36.1144H75.7152L65.6981 45.7855V63.9316L70.2137 68.2914ZM30.1467 57.4221C30.1467 53.4404 33.5023 50.2014 37.6256 50.2014C41.7496 50.2014 45.1045 53.4404 45.1045 57.4221C45.1045 61.4036 41.7496 64.6426 37.6256 64.6426C33.5016 64.6426 30.1467 61.4036 30.1467 57.4221ZM32.7171 57.4221C32.7171 60.0349 34.9194 62.1609 37.6256 62.1609C40.3326 62.1609 42.5341 60.0349 42.5341 57.4221C42.5341 54.8086 40.3326 52.683 37.6256 52.683C34.9194 52.683 32.7171 54.8086 32.7171 57.4221ZM54.8704 34.4296H42.5627V35.6936H39.9923V31.9479H54.8704V34.4296ZM84.2715 16.3661C86.303 16.3661 87.9557 14.7704 87.9557 12.8091C87.9557 10.8484 86.303 9.25214 84.2715 9.25214C82.2399 9.25214 80.5872 10.8484 80.5872 12.8091C80.5872 14.7704 82.2399 16.3661 84.2715 16.3661ZM84.2715 11.7338C84.8853 11.7338 85.3853 12.2165 85.3853 12.8091C85.3853 13.4023 84.8853 13.8844 84.2715 13.8844C83.657 13.8844 83.1576 13.4023 83.1576 12.8091C83.1576 12.2165 83.657 11.7338 84.2715 11.7338ZM79.0879 12.8091C79.0879 14.7704 77.4352 16.3661 75.4036 16.3661C73.3722 16.3661 71.7194 14.7704 71.7194 12.8091C71.7194 10.8484 73.3722 9.25214 75.4036 9.25214C77.4352 9.25214 79.0879 10.8484 79.0879 12.8091ZM76.5175 12.8091C76.5175 12.2165 76.0182 11.7338 75.4036 11.7338C74.7899 11.7338 74.2898 12.2165 74.2898 12.8091C74.2898 13.4023 74.7899 13.8844 75.4036 13.8844C76.0182 13.8844 76.5175 13.4023 76.5175 12.8091ZM51.8608 63.1678H60.985V65.6494H51.8608V63.1678ZM48.5003 46.9229C49.1757 47.5749 50.0626 47.9006 50.9502 47.9006C51.8371 47.9006 52.724 47.5749 53.3994 46.9229C54.7502 45.6188 54.7502 43.4971 53.3994 42.193L51.5821 43.9475C51.9301 44.2842 51.9301 44.8316 51.5821 45.1683C51.2333 45.5043 50.6664 45.5043 50.3176 45.1683L48.5003 46.9229ZM63.6713 35.0389H61.1008V25.8143H63.6713V35.0389ZM63.9383 25.2947L62.121 23.5401L63.9383 21.7856L65.7557 23.5401L63.9383 25.2947ZM66.9679 22.3704L65.1499 20.6158L66.9679 18.8606L68.7852 20.6158L66.9679 22.3704ZM81.2965 66.7972H83.8669V55.9175H81.2965V66.7972ZM81.2965 54.2631H83.8669V51.7814H81.2965V54.2631ZM81.2965 50.1271H83.8669V47.6454H81.2965V50.1271Z" fill="#444444"/>
</svg>
