<svg width="90" height="86" viewBox="0 0 90 86" fill="none" xmlns="http://www.w3.org/2000/svg">
<g clip-path="url(#clip0)">
<path d="M10.1777 1.23872C24.3707 13.6964 23.3916 31.2304 23.3916 31.2304L23.4756 31.227C25.337 27.8484 29.0114 25.6309 33.2175 25.6309C33.8259 25.6309 34.4327 25.695 35.0377 25.7896C33.3697 15.1038 27.8483 7.31067 18.57 2.61738C16.9091 1.77698 15.2643 1.11713 13.7018 0.588928C11.5415 0.838647 10.1777 1.23872 10.1777 1.23872Z" fill="#444444"/>
<path d="M41.9825 29.7149C39.9228 5.08473 26.4905 0.632695 17.7509 0.411743C25.8514 4.04174 34.8182 11.391 36.9122 26.2368C38.9759 26.9252 40.7156 28.1539 41.9825 29.7149Z" fill="#444444"/>
<path d="M78.2261 55.8065L57.5146 42.5086C58.628 40.9679 58.2054 38.8685 56.5715 37.8188C54.9375 36.7691 52.7107 37.1674 51.5977 38.7081L43.5383 49.8663C42.4253 51.4069 42.8475 53.5065 44.4816 54.5561C46.1158 55.6056 48.3419 55.2075 49.4556 53.6668L70.1667 66.9649C71.8006 68.0147 74.0273 67.6162 75.1404 66.0755L79.171 60.4965C80.2823 58.9555 79.8602 56.8561 78.2261 55.8065Z" fill="#444444"/>
<path d="M49.1146 39.1535L44.2536 36.0314C44.2536 36.7992 44.1731 37.5772 43.9852 38.3569C43.3015 41.1835 41.4508 43.4822 38.9899 44.9031L43.0707 47.5241L49.1146 39.1535Z" fill="#444444"/>
<path d="M17.2891 83.5303L24.269 85.0321C26.1967 85.4471 28.1153 84.3099 28.5556 82.4923L34.1326 59.4583C36.0599 59.8734 37.9786 58.7362 38.419 56.9186C38.8594 55.1011 37.6529 53.2918 35.7254 52.8769L21.7668 49.8712C19.8392 49.4559 17.9205 50.5934 17.4803 52.411C17.0401 54.2285 18.2464 56.0378 20.174 56.4527L14.5953 79.4885C14.1549 81.3061 15.3614 83.115 17.2891 83.5303Z" fill="#444444"/>
<path d="M25.2201 43.197L23.91 48.6057L34.3784 50.8587L35.5042 46.2062L35.7279 45.2832L35.9534 44.3516C36.4258 44.2133 36.8804 44.0392 37.3209 43.8334C39.7209 42.7094 41.595 40.637 42.2392 37.9826C42.4988 36.9092 42.5112 35.8428 42.3555 34.815C42.1157 33.232 41.4104 31.7689 40.3561 30.5504C39.4936 29.5513 38.4162 28.7109 37.1346 28.1473C36.5512 27.8907 35.9354 27.6814 35.2822 27.5414C35.2786 27.5398 35.2732 27.5398 35.2699 27.5398C34.5807 27.393 33.8935 27.3204 33.2169 27.3204C30.1421 27.3204 27.2962 28.7886 25.5942 31.1428C24.9624 32.0171 24.4754 33.0059 24.2106 34.1011C23.5984 36.6307 24.2499 39.1336 25.7319 41.0911L25.4688 42.1794L25.2201 43.197ZM36.1342 36.666C35.7673 38.1799 34.169 39.1283 32.562 38.7823C30.9547 38.4363 29.9506 36.9292 30.3175 35.4138C30.6843 33.9001 32.2827 32.9515 33.8899 33.2977C35.4952 33.6437 36.5011 35.1524 36.1342 36.666Z" fill="#444444"/>
</g>
<defs>
<clipPath id="clip0">
<rect x="0.0675049" y="0.411743" width="89.8357" height="84.7059" fill="white"/>
</clipPath>
</defs>
</svg>
