<svg width="91" height="73" viewBox="0 0 91 73" fill="none" xmlns="http://www.w3.org/2000/svg">
<path fill-rule="evenodd" clip-rule="evenodd" d="M86.0765 0.533264H43.5919C42.8647 0.533264 42.2761 1.08905 42.2761 1.77405C42.2761 2.45972 42.8647 3.01489 43.5919 3.01489H86.0765C87.2465 3.01489 88.1978 3.91119 88.1978 5.01245V62.0177C88.1978 63.1215 87.2465 64.0192 86.0765 64.0192H5.74207C4.57556 64.0192 3.62622 63.1215 3.62622 62.0177V5.01245C3.62622 3.91119 4.57556 3.0155 5.74207 3.0155H37.5188C38.246 3.0155 38.8347 2.45972 38.8347 1.77472C38.8347 1.08905 38.246 0.533936 37.5188 0.533936H5.74207C3.12463 0.533264 0.994385 2.54248 0.994385 5.01245V62.0177C0.994385 64.4902 3.12463 66.5014 5.74207 66.5014H7.41577V70.0991C7.41577 71.6966 8.79346 72.9968 10.4871 72.9968H23.9658C25.6594 72.9968 27.0378 71.6966 27.0378 70.0991V66.5014H64.7822V70.0991C64.7822 71.6966 66.1598 72.9968 67.8534 72.9968H81.3323C83.0259 72.9968 84.4042 71.6966 84.4042 70.0991V66.5014H86.0773C88.6981 66.5014 90.8303 64.4902 90.8303 62.0177V5.01245C90.8296 2.54248 88.6975 0.533264 86.0765 0.533264ZM24.4053 70.0991C24.4053 70.324 24.2045 70.5146 23.9658 70.5146H10.4871C10.2485 70.5146 10.0477 70.3246 10.0477 70.0991V66.5014H24.4053V70.0991ZM81.7716 70.0991C81.7716 70.324 81.5708 70.5146 81.3323 70.5146H67.8534C67.6149 70.5146 67.4141 70.3246 67.4141 70.0991V66.5014H81.7716V70.0991ZM59.8832 19.9078C60.254 20.4972 60.0477 21.2585 59.4226 21.6082C58.7976 21.9584 57.9901 21.7639 57.6193 21.1744C53.163 14.0954 44.8246 9.69769 35.8568 9.69769C21.7708 9.69769 10.3103 20.5114 10.3103 33.8035C10.3103 47.095 21.7708 57.9094 35.8575 57.9094C49.9436 57.9094 61.4041 47.0957 61.4041 33.8035C61.4041 31.4272 61.0175 29.0523 60.2546 26.7432C60.0388 26.0892 60.426 25.3932 61.1204 25.1896C61.814 24.986 62.5521 25.3512 62.7679 26.0059C63.6096 28.5534 64.036 31.1772 64.036 33.8035C64.036 48.4638 51.3953 60.391 35.8575 60.391C20.3197 60.391 7.67847 48.4638 7.67847 33.8035C7.67847 19.1433 20.3197 7.21606 35.8575 7.21606C45.7484 7.21606 54.9546 12.0791 59.8832 19.9078ZM22.4818 32.9622L22.484 32.9629C23.3428 33.2711 24.2311 33.5897 25.1193 33.7745C26.207 34.0027 27.3276 34.1255 28.4647 34.1468C28.4647 34.1416 28.464 34.1371 28.464 34.1319C28.464 32.5182 29.0521 31.0319 30.0342 29.8505C28.7573 27.8665 27.887 25.7132 27.4414 23.4364C26.2393 17.2815 28.793 14.6835 31.1467 13.5881C35.8923 11.3793 43.4083 13.8311 45.9662 16.4996C47.3862 17.9775 47.9778 19.2487 47.827 20.4998C47.6152 22.2583 45.9709 23.3389 44.3809 24.3832C43.6262 24.8795 42.8456 25.3926 42.1821 25.982C41.3672 26.7078 40.6277 27.5123 39.9711 28.3828C40.9951 29.0407 41.8333 29.9358 42.4001 30.9834C44.8312 30.732 47.2657 30.8981 49.6515 31.481C56.0696 33.0553 57.4863 36.3344 57.5444 38.8082C57.6624 43.7999 52.1272 49.1909 48.4808 50.2508C47.5248 50.5294 46.6907 50.6689 45.958 50.6689C45.141 50.6689 44.4495 50.4958 43.8497 50.1494C42.2493 49.224 41.908 47.3608 41.5782 45.559L41.5771 45.5528C41.4207 44.7004 41.2588 43.8193 40.9745 43.0051C40.6235 42.0027 40.1637 41.0308 39.6057 40.1014C38.501 40.725 37.2109 41.0844 35.8334 41.0844C35.6716 41.0844 35.5118 41.0779 35.3529 41.0682C34.3351 43.1776 32.941 45.0685 31.2001 46.6983C28.3591 49.3557 25.8801 50.2192 23.8596 50.2192C22.5333 50.2192 21.4052 49.8476 20.4998 49.368C15.8864 46.92 13.7911 39.6743 14.6842 36.1702C15.1791 34.2302 15.9591 33.0527 17.14 32.4659C18.8 31.6403 20.6716 32.3123 22.4818 32.9622ZM43.1624 33.4075C43.189 33.646 43.2028 33.8877 43.2028 34.1319C43.2028 35.7547 42.6091 37.2475 41.618 38.4315C42.3877 39.6361 43.0122 40.9086 43.4741 42.2282C43.819 43.2148 44.0055 44.2303 44.17 45.1275L44.1719 45.137C44.4124 46.4528 44.6406 47.6955 45.226 48.0336C45.6467 48.2772 46.5276 48.2223 47.705 47.8797C50.4822 47.0725 54.9996 42.5248 54.9133 38.8632C54.8578 36.5089 52.8654 34.8337 48.9908 33.8832C47.0731 33.4152 45.1177 33.2556 43.1624 33.4075ZM35.8334 38.6027C38.4454 38.6027 40.5707 36.5974 40.5707 34.1319C40.5707 31.6672 38.4454 29.6618 35.8334 29.6618C33.2213 29.6618 31.0966 31.6672 31.0966 34.1319C31.0966 36.5968 33.2213 38.6027 35.8334 38.6027ZM32.3119 15.8139C30.0719 16.8563 29.3043 19.27 30.0302 22.9866C30.3879 24.8168 31.063 26.5566 32.0417 28.1734C33.15 27.5434 34.4475 27.1796 35.834 27.1796C36.4132 27.1796 36.9773 27.2454 37.5187 27.3651C38.3488 26.2011 39.3055 25.1302 40.3761 24.177C41.1814 23.4609 42.082 22.8696 42.8765 22.3475C44.0382 21.5842 45.1348 20.8637 45.2123 20.2194C45.2677 19.756 44.8428 19.0264 44.0149 18.1643C42.067 16.1325 35.7916 14.1937 32.3119 15.8139ZM32.7545 40.4465C31.0212 39.691 29.6504 38.319 28.9581 36.6297C27.46 36.6401 25.9816 36.4979 24.5511 36.1973C23.4771 35.9746 22.4535 35.6075 21.5503 35.2834L21.547 35.2823C20.225 34.8073 18.9755 34.3588 18.3683 34.6613C17.9309 34.8784 17.5314 35.6203 17.2435 36.7499C16.5629 39.419 18.4072 45.4098 21.7911 47.2051C23.963 48.3574 26.5051 47.5947 29.3462 44.9367C30.7471 43.6254 31.8896 42.119 32.7545 40.4465ZM73.3197 59.1943C71.075 59.1943 69.2484 57.4733 69.2484 55.3582V37.9526C69.2484 35.8373 71.075 34.1163 73.3197 34.1163H79.2085C81.4539 34.1163 83.2798 35.8373 83.2798 37.9526V44.1754C83.2798 44.8604 82.691 45.4161 81.9639 45.4161C81.2373 45.4161 80.6478 44.8604 80.6478 44.1754V37.9526C80.6478 37.2054 80.0022 36.598 79.2085 36.598H73.3197C72.5259 36.598 71.8802 37.2054 71.8802 37.9526V55.3582C71.8802 56.1052 72.5266 56.7126 73.3197 56.7126H79.2085C80.0022 56.7126 80.6478 56.1052 80.6478 55.3582V49.9095C80.6478 49.2245 81.2373 48.6687 81.9639 48.6687C82.691 48.6687 83.2798 49.2245 83.2798 49.9095V55.3582C83.2798 57.4733 81.4539 59.1943 79.2085 59.1943H73.3197ZM37.1859 30.8076C36.7527 30.6486 36.301 30.5685 35.8433 30.5685C34.9104 30.5685 34.0228 30.8993 33.3422 31.503C32.6157 32.1505 32.199 33.0611 32.199 34.0007C32.199 34.2405 32.2272 34.4867 32.2847 34.7413C32.589 36.0428 33.6719 37.0652 35.0475 37.3502C35.297 37.4065 35.5574 37.4329 35.8433 37.4329C36.7726 37.4329 37.6561 37.1033 38.3285 36.5075C39.0612 35.8613 39.4819 34.9482 39.4819 34.0007C39.4819 33.6317 39.4216 33.2704 39.3024 32.9266C39.3024 32.926 39.3024 32.9247 39.3016 32.9241C38.9672 31.9618 38.201 31.1921 37.1859 30.8076ZM36.528 34.6974C36.3436 34.8609 36.0995 34.9514 35.8433 34.9514C35.7617 34.9514 35.7007 34.9462 35.6514 34.9346L35.6359 34.9311L35.6171 34.9274C35.2443 34.8519 34.9385 34.5629 34.8577 34.2172L34.8505 34.1843C34.8468 34.1656 34.8436 34.1472 34.8411 34.1291C34.8346 34.0843 34.8315 34.0413 34.8315 34.0007C34.8315 33.7364 34.9447 33.4902 35.1483 33.3086C35.3368 33.1418 35.5835 33.0501 35.8433 33.0501C35.9735 33.0501 36.1036 33.0733 36.2174 33.1153C36.4916 33.2194 36.7095 33.4365 36.8008 33.697C36.8329 33.79 36.8494 33.8953 36.8494 34.0007C36.8501 34.2669 36.7363 34.5132 36.528 34.6974ZM81.9639 22.3126H70.5645C69.8372 22.3126 69.2484 21.7568 69.2484 21.0718C69.2484 20.3867 69.8372 19.8309 70.5645 19.8309H81.9639C82.6903 19.8309 83.2798 20.386 83.2798 21.0718C83.2798 21.7568 82.691 22.3126 81.9639 22.3126ZM70.5645 29.4414H81.9639C82.691 29.4414 83.2798 28.8856 83.2798 28.2006C83.2798 27.5149 82.6903 26.9598 81.9639 26.9598H70.5645C69.8372 26.9598 69.2484 27.5149 69.2484 28.2006C69.2484 28.8856 69.8372 29.4414 70.5645 29.4414ZM81.1036 15.1838H71.4246C70.2245 15.1838 69.2484 14.2628 69.2484 13.1312V9.41461C69.2484 8.28241 70.2245 7.36145 71.4246 7.36145H81.1036C82.3037 7.36145 83.2798 8.28241 83.2798 9.41461V13.1312C83.2798 14.2628 82.3037 15.1838 81.1036 15.1838ZM80.6478 9.84308H71.8802V12.7021H80.6478V9.84308Z" fill="#444444"/>
</svg>
