<svg width="90" height="86" viewBox="0 0 90 86" fill="none" xmlns="http://www.w3.org/2000/svg">
<path d="M26.3639 47.0663H12.3271C11.3582 47.0663 10.5725 47.807 10.5725 48.7207V61.956C10.5725 62.8697 11.3582 63.6104 12.3271 63.6104H26.3639C27.3328 63.6104 28.1185 62.8697 28.1185 61.956V48.7207C28.1185 47.807 27.333 47.0663 26.3639 47.0663ZM24.6093 60.3016H14.0817V50.3752H24.6093V60.3016Z" fill="#444444"/>
<path d="M88.7968 35.1149C88.1411 34.8586 87.3863 35.0007 86.8846 35.4734L69.0056 52.3316C69.0054 52.3319 69.0051 52.332 69.0047 52.3324C69.0044 52.3327 69.0042 52.3329 69.004 52.3332L48.1623 71.9849C48.1619 71.9853 48.1617 71.9854 48.1614 71.9858C48.161 71.9861 48.1609 71.9863 48.1605 71.9866L37.2294 82.2934C36.7279 82.7666 36.5776 83.4783 36.849 84.0964C37.1207 84.7146 37.7605 85.1176 38.4702 85.1176H88.1253C89.0942 85.1176 89.8799 84.3769 89.8799 83.4632V36.6435C89.8799 35.9744 89.4525 35.371 88.7968 35.1149ZM86.3708 81.8088H42.7063L49.402 75.4954L51.0769 77.0747C51.4196 77.3978 51.8687 77.5593 52.3176 77.5593C52.7666 77.5593 53.2156 77.3978 53.5583 77.0747C54.2435 76.4287 54.2435 75.3811 53.5583 74.7349L51.8833 73.1556L56.3499 68.9441L58.0246 70.5233C58.3673 70.8464 58.8164 71.0078 59.2653 71.0078C59.7143 71.0078 60.1633 70.8462 60.506 70.5233C61.1912 69.8772 61.1912 68.8296 60.506 68.1836L58.831 66.6043L63.2976 62.3928L64.9725 63.9721C65.3152 64.2952 65.7642 64.4567 66.2132 64.4567C66.6622 64.4567 67.1112 64.2952 67.4539 63.9721C68.139 63.3261 68.139 62.2785 67.4539 61.6323L65.7789 60.053L70.2453 55.8417L71.9202 57.421C72.2629 57.7441 72.7118 57.9056 73.1609 57.9056C73.6099 57.9056 74.0589 57.7441 74.4016 57.421C75.0867 56.775 75.0867 55.7274 74.4016 55.0812L72.7266 53.5018L77.1931 49.2904L78.8679 50.8696C79.2105 51.1927 79.6595 51.3542 80.1085 51.3542C80.5576 51.3542 81.0066 51.1925 81.3492 50.8696C82.0344 50.2235 82.0344 49.1759 81.3492 48.5299L79.6743 46.9506L86.3708 40.6375V81.8088Z" fill="#444444"/>
<path d="M80.0241 55.0856C79.3684 54.8293 78.6136 54.971 78.1119 55.4441L58.4097 74.0214C57.9081 74.4945 57.7577 75.2061 58.0293 75.8244C58.3009 76.4426 58.9407 76.8456 59.6504 76.8456H79.3526C80.3216 76.8456 81.1072 76.1049 81.1072 75.1912V56.614C81.1072 55.9449 80.6798 55.3417 80.0241 55.0856ZM77.598 73.5368H63.8865L77.598 60.6081V73.5368Z" fill="#444444"/>
<path d="M81.2931 25.1058C80.8101 24.6505 80.091 24.5006 79.449 24.7222L67.4684 28.859C67.229 28.9417 67.0116 29.0726 66.831 29.2426L63.4623 32.419L41.4657 11.6781C41.1365 11.3679 40.6903 11.1936 40.225 11.1936C39.7597 11.1936 39.3133 11.3679 38.9843 11.6781L12.5069 36.6437H6.03538L40.225 4.40619L58.9867 22.0966C59.6721 22.7427 60.7827 22.7427 61.4683 22.0966C62.1534 21.4505 62.1534 20.403 61.4683 19.7568L41.4658 0.896523C40.7804 0.250476 39.6699 0.250476 38.9843 0.896523L0.558574 37.1281C0.0569342 37.6012 -0.0932599 38.3128 0.178177 38.931C0.449789 39.5494 1.08951 39.9525 1.79926 39.9525H3.55385V83.4634C3.55385 84.3771 4.33956 85.1178 5.30845 85.1178H33.2041C34.173 85.1178 34.9587 84.3771 34.9587 83.4634C34.9587 82.5497 34.173 81.809 33.2041 81.809H7.06305V39.9525H13.2336C13.699 39.9525 14.1452 39.7781 14.4743 39.4679L40.225 15.1877L60.9809 34.7585L34.9612 59.2925V44.4194H47.2434C48.2122 44.4194 48.998 43.6787 48.998 42.765C48.998 41.8513 48.2122 41.1106 47.2434 41.1106H33.2066C32.2377 41.1106 31.452 41.8513 31.452 42.765V61.9561C31.452 62.1492 31.4888 62.3334 31.5532 62.5057L29.9813 63.9878C27.2038 66.6069 27.2038 70.8682 29.9813 73.4871C31.3703 74.7968 33.1941 75.4517 35.0186 75.4515C36.8426 75.4515 38.6672 74.7966 40.0559 73.4873L54.8527 59.5354C55.5379 58.8893 55.5379 57.8418 54.8527 57.1958C54.1676 56.5496 53.0569 56.5496 52.3712 57.1958L41.1607 67.766L36.049 62.9463L68.1068 32.7191L73.2185 37.5389L60.9687 49.0893C60.2836 49.7353 60.2836 50.7829 60.9687 51.429C61.6541 52.075 62.7647 52.075 63.4503 51.429L76.9056 38.7419C77.0858 38.5718 77.2248 38.3668 77.3123 38.1411L81.6999 26.8446C81.9348 26.2397 81.7761 25.5613 81.2931 25.1058ZM38.6795 70.1056L37.5745 71.1475C36.8918 71.7912 35.9843 72.1458 35.0188 72.1458C34.0531 72.1458 33.1455 71.7912 32.463 71.1475C31.7801 70.5038 31.4043 69.648 31.4043 68.7377C31.4043 67.8275 31.7799 66.9715 32.4629 66.3277L33.5678 65.2857L38.6795 70.1056ZM74.9812 34.521L71.3074 31.057L77.1042 29.0554L74.9812 34.521Z" fill="#444444"/>
<path d="M59.1197 53.171C58.7935 52.8633 58.3408 52.6863 57.8793 52.6863C57.4179 52.6863 56.9652 52.8633 56.6388 53.171C56.3125 53.4804 56.1248 53.9056 56.1248 54.3407C56.1248 54.7775 56.3123 55.2026 56.6388 55.512C56.9652 55.8197 57.4162 55.9951 57.8793 55.9951C58.3408 55.9951 58.7935 55.8197 59.1197 55.512C59.4461 55.2026 59.6339 54.7758 59.6339 54.3407C59.6339 53.9056 59.4462 53.4804 59.1197 53.171Z" fill="#444444"/>
<path d="M40.2254 25.3935C36.5489 25.3935 33.5579 28.2137 33.5579 31.6803C33.5579 35.1467 36.5489 37.967 40.2254 37.967C43.9017 37.967 46.8928 35.1467 46.8928 31.6803C46.8928 28.2137 43.9017 25.3935 40.2254 25.3935ZM40.2254 34.6581C38.4838 34.6581 37.067 33.3224 37.067 31.6803C37.067 30.0382 38.4838 28.7023 40.2254 28.7023C41.9668 28.7023 43.3836 30.0382 43.3836 31.6803C43.3836 33.3222 41.9668 34.6581 40.2254 34.6581Z" fill="#444444"/>
</svg>
