<svg width="84" height="86" viewBox="0 0 84 86" fill="none" xmlns="http://www.w3.org/2000/svg">
<path fill-rule="evenodd" clip-rule="evenodd" d="M72.3325 0.411895H11.6935C5.32111 0.387786 0.13031 5.23154 0.0897827 11.24V66.1435C0.120117 70.3109 3.65161 73.7044 8.07025 73.8114L11.7017 82.0294C12.5025 83.8959 14.4243 85.1175 16.5597 85.1175C18.695 85.1175 20.6169 83.8957 21.4178 82.0292L25.0439 73.8233H52.5821C53.358 80.4134 59.3818 85.3304 66.4101 85.1104C73.4384 84.8904 79.1031 79.6073 79.4136 72.9834C82.1707 71.6922 83.9203 69.0461 83.9362 66.1435V11.24C83.8958 5.23154 78.7049 0.387603 72.3325 0.411895ZM3.08435 42.7648H13.5651V45.5883H3.08435V42.7648ZM13.5874 48.4118C13.7148 49.9059 14.9749 51.0911 16.5597 51.2074V65.3529H12.3823C11.3538 65.3238 10.5439 64.516 10.5707 63.5462V48.4118H13.5874ZM18.6542 80.9431C18.3183 81.7577 17.4865 82.2942 16.5595 82.2942C15.6326 82.2942 14.8009 81.7577 14.4648 80.9431L11.3187 73.8235H21.8001L18.6542 80.9431ZM52.5821 70.9999H8.32465C5.45673 71.0201 3.11261 68.8477 3.08417 66.1435V48.4118H7.57593V63.5462C7.55035 66.0749 9.70026 68.1463 12.3821 68.1765H53.2799C52.9329 69.089 52.6987 70.0365 52.5821 70.9999ZM21.0515 47.0001C21.8784 47.0001 22.5486 46.3679 22.5486 45.5883V42.7648H27.0404V45.5883C27.0404 46.3681 27.7107 47.0001 28.5376 47.0001C29.3646 47.0001 30.0349 46.3679 30.0349 45.5883V42.7648H34.5266V45.5883C34.5266 46.3681 35.1969 47.0001 36.0238 47.0001C36.8508 47.0001 37.5211 46.3679 37.5211 45.5883V42.7648H40.5156V48.2098C40.5156 48.3055 40.3928 48.4118 40.2159 48.4118H16.8594C16.6824 48.4118 16.5597 48.3055 16.5597 48.2098V42.7648H18.0568H19.5541V45.5883C19.5541 46.3679 20.2245 47.0001 21.0515 47.0001ZM28.5378 35.7059C29.3647 35.7059 30.035 35.0738 30.035 34.2942V31.4706H37.5214V39.9412H19.5541V31.4706H27.0404V34.2942C27.0404 35.0738 27.7109 35.7059 28.5378 35.7059ZM64.4719 51.2354H48.0019C45.5223 51.2378 43.5128 53.1326 43.5102 55.4706V65.3529H36.0238V51.2354H40.2159C41.9235 51.2499 43.3523 50.0169 43.4879 48.4118H73.4552V57.0237C73.4585 58.4909 73.0989 59.9388 72.4047 61.252C71.3225 60.6985 70.1644 60.2881 68.9634 60.0331V55.4705C68.9609 53.1324 66.9516 51.2378 64.4719 51.2354ZM49.4993 55.4706V65.3529H46.5047V55.4706C46.5047 54.6909 47.1752 54.0589 48.0019 54.0589C48.829 54.0587 49.4993 54.6909 49.4993 55.4706ZM28.5378 59.7059V56.8824H33.0295V59.7059H28.5378ZM33.0294 62.5293V65.3529H28.5376V62.5293H33.0294ZM28.5378 54.0587V51.2352H33.0295V54.0587H28.5378ZM25.5433 51.2354V65.3529H19.5541V51.2354H25.5433ZM52.4938 65.3529V55.4706C52.4888 54.9886 52.3954 54.5109 52.2181 54.0589H64.4719C65.2982 54.06 65.968 54.6914 65.969 55.4706V59.7059C61.4711 59.7078 57.2708 61.8261 54.7724 65.3529H52.4938ZM65.9692 82.294C61.73 82.294 57.9083 79.8862 56.2862 76.1936C54.664 72.5008 55.5607 68.2503 58.5583 65.4239C61.5559 62.5974 66.0637 61.7521 69.9802 63.2816C73.8966 64.8113 76.4501 68.4148 76.4501 72.4116C76.4434 77.867 71.7548 82.2879 65.9692 82.294ZM80.9417 66.1435C80.9324 67.5431 80.2781 68.8694 79.1492 69.778C78.5418 67.1023 77.0339 64.683 74.8503 62.8808C75.8964 61.0858 76.4464 59.0716 76.45 57.0237V48.4118H80.9417V66.1435ZM80.9417 45.5882H43.5103V42.7646H80.9417V45.5882ZM80.9417 39.9412H40.5157V31.4706C40.5142 29.9118 39.1743 28.6487 37.5211 28.6471H19.5541C17.9009 28.6486 16.5613 29.9118 16.5595 31.4706V39.9412H3.08417V25.8236H9.07318H80.9415L80.9417 39.9412ZM67.4664 15.9412C70.7724 15.9447 73.4517 18.471 73.4554 21.5882V22.9999H10.5706V21.5882C10.5743 18.471 13.2534 15.9447 16.5595 15.9412H21.0513H67.4664ZM22.5486 13.1178C22.5502 11.559 23.8901 10.2958 25.5433 10.2942H34.5267C36.18 10.2957 37.5195 11.559 37.5214 13.1178H22.5486ZM80.9417 23.0001H76.45V21.5883C76.4445 16.9123 72.4256 13.123 67.4664 13.1178H40.5157C40.5119 10.0006 37.8328 7.47427 34.5267 7.47079H25.5433C22.237 7.47427 19.5579 10.0004 19.5541 13.1178H16.5595C11.6003 13.123 7.58142 16.9123 7.57593 21.5883V23.0001H3.08417V11.24C3.12299 6.79019 6.97412 3.2095 11.6935 3.2355H72.3325C77.0518 3.2095 80.903 6.79031 80.9417 11.24V23.0001ZM65.9693 66.7646C62.6617 66.7646 59.9803 69.2929 59.9803 72.4116C59.9803 75.5304 62.6617 78.0586 65.9693 78.0586C69.2769 78.0586 71.9583 75.5304 71.9583 72.4116C71.9546 69.2944 69.2753 66.7682 65.9693 66.7646ZM65.9693 75.2352C64.3154 75.2352 62.9747 73.971 62.9747 72.4116C62.9747 70.8521 64.3154 69.588 65.9693 69.588C67.6232 69.588 68.9639 70.8521 68.9639 72.4116C68.962 73.9704 67.6225 75.2337 65.9693 75.2352ZM53.9911 37.1176H46.5049C44.8519 37.1162 43.512 35.8528 43.5103 34.294V31.4705C43.512 29.9117 44.8517 28.6484 46.5049 28.6469H53.9911C55.6443 28.6486 56.9842 29.9117 56.9858 31.4705V34.294C56.984 35.8528 55.6443 37.1162 53.9911 37.1176ZM53.9911 31.4706H46.5049V34.2942H53.9933L53.9911 31.4706Z" fill="#444444"/>
</svg>
