<svg width="90" height="65" viewBox="0 0 90 65" fill="none" xmlns="http://www.w3.org/2000/svg">
<path d="M87.4333 4.11384L83.9876 1.23798C83.4433 0.783864 82.6112 0.831205 82.1293 1.3449C81.6475 1.85822 81.6982 2.64259 82.2426 3.09709L85.6881 5.97295C87.4438 7.43826 87.8624 9.88871 86.6908 11.7884L74.0013 31.858H65.7647V27.8323C65.7647 25.9802 64.1666 24.4734 62.2024 24.4734H55.7144L55.5368 22.0431C55.3986 20.1544 53.7175 18.6747 51.7097 18.6747H41.3802C39.3722 18.6747 37.691 20.1544 37.553 22.0433L37.3753 24.4734H31.1136C24.7962 24.4734 19.6567 29.3193 19.6567 35.276V42.0269C19.6567 43.5443 20.9661 44.7788 22.5754 44.7788H24.199V47.5938H19.0779C17.0913 45.4905 14.2 44.1624 10.9848 44.1624C5.0078 44.1622 0.145264 48.7471 0.145264 54.3826C0.145264 60.0183 5.0078 64.603 10.9845 64.603C14.1997 64.603 17.0907 63.275 19.0774 61.1717H64.9482C66.9349 63.275 69.826 64.603 73.0411 64.603C79.0182 64.603 83.8805 60.0181 83.8805 54.3826C83.8805 48.747 79.018 44.1622 73.0411 44.1622C71.5213 44.1622 70.0744 44.4598 68.7602 44.9947L88.9598 13.0479C90.767 10.1179 90.1252 6.36071 87.4333 4.11384ZM40.1795 22.2138C40.2226 21.6213 40.7501 21.1571 41.38 21.1571H51.7095C52.3394 21.1571 52.8667 21.6213 52.91 22.2138L53.0753 24.4732H40.0142L40.1795 22.2138ZM22.575 42.2963V42.2962C22.4173 42.2962 22.2893 42.1753 22.2893 42.0267V35.2759C22.2893 30.7428 26.1548 27.0471 30.9408 26.9598L62.2024 26.9556C62.7149 26.9556 63.132 27.3489 63.132 27.8321V37.3674C63.132 37.8506 62.7149 38.2439 62.2024 38.2439H34.6579C33.0487 38.2439 31.7392 39.4785 31.7392 40.996V42.0269C31.7392 42.1754 31.6109 42.2963 31.4534 42.2963H25.5151H22.575ZM56.3687 40.7264V47.5937H26.8315V44.7787H31.4535C33.0628 44.7787 34.3722 43.5441 34.3722 42.0267V40.9958C34.3722 40.8471 34.5004 40.7264 34.6579 40.7264H56.3687ZM19.1813 54.7541C19.1797 54.7847 19.1772 54.815 19.1754 54.8454C19.1692 54.9427 19.1618 55.0397 19.1518 55.1361C19.1492 55.162 19.1462 55.188 19.1432 55.214C19.1306 55.3249 19.1161 55.4352 19.0985 55.5447C19.0973 55.5523 19.0962 55.5601 19.095 55.5678C19.085 55.6286 19.0719 55.6883 19.0606 55.7488C19.0321 55.8996 18.999 56.0496 18.9609 56.1985C18.9604 56.2007 18.9598 56.2029 18.9593 56.2048C18.8438 56.655 18.684 57.0945 18.4847 57.518C18.4754 57.5377 18.466 57.5571 18.4567 57.5767C18.4007 57.6931 18.3412 57.808 18.2791 57.9217C18.2656 57.9464 18.2524 57.9716 18.2386 57.9963C18.1694 58.1195 18.0969 58.2409 18.0208 58.3605C18.0154 58.3692 18.0105 58.3779 18.005 58.3865C17.9285 58.5058 17.8473 58.6226 17.7639 58.7381C17.7278 58.7879 17.6901 58.8364 17.6528 58.8851C17.6034 58.9502 17.5532 59.0147 17.5016 59.0783C16.0006 60.9259 13.6384 62.1205 10.9848 62.1205C6.4599 62.1205 2.7784 58.6493 2.7784 54.3826C2.7784 50.1159 6.4599 46.6447 10.9848 46.6447C13.6574 46.6447 16.035 47.8561 17.5345 49.7264C17.5481 49.7434 17.562 49.7604 17.5755 49.7777C17.6461 49.8674 17.7153 49.9586 17.782 50.0513C17.7846 50.0551 17.7875 50.0587 17.7903 50.0624C18.4518 50.9858 18.9075 52.0505 19.0953 53.1974C19.0966 53.2052 19.0978 53.2131 19.099 53.2209C19.1166 53.3303 19.1311 53.4405 19.1436 53.5513C19.1466 53.5773 19.1495 53.6033 19.1522 53.6292C19.162 53.7255 19.1696 53.8225 19.1757 53.9198C19.1776 53.9503 19.1802 53.9807 19.1816 54.0111C19.1878 54.1342 19.1916 54.2579 19.1916 54.3825C19.1911 54.5073 19.1874 54.631 19.1813 54.7541ZM20.8188 58.6897C21.058 58.2068 21.254 57.708 21.4088 57.1967H24.6011C25.3282 57.1967 25.9176 56.641 25.9176 55.9553C25.9176 55.2698 25.3282 54.714 24.6011 54.714H21.8149C21.8186 54.6037 21.8239 54.4939 21.8239 54.3826C21.8239 54.2016 21.8185 54.0215 21.8086 53.8425C21.8033 53.7454 21.7934 53.6491 21.7852 53.5525C21.7785 53.4744 21.7736 53.3958 21.7649 53.3183C21.7509 53.1897 21.7322 53.0623 21.7132 52.9349C21.7069 52.8926 21.7018 52.8497 21.6947 52.8075C21.6709 52.6612 21.6424 52.5164 21.612 52.3717C21.6076 52.3514 21.6039 52.3307 21.5995 52.3104C21.5655 52.1536 21.5268 51.998 21.4849 51.8433C21.4833 51.8373 21.4817 51.8312 21.4801 51.8251C21.3163 51.2241 21.0976 50.6387 20.8187 50.0759H63.2067C62.9277 50.6391 62.7089 51.2251 62.5451 51.8266C62.5438 51.8312 62.5426 51.836 62.5414 51.8407C62.4993 51.9965 62.4604 52.1532 62.4259 52.311C62.4217 52.3305 62.4182 52.3503 62.4141 52.3697C62.3833 52.515 62.3547 52.6608 62.3308 52.8079C62.324 52.8496 62.3191 52.8917 62.3127 52.9336C62.2937 53.0615 62.2749 53.1893 62.2608 53.3184C62.2522 53.3958 62.2475 53.4742 62.2409 53.5523C62.2328 53.6491 62.2226 53.7454 62.2173 53.8429C62.2073 54.0217 62.202 54.2016 62.202 54.383C62.2018 54.4939 62.2071 54.6039 62.2108 54.714H33.9538C33.2267 54.714 32.6373 55.2698 32.6373 55.9553C32.6373 56.641 33.2267 57.1967 33.9538 57.1967H62.617C62.7718 57.7079 62.9677 58.2068 63.2069 58.6897H20.8188ZM73.0413 46.6447C77.5664 46.6447 81.2479 50.1159 81.2479 54.3826C81.2479 58.6493 77.5664 62.1205 73.0413 62.1205C70.387 62.1205 68.024 60.925 66.5229 59.0763C66.4727 59.0144 66.424 58.9517 66.3759 58.8884C66.3375 58.838 66.2985 58.7879 66.2613 58.7366C66.1785 58.622 66.0978 58.5059 66.0217 58.3873C66.0148 58.3766 66.0087 58.3655 66.0018 58.3548C65.9274 58.2374 65.8562 58.1185 65.7885 57.9977C65.7737 57.9714 65.7597 57.9448 65.7453 57.9184C65.6843 57.8066 65.6258 57.6937 65.5707 57.5793C65.5604 57.558 65.5502 57.5368 65.54 57.5153C65.3417 57.0938 65.1828 56.6561 65.0675 56.208C65.0661 56.2025 65.0649 56.1969 65.0635 56.1915C65.0265 56.0465 64.9941 55.9006 64.9664 55.7538C64.9545 55.6914 64.9411 55.6296 64.9309 55.5665C64.9299 55.5598 64.9289 55.5528 64.9279 55.546C64.9101 55.4359 64.8955 55.3249 64.8829 55.2133C64.8801 55.1877 64.8772 55.162 64.8745 55.1364C64.8645 55.04 64.8571 54.9428 64.851 54.8452C64.8492 54.8148 64.8466 54.7845 64.845 54.7541C64.8389 54.631 64.835 54.5073 64.835 54.3826C64.835 54.2581 64.8387 54.1344 64.845 54.0113C64.8466 53.9809 64.8491 53.9505 64.851 53.9201C64.8571 53.8226 64.8647 53.7255 64.8745 53.6291C64.8772 53.6033 64.8801 53.5777 64.8829 53.552C64.8955 53.4405 64.9103 53.3297 64.9279 53.2196C64.9289 53.2127 64.93 53.2056 64.9312 53.1986C65.1388 51.9296 65.6746 50.7618 66.4538 49.7742C66.465 49.76 66.4766 49.7457 66.488 49.7314C67.987 47.858 70.3664 46.6447 73.0413 46.6447ZM64.052 47.5937H59.0017V40.7264H62.2025C64.1668 40.7264 65.7649 39.2195 65.7649 37.3674V34.3403H72.4317L64.052 47.5937Z" fill="#444444"/>
<path d="M10.9844 50.206C8.54202 50.206 6.55493 52.0797 6.55493 54.3827C6.55493 56.6859 8.54202 58.5595 10.9844 58.5595C13.427 58.5595 15.4141 56.6859 15.4141 54.3827C15.4141 52.0798 13.427 50.206 10.9844 50.206ZM10.9844 56.0771C9.99378 56.0771 9.18772 55.317 9.18772 54.3827C9.18772 53.4485 9.9936 52.6884 10.9844 52.6884C11.9752 52.6884 12.7814 53.4485 12.7814 54.3827C12.7814 55.317 11.9752 56.0771 10.9844 56.0771Z" fill="#444444"/>
<path d="M73.0415 50.2062C70.5988 50.2062 68.6118 52.0798 68.6118 54.3828C68.6118 56.6858 70.5988 58.5596 73.0415 58.5596C75.484 58.5596 77.4711 56.686 77.4711 54.3828C77.4711 52.0798 75.484 50.2062 73.0415 50.2062ZM73.0415 56.0771C72.0506 56.0771 71.2445 55.3171 71.2445 54.3828C71.2445 53.4486 72.0506 52.6885 73.0415 52.6885C74.0321 52.6885 74.8383 53.4486 74.8383 54.3828C74.8383 55.3171 74.0323 56.0771 73.0415 56.0771Z" fill="#444444"/>
<path d="M40.5243 28.6068C39.7972 28.6068 39.2078 29.1625 39.2078 29.8481V35.2446C39.2078 35.9304 39.7972 36.486 40.5243 36.486C41.2514 36.486 41.8408 35.9302 41.8408 35.2446V29.8481C41.8408 29.1625 41.2514 28.6068 40.5243 28.6068Z" fill="#444444"/>
<path d="M46.2447 28.6068C45.5175 28.6068 44.9282 29.1625 44.9282 29.8481V35.2446C44.9282 35.9304 45.5175 36.486 46.2447 36.486C46.9718 36.486 47.5612 35.9302 47.5612 35.2446V29.8481C47.5612 29.1625 46.9718 28.6068 46.2447 28.6068Z" fill="#444444"/>
<path d="M51.9648 28.6068C51.2377 28.6068 50.6484 29.1625 50.6484 29.8481V35.2446C50.6484 35.9304 51.2377 36.486 51.9648 36.486C52.6919 36.486 53.2813 35.9302 53.2813 35.2446V29.8481C53.2813 29.1625 52.6919 28.6068 51.9648 28.6068Z" fill="#444444"/>
<path d="M57.6851 28.6068C56.958 28.6068 56.3687 29.1625 56.3687 29.8481V35.2446C56.3687 35.9304 56.958 36.486 57.6851 36.486C58.4122 36.486 59.0015 35.9302 59.0015 35.2446V29.8481C59.0015 29.1625 58.4122 28.6068 57.6851 28.6068Z" fill="#444444"/>
</svg>
