<svg width="20" height="16" viewBox="0 0 20 16" fill="none" xmlns="http://www.w3.org/2000/svg">
<path d="M19.6387 2.11605L17.8839 0.361239C17.6433 0.120443 17.3507 0 17.0067 0C16.6624 0 16.3698 0.120443 16.1291 0.361239L7.66451 8.83866L3.87094 5.03217C3.63006 4.79128 3.3376 4.67097 2.99363 4.67097C2.64943 4.67097 2.35698 4.79128 2.11609 5.03217L0.361284 6.78702C0.120398 7.02786 0 7.3204 0 7.66456C0 8.00844 0.120398 8.30125 0.361284 8.54205L5.03217 13.2128L6.78711 14.9676C7.02786 15.2086 7.3204 15.3289 7.66451 15.3289C8.00849 15.3289 8.30103 15.2083 8.54192 14.9676L10.2968 13.2128L19.6387 3.87099C19.8794 3.6301 20 3.3376 20 2.99345C20.0002 2.64947 19.8794 2.35693 19.6387 2.11605Z" fill="#FF3300"/>
</svg>
