<svg width="34" height="30" viewBox="0 0 34 30" fill="none" xmlns="http://www.w3.org/2000/svg">
<path d="M1.28474 4.39716L21.8969 0.0350432C22.769 -0.149457 23.6334 0.413172 23.8179 1.28524L24.2095 3.80181L0.426472 8.83467L0.0348721 6.3181C-0.149628 5.44636 0.412668 4.58172 1.28474 4.39716Z" fill="#FF3300"/>
<path d="M9.95299 9.36837C10.1937 8.50135 11.0998 7.98888 11.9665 8.22925L15.8795 9.31552L25.104 7.36328L26.1185 12.1567L32.4572 13.916C33.3239 14.1565 33.8364 15.0625 33.596 15.9293L30.0238 28.8018C29.783 29.6685 28.8769 30.1813 28.0102 29.9406L7.51957 24.2542C6.65289 24.0134 6.14041 23.1077 6.38078 22.2406L6.99395 20.0308L4.69587 20.5167C3.8238 20.7015 2.95942 20.1389 2.77493 19.2668L1.32098 12.3962L9.59878 10.6445L9.95299 9.36837ZM7.5866 15.9107L7.07985 13.5157C7.00374 13.1571 6.64816 12.9258 6.28961 13.0015L3.89457 13.5086C3.53563 13.5847 3.30433 13.9399 3.38006 14.2988L3.88682 16.6939C3.96293 17.0525 4.31845 17.2841 4.67706 17.2081L7.07209 16.7013C7.43136 16.6249 7.66271 16.2693 7.5866 15.9107ZM32.1006 15.2006L26.4301 13.6275L13.0504 9.91455L11.6107 9.51454C11.5844 9.50744 11.5582 9.50409 11.5325 9.50409C11.4171 9.50409 11.279 9.57987 11.2386 9.72499L11.0696 10.3338L10.5399 12.2422L31.6124 18.0899L32.3111 15.573C32.3549 15.4151 32.2585 15.2444 32.1006 15.2006ZM7.66574 22.5968C7.63879 22.6945 7.66706 22.7753 7.69571 22.8258C7.72398 22.8763 7.77853 22.9423 7.8762 22.9692L28.3665 28.6556C28.3924 28.6627 28.419 28.6664 28.4446 28.6664C28.5601 28.6664 28.6982 28.5903 28.7385 28.4452L30.8221 20.9368L9.74963 15.0888L8.4644 19.7196L7.66574 22.5968Z" fill="#FF3300"/>
<path d="M25.0551 23.1107C25.1534 22.7571 25.5225 22.5484 25.876 22.6464L28.2691 23.3107C28.6223 23.4087 28.8313 23.7781 28.733 24.1316L28.069 26.5243C27.9707 26.8778 27.6017 27.0866 27.2481 26.9882L24.8551 26.3243C24.5016 26.2263 24.2928 25.8569 24.3908 25.5033L25.0551 23.1107Z" fill="#FF3300"/>
</svg>
