<svg width="40" height="40" viewBox="0 0 40 40" fill="none" xmlns="http://www.w3.org/2000/svg">
<path d="M37.8204 20.6122L38.1955 20L37.8204 19.3875C37.7576 19.2853 36.2488 16.85 33.3176 14.4095C29.4189 11.1639 24.826 9.44824 20.0351 9.44824C15.2454 9.44824 10.6412 11.163 6.72028 14.407C3.77228 16.8463 2.2464 19.2798 2.18292 19.3823L1.79993 20L2.18292 20.6177C2.2464 20.7202 3.77228 23.1537 6.72028 25.593C10.6412 28.837 15.2454 30.5518 20.0351 30.5518C24.826 30.5518 29.4189 28.8361 33.3176 25.5905C36.2488 23.15 37.7576 20.7147 37.8204 20.6122ZM31.7557 23.8406C28.2486 26.7386 24.3051 28.2077 20.0351 28.2077C15.7635 28.2077 11.8073 26.7377 8.27637 23.8379C6.4502 22.3383 5.2121 20.8197 4.60571 20C5.2124 19.1797 6.4505 17.6614 8.27637 16.1618C11.8073 13.2623 15.7632 11.792 20.0351 11.792C24.3051 11.792 28.2483 13.2614 31.7557 16.1591C33.5736 17.6611 34.801 19.1818 35.3992 20C34.8004 20.8185 33.5733 22.3392 31.7557 23.8406Z" fill="#444444"/>
<path d="M20 12.9584C16.1172 12.9584 12.9584 16.1172 12.9584 20C12.9584 23.8828 16.1172 27.0416 20 27.0416C23.8828 27.0416 27.0416 23.8828 27.0416 20C27.0416 16.1172 23.8828 12.9584 20 12.9584ZM20 24.6979C17.4097 24.6979 15.3021 22.5903 15.3021 20C15.3021 17.4097 17.4097 15.3021 20 15.3021C22.5903 15.3021 24.6979 17.4097 24.6979 20C24.6979 22.5903 22.5903 24.6979 20 24.6979Z" fill="#444444"/>
<path d="M2.34375 2.34375H7.23633V0H0V7.14844H2.34375V2.34375Z" fill="#444444"/>
<path d="M32.7637 0V2.34375H37.6562V7.14844H40V0H32.7637Z" fill="#444444"/>
<path d="M2.34375 32.8516H0V40H7.23633V37.6562H2.34375V32.8516Z" fill="#444444"/>
<path d="M37.6562 37.6562H32.7637V40H40V32.8516H37.6562V37.6562Z" fill="#444444"/>
</svg>
