<svg width="22" height="30" viewBox="0 0 22 30" fill="none" xmlns="http://www.w3.org/2000/svg">
<path d="M10.5469 0C4.7284 0 0 4.72852 0 10.5469C0 12.5156 0.545039 14.4317 1.58209 16.0841L9.83191 29.5849C9.97266 29.8134 10.1836 29.9541 10.4297 29.9892C10.7636 30.0419 11.1329 29.9013 11.3262 29.5674L19.5997 15.9434C20.5839 14.3262 21.0938 12.4454 21.0938 10.5469C21.0938 4.72852 16.3654 0 10.5469 0ZM10.5469 15.8203C7.59387 15.8203 5.27344 13.4297 5.27344 10.5469C5.27344 7.64643 7.64643 5.27344 10.5469 5.27344C13.4473 5.27344 15.8203 7.64643 15.8203 10.5469C15.8203 13.4121 13.5351 15.8203 10.5469 15.8203Z" fill="#FF3300"/>
</svg>
