<svg width="21" height="31" viewBox="0 0 21 31" fill="none" xmlns="http://www.w3.org/2000/svg">
<path d="M18.6886 14.0198H18.6483C17.8741 14.0198 17.2224 14.7295 17.2224 15.6417V16.9061C17.2224 17.1579 17.0328 17.3624 16.7993 17.3624C16.5656 17.3624 16.3762 17.1579 16.3762 16.9061V14.5714C16.3762 13.6592 15.7621 12.9171 14.9882 12.9171C14.21 12.9171 13.5959 13.6592 13.5959 14.5714V17.0459C13.5959 17.298 13.4063 17.5022 13.1728 17.5022C12.939 17.5022 12.7497 17.298 12.7497 17.0459V13.892C12.7497 12.98 12.1112 12.2596 11.3373 12.2596H11.2943C10.5397 12.2596 9.90887 12.9429 9.90887 13.8232V17.3746C9.90887 17.6267 9.71927 17.831 9.48577 17.831C9.25202 17.831 9.06267 17.6267 9.06267 17.3746V13.9261C9.06267 13.9149 9.06149 13.9032 9.06149 13.8917C9.06149 13.8637 9.06267 13.8357 9.06267 13.8079V5.74529C9.06267 4.83312 8.42448 4.09131 7.65077 4.09131C6.87682 4.09131 6.23886 4.83286 6.23816 5.74427L6.22966 19.1144C6.22942 19.3072 6.11727 19.4791 5.94893 19.544C5.78082 19.609 5.59288 19.5529 5.47955 19.404L3.99942 17.4607C3.60914 16.9333 3.03304 16.6048 2.40902 16.5536C1.79822 16.5101 1.19804 16.7423 0.75228 17.1948C0.747086 17.1999 0.741655 17.206 0.735989 17.2111L0.446289 17.4724L5.57801 28.1091C6.38808 29.788 7.91993 30.8393 9.57525 30.8393H15.5074C18.0318 30.8393 20.0875 28.4437 20.0901 25.5093C20.0916 23.9554 20.093 22.7899 20.0942 21.851C20.0972 19.3411 20.0982 18.4179 20.0923 15.6532C20.0904 14.7435 19.4607 14.0198 18.6886 14.0198Z" fill="white"/>
<path d="M3.80155 5.90495C4.03529 5.90495 4.22464 5.70072 4.22464 5.44861C4.21969 4.13052 4.86874 2.90996 5.92625 2.24938C6.98376 1.58881 8.28823 1.58881 9.34574 2.24938C10.4032 2.90996 11.0523 4.13052 11.0471 5.44861C11.0471 5.70072 11.2367 5.90495 11.4702 5.90495C11.7039 5.90495 11.8933 5.70072 11.8933 5.44861C11.8992 3.80405 11.0889 2.28147 9.76931 1.4574C8.44972 0.63334 6.82226 0.63334 5.50267 1.4574C4.18309 2.28147 3.37278 3.80405 3.37845 5.44861C3.37845 5.70072 3.56804 5.90495 3.80155 5.90495Z" fill="white"/>
</svg>
