<svg width="26" height="24" viewBox="0 0 26 24" fill="none" xmlns="http://www.w3.org/2000/svg">
<path d="M4.33372 9.9667H9.96706C10.2067 9.9667 10.4004 9.77257 10.4004 9.53337C10.4004 9.29417 10.2067 9.10004 9.96706 9.10004H4.33372C4.09409 9.10004 3.90039 9.29417 3.90039 9.53337C3.90039 9.77257 4.09409 9.9667 4.33372 9.9667Z" fill="white"/>
<path d="M15.6004 11.7H4.33372C4.09409 11.7 3.90039 11.8941 3.90039 12.1333C3.90039 12.3725 4.09409 12.5666 4.33372 12.5666H15.6004C15.84 12.5666 16.0337 12.3725 16.0337 12.1333C16.0337 11.8941 15.84 11.7 15.6004 11.7Z" fill="white"/>
<path d="M15.6004 14.3H4.33372C4.09409 14.3 3.90039 14.4942 3.90039 14.7334C3.90039 14.9726 4.09409 15.1667 4.33372 15.1667H15.6004C15.84 15.1667 16.0337 14.9726 16.0337 14.7334C16.0337 14.4942 15.84 14.3 15.6004 14.3Z" fill="white"/>
<path d="M23.4312 0.0303334L8.63633 0C7.21933 0 6.06667 1.15267 6.06667 2.56967V4.79007L2.56967 4.79743C1.15267 4.79743 0 5.9501 0 7.3671V16.5282C0 17.9452 1.15267 19.0974 2.56967 19.0974H5.2V23.4308C5.2 23.6097 5.31007 23.7705 5.47733 23.8351C5.52803 23.8546 5.5809 23.8641 5.63333 23.8641C5.75293 23.8641 5.87037 23.8143 5.954 23.7224L10.1591 19.0966L17.3637 19.0671C18.7807 19.0671 19.9333 17.9144 19.9333 16.4979V16.4489L22.2127 18.9562C22.2963 19.048 22.4137 19.0979 22.5333 19.0979C22.5858 19.0979 22.6386 19.0883 22.6893 19.0688C22.8566 19.0043 22.9667 18.8435 22.9667 18.6645V14.3312H23.4303C24.8473 14.3312 26 13.1785 26 11.762V2.6C26 1.18343 24.8478 0.0307667 23.4312 0.0303334ZM19.0667 16.4974C19.0667 17.4365 18.3027 18.2 17.3619 18.2L9.96493 18.2303C9.8436 18.2308 9.72747 18.2823 9.646 18.372L6.06667 22.3097V18.6637C6.06667 18.4245 5.87297 18.2303 5.63333 18.2303H2.56967C1.63063 18.2303 0.866667 17.4664 0.866667 16.5278V7.36667C0.866667 6.42763 1.63063 5.66367 2.57053 5.66367L6.5 5.65543C6.50043 5.65543 6.50043 5.65543 6.50087 5.65543L17.3637 5.6329C18.3027 5.6329 19.0667 6.39687 19.0667 7.3359V15.327V16.4974ZM25.1333 11.7611C25.1333 12.7001 24.3694 13.4637 23.4303 13.4637H22.5333C22.2937 13.4637 22.1 13.6578 22.1 13.897V17.5431L19.9333 15.1597V7.33633C19.9333 5.91933 18.7807 4.76667 17.3628 4.76667L6.93333 4.7879V2.56923C6.93333 1.6302 7.6973 0.866233 8.63547 0.866233L23.4299 0.896567C23.4303 0.896567 23.4303 0.896567 23.4308 0.896567C24.3698 0.896567 25.1338 1.66053 25.1338 2.59957V11.7611H25.1333Z" fill="white"/>
</svg>
