<svg width="31" height="30" viewBox="0 0 31 30" fill="none" xmlns="http://www.w3.org/2000/svg">
<path d="M0.00292969 12.1875C0.00292969 13.9325 1.20047 15.3864 2.81543 15.8057V28.125H0.94043C0.424043 28.125 0.00292969 28.5443 0.00292969 29.0625C0.00292969 29.5807 0.424102 30 0.94043 30H29.0654C29.5854 30 30.0029 29.5807 30.0029 29.0625C30.0029 28.5443 29.5854 28.125 29.0654 28.125H27.1904V15.8057C28.8054 15.3864 30.0029 13.9325 30.0029 12.1875V11.25H0.00292969V12.1875ZM18.7529 15.9375C20.8257 15.9375 22.5029 14.2584 22.5029 12.1875C22.5029 13.9325 23.7005 15.3864 25.3154 15.8057V28.125H11.2529V15.9375C13.3257 15.9375 15.0029 14.2584 15.0029 12.1875C15.0029 14.2584 16.6839 15.9375 18.7529 15.9375ZM10.3154 15.8057V28.125H4.69043V15.8057C6.30545 15.3864 7.50293 13.9325 7.50293 12.1875C7.50293 13.9325 8.70047 15.3864 10.3154 15.8057ZM26.2529 2.8125H3.75293L0.00292969 10.3125H30.0029L26.2529 2.8125ZM7.9241 4.89627L6.0491 8.64627C5.96484 8.81109 5.80008 8.90631 5.62793 8.90631C5.55832 8.90631 5.48695 8.89166 5.41916 8.85686C5.18842 8.74148 5.0932 8.45953 5.21039 8.22879L7.08539 4.47879C7.20258 4.24805 7.48272 4.15471 7.71346 4.2682C7.94607 4.38357 8.0376 4.66553 7.9241 4.89627ZM11.6741 4.89627L9.7991 8.64627C9.71484 8.81109 9.55008 8.90631 9.37793 8.90631C9.30832 8.90631 9.23695 8.89166 9.16916 8.85686C8.93842 8.74148 8.8432 8.45953 8.96039 8.22879L10.8354 4.47879C10.9526 4.24805 11.2346 4.15471 11.4635 4.2682C11.6961 4.38357 11.7876 4.66553 11.6741 4.89627ZM15.4717 8.4375C15.4717 8.69754 15.263 8.90625 15.0029 8.90625C14.7448 8.90625 14.5342 8.69748 14.5342 8.4375V4.6875C14.5342 4.42746 14.7448 4.21875 15.0029 4.21875C15.263 4.21875 15.4717 4.42752 15.4717 4.6875V8.4375ZM20.855 8.84766C20.7817 8.88797 20.7049 8.90625 20.6279 8.90625C20.4632 8.90625 20.302 8.81836 20.2178 8.66273L18.167 4.91273C18.0425 4.68568 18.1267 4.40004 18.3538 4.27734C18.5772 4.15283 18.8665 4.2334 18.991 4.46227L21.0418 8.21227C21.1626 8.43932 21.082 8.72496 20.855 8.84766ZM24.5866 8.8568C24.5208 8.8916 24.4512 8.90625 24.3779 8.90625C24.2058 8.90625 24.041 8.81104 23.9604 8.64621L22.0854 4.89621C21.9683 4.66547 22.0635 4.38352 22.2942 4.26814C22.5212 4.15277 22.8069 4.24617 22.924 4.47873L24.799 8.22873C24.9126 8.45947 24.821 8.74148 24.5866 8.8568ZM7.97168 22.6429V20.4822C7.69699 20.3174 7.50293 20.0317 7.50293 19.6876C7.50293 19.1694 7.9241 18.7501 8.44043 18.7501C8.96045 18.7501 9.37793 19.1694 9.37793 19.6876C9.37793 20.0318 9.18568 20.3174 8.90918 20.4822V22.6429C9.18568 22.8077 9.37793 23.0933 9.37793 23.4376C9.37793 23.9558 8.96045 24.3751 8.44043 24.3751C7.92404 24.3751 7.50293 23.9558 7.50293 23.4376C7.50293 23.0933 7.69705 22.8076 7.97168 22.6429ZM3.75293 0.9375C3.75293 0.419297 4.1741 0 4.69043 0H25.3154C25.8354 0 26.2529 0.419297 26.2529 0.9375C26.2529 1.4557 25.8354 1.875 25.3154 1.875H4.69043C4.1741 1.875 3.75293 1.4557 3.75293 0.9375ZM16.4348 20.9564L15.772 20.2935L18.4234 17.6422L19.0862 18.305L16.4348 20.9564ZM16.4348 23.6078L15.772 22.9449L21.0748 17.6422L21.7376 18.305L16.4348 23.6078ZM21.0747 20.2936L21.7375 20.9565L19.0862 23.6078L18.4233 22.945L21.0747 20.2936Z" fill="#444444"/>
</svg>
