<svg width="24" height="24" viewBox="0 0 24 24" fill="none" xmlns="http://www.w3.org/2000/svg">
<path fill-rule="evenodd" clip-rule="evenodd" d="M23.478 15.6516C23.6736 15.6516 23.8526 15.7606 23.9418 15.9344C24.0315 16.1081 24.0164 16.3173 23.9027 16.4765L18.6853 23.7813C18.5877 23.9185 18.4296 23.9999 18.2611 23.9999C18.0926 23.9999 17.9345 23.9185 17.8369 23.7813L12.6185 16.4765C12.5048 16.3173 12.4896 16.1081 12.5794 15.9344C12.6686 15.7606 12.8475 15.6516 13.0432 15.6516H15.6519V1.04342C15.6519 0.467939 16.1199 -6.10352e-05 16.6954 -6.10352e-05H19.8258C20.4013 -6.10352e-05 20.8693 0.467939 20.8693 1.04342V15.6516H23.478ZM14.0575 16.6951L18.2611 22.5803L22.4648 16.6951H20.3481C20.0595 16.6951 19.8263 16.4613 19.8263 16.1733V1.04342H16.6959V16.1733C16.6959 16.4613 16.4627 16.6951 16.1742 16.6951H14.0575ZM5.31469 0.218547C5.51087 -0.0558881 5.96791 -0.0558881 6.16408 0.218547L11.3815 7.52342C11.4947 7.68255 11.5098 7.89176 11.4206 8.0655C11.3314 8.23924 11.1524 8.34829 10.9568 8.34829H8.34809V22.9565C8.34809 23.5319 7.88008 23.9999 7.30461 23.9999H4.17417C3.59869 23.9999 3.13069 23.5319 3.13069 22.9565V8.34829H0.521998C0.326345 8.34829 0.147911 8.23924 0.0581715 8.0655C-0.0315676 7.89176 -0.0159154 7.68255 0.0973019 7.52342L5.31469 0.218547ZM7.30461 7.82655C7.30461 7.53855 7.53835 7.30481 7.82635 7.30481H9.94304L5.73939 1.41959L1.53574 7.30481H3.65243C3.94043 7.30481 4.17417 7.53855 4.17417 7.82655V22.9565H7.30461V7.82655Z" fill="#444444"/>
</svg>
