<?xml version="1.0" encoding="UTF-8"?>
<!DOCTYPE svg PUBLIC "-//W3C//DTD SVG 1.1//EN" "http://www.w3.org/Graphics/SVG/1.1/DTD/svg11.dtd">
<!-- Creator: CorelDRAW 2018 (64-Bit) -->
<svg xmlns="http://www.w3.org/2000/svg" xml:space="preserve" width="250px" height="29px" version="1.1" style="shape-rendering:geometricPrecision; text-rendering:geometricPrecision; image-rendering:optimizeQuality; fill-rule:evenodd; clip-rule:evenodd"
viewBox="0 0 250 29.13"
 xmlns:xlink="http://www.w3.org/1999/xlink">
 <defs>
  <style type="text/css">
   <![CDATA[
    .fil0 {fill:#211D1A}
    .fil3 {fill:#222222}
    .fil1 {fill:#222222;fill-rule:nonzero}
    .fil2 {fill:#FF3300;fill-rule:nonzero}
   ]]>
  </style>
 </defs>
 <g id="Слой_x0020_1">
  <metadata id="CorelCorpID_0Corel-Layer"/>
  <path class="fil0" d="M0 4.63l0 -4.42 20.3 0 0 4.42 -7.52 0 0 12.66 -5.24 0 0 -12.66 -7.54 0zm23.45 12.66l0 -17.08 18.36 0 0 4.13 -13.12 0 0 2.39 12.52 0 0 4.1 -12.52 0 0 2.33 13.12 0 0 4.13 -18.36 0zm21.18 -17.08l7.79 8.36 -7.79 8.72 7.05 0 5.13 -5.72 5.13 5.72 7.06 0 -7.8 -8.72 7.8 -8.36 -7.27 0 -4.92 5.51 -4.91 -5.51 -7.27 0zm26.49 0.05l5.25 0 0 5.96 11.33 0 0 -5.96 5.25 0 0 17.03 -5.25 0 0 -6.65 -11.33 0 0 6.65 -5.25 0 0 -17.03zm49.18 8.52c0,4.15 -0.5,6.63 -1.5,7.44 -1.08,0.87 -4.34,1.31 -9.78,1.31 -3.97,0 -6.58,-0.14 -7.82,-0.43 -1.56,-0.37 -2.55,-1.16 -2.96,-2.39 -0.32,-0.93 -0.48,-2.91 -0.48,-5.93 0,-4.15 0.5,-6.63 1.48,-7.45 1.08,-0.89 4.34,-1.33 9.78,-1.33 5.42,0 8.67,0.44 9.76,1.31 1.01,0.83 1.52,3.32 1.52,7.47zm-17.29 0c0,2.17 0.25,3.44 0.75,3.8 0.5,0.36 2.26,0.54 5.26,0.54 3.02,0 4.78,-0.18 5.28,-0.54 0.5,-0.36 0.75,-1.63 0.75,-3.8 0,-2.2 -0.25,-3.47 -0.75,-3.83 -0.5,-0.36 -2.25,-0.54 -5.26,-0.54 -3.02,0 -4.78,0.18 -5.28,0.54 -0.5,0.36 -0.75,1.63 -0.75,3.83zm31.27 -8.78c4.86,0 7.86,0.41 8.99,1.22 0.99,0.7 1.48,2.56 1.48,5.58l-5.27 0c0,-0.99 -0.27,-1.62 -0.79,-1.89 -0.65,-0.33 -2.12,-0.5 -4.41,-0.5 -2.56,0 -4.07,0.2 -4.51,0.6 -0.44,0.4 -0.67,1.65 -0.67,3.77 0,2.09 0.23,3.34 0.67,3.74 0.44,0.4 1.95,0.6 4.51,0.6 2.32,0 3.77,-0.14 4.35,-0.42 0.58,-0.28 0.87,-0.94 0.87,-1.97l5.25 0c0,3.04 -0.48,4.9 -1.43,5.58 -1.13,0.81 -4.14,1.22 -9.04,1.22 -4.9,0 -7.86,-0.45 -8.89,-1.34 -1.02,-0.89 -1.53,-3.37 -1.53,-7.44 0,-4.05 0.49,-6.51 1.47,-7.37 1.07,-0.92 4.05,-1.38 8.95,-1.38zm21.27 0.26l9.02 0 8.44 17.03 -6.13 0 -1.62 -2.86 -10.4 0 -1.62 2.86 -6.13 0 8.44 -17.03zm4.92 3.84l-0.82 0 -2.83 5.92 6.46 0 -2.81 -5.92zm16.4 8.78c0.48,0 0.84,-0.88 1.09,-2.65 0.25,-1.77 0.37,-5.11 0.37,-10.02l19.68 0 0 12.67 1.31 0 0 6.17 -5.25 0 0 -0.7c0,-0.38 -0.08,-0.65 -0.25,-0.81 -0.17,-0.17 -0.46,-0.25 -0.87,-0.25l-10.61 0c-0.77,0 -1.15,0.35 -1.15,1.06l0 0.7 -5.25 0 0 -6.17 0.93 0zm15.89 0l0 -8.25 -9.18 0c0,2.29 -0.1,4.17 -0.3,5.64 -0.2,1.47 -0.45,2.34 -0.75,2.61l10.23 0zm32.75 -4.1c0,4.15 -0.51,6.63 -1.51,7.44 -1.08,0.87 -4.34,1.31 -9.78,1.31 -3.97,0 -6.58,-0.14 -7.82,-0.43 -1.56,-0.37 -2.54,-1.16 -2.96,-2.39 -0.31,-0.93 -0.47,-2.91 -0.47,-5.93 0,-4.15 0.49,-6.63 1.48,-7.45 1.08,-0.89 4.34,-1.33 9.77,-1.33 5.43,0 8.68,0.44 9.76,1.31 1.02,0.83 1.53,3.32 1.53,7.47zm-17.3 0c0,2.17 0.25,3.44 0.76,3.8 0.5,0.36 2.25,0.54 5.25,0.54 3.02,0 4.79,-0.18 5.29,-0.54 0.5,-0.36 0.75,-1.63 0.75,-3.8 0,-2.2 -0.25,-3.47 -0.75,-3.83 -0.5,-0.36 -2.26,-0.54 -5.26,-0.54 -3.02,0 -4.78,0.18 -5.28,0.54 -0.51,0.36 -0.76,1.63 -0.76,3.83zm25.93 1.71l9.09 0c0.49,0 0.87,0.1 1.13,0.3 0.26,0.2 0.39,0.57 0.39,1.11 0,0.86 -0.51,1.29 -1.52,1.29l-9.09 0 0 -2.7zm-5.25 -10.28l0 17.08 15.86 0c1.88,0 3.22,-0.36 4.03,-1.07 0.81,-0.72 1.22,-1.94 1.22,-3.66 0,-1.99 -0.79,-3.33 -2.36,-4.03 0.49,-0.23 0.9,-0.64 1.24,-1.25 0.33,-0.6 0.5,-1.35 0.5,-2.24 0,-2.02 -0.56,-3.39 -1.67,-4.11 -0.75,-0.48 -1.94,-0.72 -3.58,-0.72l-15.24 0zm5.25 4.15l9.3 0c0.43,0 0.75,0.09 0.98,0.27 0.22,0.17 0.33,0.47 0.33,0.88 0,0.4 -0.11,0.69 -0.34,0.87 -0.23,0.18 -0.56,0.27 -0.97,0.27l-9.3 0 0 -2.29z"/>
  <path class="fil1" d="M59.89 24.42c0.19,0 0.35,0.16 0.35,0.35l0 0.37c0,0.19 -0.16,0.35 -0.35,0.35l-59.89 -0.54 59.89 -0.53z"/>
  <path class="fil2" d="M70.82 22.08l0 1.25 -1.68 0 0 4.41 -1.49 0 0 -4.41 -1.68 0 0 -1.25 4.85 0zm5.89 2.84c0,0.85 -0.25,1.55 -0.75,2.11 -0.5,0.56 -1.17,0.84 -2,0.84 -0.87,0 -1.56,-0.27 -2.07,-0.83 -0.51,-0.55 -0.77,-1.26 -0.77,-2.13 0,-0.86 0.26,-1.56 0.78,-2.13 0.52,-0.56 1.2,-0.84 2.04,-0.84 0.84,0 1.52,0.27 2.02,0.81 0.5,0.54 0.75,1.26 0.75,2.17zm-1.5 -0.05c0,-0.54 -0.12,-0.96 -0.35,-1.27 -0.22,-0.3 -0.54,-0.46 -0.93,-0.46 -0.4,0 -0.72,0.16 -0.95,0.48 -0.23,0.31 -0.35,0.74 -0.35,1.27 0,0.55 0.11,0.98 0.35,1.3 0.23,0.31 0.55,0.46 0.95,0.46 0.41,0 0.72,-0.15 0.94,-0.46 0.22,-0.32 0.34,-0.76 0.34,-1.32zm2.3 2.87l0 -5.66 2.84 0c0.54,0 0.98,0.11 1.32,0.34 0.34,0.23 0.51,0.59 0.51,1.08 0,0.27 -0.06,0.5 -0.18,0.68 -0.12,0.18 -0.31,0.33 -0.56,0.46 0.68,0.23 1.02,0.69 1.02,1.39 0,0.54 -0.18,0.96 -0.56,1.28 -0.15,0.12 -0.32,0.22 -0.52,0.29 -0.2,0.06 -0.37,0.1 -0.52,0.12 -0.15,0.01 -0.35,0.02 -0.6,0.02l-2.75 0zm1.45 -3.44l1.05 0c0.49,0 0.73,-0.18 0.73,-0.55 0,-0.21 -0.07,-0.35 -0.2,-0.43 -0.14,-0.07 -0.33,-0.11 -0.57,-0.11l-1.01 0 0 1.09zm0 2.27l1.16 0c0.27,0 0.48,-0.05 0.62,-0.13 0.15,-0.09 0.23,-0.26 0.23,-0.52 0,-0.25 -0.08,-0.42 -0.24,-0.51 -0.16,-0.09 -0.38,-0.14 -0.65,-0.14l-1.12 0 0 1.3zm7.33 -4.5l2.11 5.67 -1.52 0 -0.37 -1.04 -1.95 0 -0.38 1.04 -1.51 0 2.13 -5.67 1.49 0zm-0.11 3.57l-0.64 -1.98 -0.65 1.98 1.29 0zm2.67 2.1l0 -5.66 2.49 0c0.69,0 1.24,0.15 1.63,0.45 0.4,0.3 0.6,0.79 0.6,1.45 0,0.62 -0.18,1.08 -0.54,1.4 -0.36,0.31 -0.85,0.46 -1.45,0.46l-1.25 0 0 1.9 -1.48 0zm1.48 -3.04l0.83 0c0.16,0 0.28,-0.01 0.37,-0.02 0.1,-0.01 0.2,-0.04 0.3,-0.08 0.11,-0.05 0.18,-0.12 0.23,-0.21 0.05,-0.1 0.08,-0.23 0.08,-0.39 0,-0.26 -0.07,-0.44 -0.22,-0.55 -0.15,-0.11 -0.36,-0.16 -0.64,-0.16l-0.95 0 0 1.41zm8.5 1.13c0,0.66 -0.19,1.14 -0.57,1.45 -0.38,0.3 -0.93,0.46 -1.66,0.46l-2.32 0 0 -5.66 1.46 0 0 1.89 0.94 0c0.68,0 1.2,0.15 1.58,0.46 0.38,0.31 0.57,0.78 0.57,1.4zm-1.48 -0.01c0,-0.15 -0.02,-0.27 -0.07,-0.37 -0.05,-0.1 -0.13,-0.17 -0.23,-0.21 -0.1,-0.05 -0.2,-0.08 -0.3,-0.09 -0.1,-0.02 -0.23,-0.03 -0.38,-0.03l-0.63 0 0 1.42 0.67 0c0.33,0 0.57,-0.06 0.72,-0.16 0.15,-0.11 0.22,-0.29 0.22,-0.56zm2.06 -3.74l1.46 0 0 5.66 -1.46 0 0 -5.66zm10.56 7.05l-1.38 0 0 -1.39 -3.29 0 0 1.39 -1.38 0 0 -2.65 0.58 0c0.23,-0.37 0.42,-0.92 0.56,-1.68 0.14,-0.75 0.21,-1.44 0.21,-2.06l0 -0.66 4.05 0 0 4.4 0.65 0 0 2.65zm-2.1 -2.65l0 -3.19 -1.2 0 0 0.25c0,0.51 -0.06,1.04 -0.17,1.58 -0.11,0.55 -0.26,1 -0.43,1.36l1.8 0zm7.58 -4.4l0 5.66 -1.49 0 0 -4.41 -1.26 0 -0.07 2.2c-0.02,0.77 -0.19,1.35 -0.5,1.74 -0.31,0.38 -0.72,0.58 -1.23,0.58 -0.31,0 -0.57,-0.04 -0.78,-0.11l0 -1.18c0.12,0.05 0.27,0.07 0.44,0.07 0.13,0 0.23,-0.02 0.31,-0.07 0.08,-0.05 0.15,-0.18 0.21,-0.38 0.07,-0.2 0.1,-0.49 0.12,-0.85l0.09 -3.25 4.16 0zm5.89 5.66l-1.47 0 0 -2.09 -0.53 0 -1.49 2.09 -1.88 0 1.76 -2.17c-0.39,-0.1 -0.7,-0.29 -0.94,-0.59 -0.24,-0.3 -0.36,-0.67 -0.36,-1.11 0,-0.57 0.19,-1.02 0.56,-1.33 0.37,-0.31 0.83,-0.46 1.39,-0.46l2.96 0 0 5.66zm-1.47 -3.16l0 -1.36 -1.08 0c-0.61,0 -0.91,0.22 -0.91,0.66 0,0.28 0.08,0.46 0.23,0.56 0.16,0.09 0.38,0.14 0.66,0.14l1.1 0zm10.56 4.55l-1.38 0 0 -1.39 -3.29 0 0 1.39 -1.38 0 0 -2.65 0.59 0c0.22,-0.37 0.41,-0.92 0.55,-1.68 0.15,-0.75 0.22,-1.44 0.22,-2.06l0 -0.66 4.04 0 0 4.4 0.65 0 0 2.65zm-2.09 -2.65l0 -3.19 -1.21 0 0 0.25c0,0.51 -0.06,1.04 -0.17,1.58 -0.11,0.55 -0.25,1 -0.43,1.36l1.81 0zm8.07 -1.56c0,0.85 -0.25,1.55 -0.75,2.11 -0.5,0.56 -1.17,0.84 -2.01,0.84 -0.86,0 -1.55,-0.27 -2.06,-0.83 -0.52,-0.55 -0.77,-1.26 -0.77,-2.13 0,-0.86 0.26,-1.56 0.78,-2.13 0.52,-0.56 1.2,-0.84 2.04,-0.84 0.84,0 1.51,0.27 2.02,0.81 0.5,0.54 0.75,1.26 0.75,2.17zm-1.51 -0.05c0,-0.54 -0.11,-0.96 -0.34,-1.27 -0.23,-0.3 -0.54,-0.46 -0.94,-0.46 -0.4,0 -0.71,0.16 -0.94,0.48 -0.24,0.31 -0.35,0.74 -0.35,1.27 0,0.55 0.11,0.98 0.34,1.3 0.23,0.31 0.55,0.46 0.96,0.46 0.4,0 0.71,-0.15 0.94,-0.46 0.22,-0.32 0.33,-0.76 0.33,-1.32zm2.32 2.87l0 -5.66 2.15 0 1.03 3.92 1.06 -3.92 2.09 0 0 5.66 -1.4 0 0.07 -4.32 -1.26 4.32 -1.14 0 -1.26 -4.31 0.05 4.31 -1.39 0zm10.39 -5.67l2.11 5.67 -1.52 0 -0.37 -1.04 -1.96 0 -0.37 1.04 -1.51 0 2.12 -5.67 1.5 0zm-0.11 3.57l-0.64 -1.98 -0.65 1.98 1.29 0zm10.05 -3.56l0 5.66 -1.44 0 0.1 -3.77 -1.93 3.77 -1.62 0 0 -5.66 1.44 0 -0.06 3.76 1.94 -3.76 1.57 0zm7.29 3.45l1.47 0c0,0.21 -0.02,0.38 -0.06,0.51 -0.03,0.12 -0.1,0.29 -0.2,0.49 -0.44,0.89 -1.22,1.34 -2.33,1.34 -0.87,0 -1.56,-0.28 -2.07,-0.84 -0.51,-0.56 -0.76,-1.27 -0.76,-2.14 0,-0.87 0.26,-1.58 0.79,-2.12 0.53,-0.55 1.22,-0.83 2.06,-0.83 0.66,0 1.24,0.2 1.73,0.58 0.49,0.39 0.76,0.91 0.81,1.55l-1.45 0c-0.13,-0.59 -0.5,-0.89 -1.12,-0.89 -0.4,0 -0.73,0.16 -0.97,0.47 -0.24,0.32 -0.36,0.74 -0.36,1.27 0,0.52 0.12,0.93 0.36,1.23 0.24,0.31 0.57,0.46 0.97,0.46 0.65,0 1.03,-0.36 1.13,-1.08zm5.29 -3.46l2.11 5.67 -1.52 0 -0.37 -1.04 -1.95 0 -0.38 1.04 -1.51 0 2.12 -5.67 1.5 0zm-0.11 3.57l-0.64 -1.98 -0.65 1.98 1.29 0zm8.25 3.49l-1.38 0 0 -1.39 -3.29 0 0 1.39 -1.38 0 0 -2.65 0.59 0c0.22,-0.37 0.41,-0.92 0.55,-1.68 0.15,-0.75 0.22,-1.44 0.22,-2.06l0 -0.66 4.04 0 0 4.4 0.65 0 0 2.65zm-2.09 -2.65l0 -3.19 -1.21 0 0 0.25c0,0.51 -0.06,1.04 -0.17,1.58 -0.11,0.55 -0.25,1 -0.43,1.36l1.81 0zm5.73 -4.41l2.11 5.67 -1.53 0 -0.36 -1.04 -1.96 0 -0.37 1.04 -1.51 0 2.12 -5.67 1.5 0zm-0.12 3.57l-0.63 -1.98 -0.65 1.98 1.28 0z"/>
  <path class="fil1" d="M190.11 24.42c-0.19,0 -0.35,0.16 -0.35,0.35l0 0.37c0,0.19 0.16,0.35 0.35,0.35l59.89 -0.54 -59.89 -0.53z"/>
  <path class="fil3" d="M0 4.63l0 -4.42 20.3 0 0 4.42 -7.52 0 0 12.66 -5.24 0 0 -12.66 -7.54 0zm23.45 12.66l0 -17.08 18.36 0 0 4.13 -13.12 0 0 2.39 12.52 0 0 4.1 -12.52 0 0 2.33 13.12 0 0 4.13 -18.36 0zm21.18 -17.08l7.79 8.36 -7.79 8.72 7.05 0 5.13 -5.72 5.13 5.72 7.06 0 -7.8 -8.72 7.8 -8.36 -7.27 0 -4.92 5.51 -4.91 -5.51 -7.27 0zm26.49 0.05l5.25 0 0 5.96 11.33 0 0 -5.96 5.25 0 0 17.03 -5.25 0 0 -6.65 -11.33 0 0 6.65 -5.25 0 0 -17.03zm49.18 8.52c0,4.15 -0.5,6.63 -1.5,7.44 -1.08,0.87 -4.34,1.31 -9.78,1.31 -3.97,0 -6.58,-0.14 -7.82,-0.43 -1.56,-0.37 -2.55,-1.16 -2.96,-2.39 -0.32,-0.93 -0.48,-2.91 -0.48,-5.93 0,-4.15 0.5,-6.63 1.48,-7.45 1.08,-0.89 4.34,-1.33 9.78,-1.33 5.42,0 8.67,0.44 9.76,1.31 1.01,0.83 1.52,3.32 1.52,7.47zm-17.29 0c0,2.17 0.25,3.44 0.75,3.8 0.5,0.36 2.26,0.54 5.26,0.54 3.02,0 4.78,-0.18 5.28,-0.54 0.5,-0.36 0.75,-1.63 0.75,-3.8 0,-2.2 -0.25,-3.47 -0.75,-3.83 -0.5,-0.36 -2.25,-0.54 -5.26,-0.54 -3.02,0 -4.78,0.18 -5.28,0.54 -0.5,0.36 -0.75,1.63 -0.75,3.83zm31.27 -8.78c4.86,0 7.86,0.41 8.99,1.22 0.99,0.7 1.48,2.56 1.48,5.58l-5.27 0c0,-0.99 -0.27,-1.62 -0.79,-1.89 -0.65,-0.33 -2.12,-0.5 -4.41,-0.5 -2.56,0 -4.07,0.2 -4.51,0.6 -0.44,0.4 -0.67,1.65 -0.67,3.77 0,2.09 0.23,3.34 0.67,3.74 0.44,0.4 1.95,0.6 4.51,0.6 2.32,0 3.77,-0.14 4.35,-0.42 0.58,-0.28 0.87,-0.94 0.87,-1.97l5.25 0c0,3.04 -0.48,4.9 -1.43,5.58 -1.13,0.81 -4.14,1.22 -9.04,1.22 -4.9,0 -7.86,-0.45 -8.89,-1.34 -1.02,-0.89 -1.53,-3.37 -1.53,-7.44 0,-4.05 0.49,-6.51 1.47,-7.37 1.07,-0.92 4.05,-1.38 8.95,-1.38zm21.27 0.26l9.02 0 8.44 17.03 -6.13 0 -1.62 -2.86 -10.4 0 -1.62 2.86 -6.13 0 8.44 -17.03zm4.92 3.84l-0.82 0 -2.83 5.92 6.46 0 -2.81 -5.92zm16.4 8.78c0.48,0 0.84,-0.88 1.09,-2.65 0.25,-1.77 0.37,-5.11 0.37,-10.02l19.68 0 0 12.67 1.31 0 0 6.17 -5.25 0 0 -0.7c0,-0.38 -0.08,-0.65 -0.25,-0.81 -0.17,-0.17 -0.46,-0.25 -0.87,-0.25l-10.61 0c-0.77,0 -1.15,0.35 -1.15,1.06l0 0.7 -5.25 0 0 -6.17 0.93 0zm15.89 0l0 -8.25 -9.18 0c0,2.29 -0.1,4.17 -0.3,5.64 -0.2,1.47 -0.45,2.34 -0.75,2.61l10.23 0zm32.75 -4.1c0,4.15 -0.51,6.63 -1.51,7.44 -1.08,0.87 -4.34,1.31 -9.78,1.31 -3.97,0 -6.58,-0.14 -7.82,-0.43 -1.56,-0.37 -2.54,-1.16 -2.96,-2.39 -0.31,-0.93 -0.47,-2.91 -0.47,-5.93 0,-4.15 0.49,-6.63 1.48,-7.45 1.08,-0.89 4.34,-1.33 9.77,-1.33 5.43,0 8.68,0.44 9.76,1.31 1.02,0.83 1.53,3.32 1.53,7.47zm-17.3 0c0,2.17 0.25,3.44 0.76,3.8 0.5,0.36 2.25,0.54 5.25,0.54 3.02,0 4.79,-0.18 5.29,-0.54 0.5,-0.36 0.75,-1.63 0.75,-3.8 0,-2.2 -0.25,-3.47 -0.75,-3.83 -0.5,-0.36 -2.26,-0.54 -5.26,-0.54 -3.02,0 -4.78,0.18 -5.28,0.54 -0.51,0.36 -0.76,1.63 -0.76,3.83zm25.93 1.71l9.09 0c0.49,0 0.87,0.1 1.13,0.3 0.26,0.2 0.39,0.57 0.39,1.11 0,0.86 -0.51,1.29 -1.52,1.29l-9.09 0 0 -2.7zm-5.25 -10.28l0 17.08 15.86 0c1.88,0 3.22,-0.36 4.03,-1.07 0.81,-0.72 1.22,-1.94 1.22,-3.66 0,-1.99 -0.79,-3.33 -2.36,-4.03 0.49,-0.23 0.9,-0.64 1.24,-1.25 0.33,-0.6 0.5,-1.35 0.5,-2.24 0,-2.02 -0.56,-3.39 -1.67,-4.11 -0.75,-0.48 -1.94,-0.72 -3.58,-0.72l-15.24 0zm5.25 4.15l9.3 0c0.43,0 0.75,0.09 0.98,0.27 0.22,0.17 0.33,0.47 0.33,0.88 0,0.4 -0.11,0.69 -0.34,0.87 -0.23,0.18 -0.56,0.27 -0.97,0.27l-9.3 0 0 -2.29z"/>
 </g>
</svg>
