<svg width="21" height="20" viewBox="0 0 21 20" fill="none" xmlns="http://www.w3.org/2000/svg">
<path d="M20.6328 10C20.6328 4.48618 16.1466 0 10.6328 0C5.11899 0 0.632812 4.48618 0.632812 10C0.632812 12.9124 1.88518 15.5375 3.87863 17.3665L3.86918 17.3749L4.19354 17.6484C4.21463 17.6662 4.23754 17.6807 4.25863 17.6982C4.43099 17.8411 4.60954 17.9767 4.79136 18.108C4.85027 18.1505 4.90918 18.1931 4.96918 18.2345C5.16336 18.3684 5.36263 18.4953 5.56627 18.6156C5.61063 18.6418 5.65536 18.6673 5.70009 18.6927C5.92299 18.8196 6.15063 18.9393 6.38372 19.0491C6.40081 19.0571 6.41827 19.0644 6.43536 19.0724C7.19499 19.4255 8.0059 19.6847 8.8539 19.8378C8.87609 19.8418 8.89827 19.8458 8.92081 19.8498C9.18409 19.8953 9.45027 19.9316 9.71972 19.956C9.75245 19.9589 9.78518 19.9607 9.81827 19.9636C10.0866 19.9858 10.3579 20 10.6328 20C10.9052 20 11.1739 19.9858 11.4408 19.9644C11.4746 19.9615 11.5084 19.9596 11.5423 19.9567C11.8095 19.9324 12.0735 19.8971 12.3343 19.8524C12.3568 19.8484 12.3797 19.8444 12.4023 19.84C13.2375 19.6902 14.0368 19.4367 14.7866 19.0927C14.8143 19.08 14.8423 19.068 14.8699 19.0549C15.0943 18.9495 15.3135 18.8356 15.5285 18.7145C15.5819 18.6844 15.635 18.6538 15.6881 18.6225C15.8837 18.5073 16.0761 18.3869 16.263 18.2589C16.3303 18.2131 16.3961 18.1647 16.4626 18.1167C16.6223 18.0018 16.779 17.8833 16.9314 17.7593C16.9652 17.732 17.0015 17.7084 17.0346 17.6804L17.3674 17.4025L17.3575 17.3942C19.3685 15.5644 20.6328 12.9273 20.6328 10ZM1.36009 10C1.36009 4.88691 5.51972 0.727273 10.6328 0.727273C15.7459 0.727273 19.9055 4.88691 19.9055 10C19.9055 12.7553 18.6964 15.2324 16.7823 16.932C16.6754 16.8582 16.5677 16.792 16.4575 16.7367L13.3786 15.1975C13.1023 15.0593 12.9306 14.7815 12.9306 14.4727V13.3975C13.0019 13.3095 13.0772 13.2098 13.155 13.1004C13.5535 12.5375 13.8732 11.9113 14.1063 11.2375C14.567 11.0185 14.8644 10.5596 14.8644 10.0415V8.75236C14.8644 8.43709 14.7488 8.13127 14.5419 7.89091V6.19382C14.5608 6.00473 14.6277 4.94 13.8572 4.06145C13.187 3.29636 12.1023 2.90909 10.6328 2.90909C9.16336 2.90909 8.07863 3.29636 7.40845 4.06109C6.6379 4.93964 6.70481 6.00509 6.72372 6.19345V7.89055C6.51718 8.13091 6.40118 8.43673 6.40118 8.752V10.0411C6.40118 10.4415 6.58081 10.8149 6.88845 11.0669C7.18299 12.2207 7.78918 13.0942 8.01318 13.3902V14.4425C8.01318 14.7393 7.85136 15.012 7.59063 15.1545L4.71536 16.7229C4.62372 16.7727 4.53281 16.8309 4.4419 16.896C2.55136 15.1971 1.36009 12.7353 1.36009 10Z" fill="#444444"/>
</svg>
