<svg width="16" height="31" viewBox="0 0 16 31" fill="none" xmlns="http://www.w3.org/2000/svg">
<path d="M14.5286 0.0424805H10.2662C5.94779 0.0424805 1.59047 3.23129 1.59047 10.3554C1.59047 14.0454 3.15451 16.9194 6.02138 18.5539L0.774006 28.0514C0.525287 28.5006 0.518818 29.0096 0.756662 29.4131C0.988881 29.8072 1.41338 30.0425 1.89216 30.0425H4.54632C5.14932 30.0425 5.61957 29.751 5.84494 29.2404L10.7648 19.6175H11.1239V28.8431C11.1239 29.4933 11.6725 30.0425 12.3218 30.0425H14.6408C15.3689 30.0425 15.8774 29.534 15.8774 28.8059V1.35517C15.8775 0.582293 15.3229 0.0424805 14.5286 0.0424805ZM11.124 15.3429H10.4906C8.03466 15.3429 6.56841 13.3381 6.56841 9.98017C6.56841 5.80482 8.42063 4.3172 10.1541 4.3172H11.124V15.3429Z" fill="white"/>
</svg>
