<svg width="20" height="20" viewBox="0 0 20 20" fill="none" xmlns="http://www.w3.org/2000/svg">
<path fill-rule="evenodd" clip-rule="evenodd" d="M5.9975 15.9975C4.90583 15.9975 4.0025 16.9008 4.0025 18.005C4.0025 19.0967 4.90583 20 5.9975 20C7.10167 20 8.005 19.0967 8.005 18.005C8.005 16.9008 7.10167 15.9975 5.9975 15.9975ZM10.3387 3.52583H12.0829V5.77167H14.3287V7.51583H12.0829V9.76167H10.3387V7.51583H8.08042V5.77167H10.3387V3.52583ZM0 0V1.995H1.995L5.59625 9.59875L4.20333 11.995C4.10292 12.2958 4.0025 12.6975 4.0025 12.9987C4.0025 14.1029 4.90583 14.9937 5.9975 14.9937H18.005V12.9987H6.39917C6.29875 12.9987 6.19833 12.8983 6.19833 12.7979V12.6975L7.10167 11.0037H14.5042C15.2946 11.0037 15.8971 10.6021 16.1979 10L19.7992 3.50083C20 3.3 20 3.19958 20 2.99875C20 2.39667 19.5983 1.995 18.9963 1.995H4.20333L3.3 0H0ZM15.9975 15.9975C14.8933 15.9975 14.0025 16.9008 14.0025 18.005C14.0025 19.0967 14.8933 20 15.9975 20C17.1017 20 18.005 19.0967 18.005 18.005C18.005 16.9008 17.1017 15.9975 15.9975 15.9975Z" fill="white"/>
</svg>
