<svg width="31" height="31" viewBox="0 0 31 31" fill="none" xmlns="http://www.w3.org/2000/svg">
<path d="M9.771 24.5C8.121 24.5 6.771 25.85 6.771 27.5C6.771 29.15 8.121 30.5 9.771 30.5C11.421 30.5 12.771 29.15 12.771 27.5C12.771 25.85 11.421 24.5 9.771 24.5ZM0.770996 0.5V3.5H3.771L9.171 14.9L7.071 18.5C6.921 18.95 6.771 19.55 6.771 20C6.771 21.65 8.121 23 9.771 23H27.771V20H10.371C10.221 20 10.071 19.85 10.071 19.7V19.5499L11.421 16.9999H22.521C23.721 16.9999 24.621 16.3999 25.071 15.4999L30.471 5.75C30.771 5.45 30.771 5.3 30.771 5C30.771 4.1 30.171 3.5 29.271 3.5H7.071L5.721 0.5H0.770996ZM24.771 24.5C23.121 24.5 21.771 25.85 21.771 27.5C21.771 29.15 23.121 30.5 24.771 30.5C26.421 30.5 27.771 29.15 27.771 27.5C27.771 25.85 26.421 24.5 24.771 24.5Z" fill="#444444"/>
</svg>
