<svg width="88" height="86" viewBox="0 0 88 86" fill="none" xmlns="http://www.w3.org/2000/svg">
<path fill-rule="evenodd" clip-rule="evenodd" d="M82.2781 0.411743H5.94795C2.87719 0.411743 0.245117 2.95292 0.245117 5.91763V79.6117C0.245117 82.5764 2.87719 85.1176 5.94795 85.1176H82.2781C85.3489 85.1176 87.981 82.5764 87.981 79.6117V5.91763C87.981 2.95292 85.3489 0.411743 82.2781 0.411743ZM15.1602 41.0706H21.3017C22.6178 41.0706 23.9338 42.7647 23.0564 44.4588L21.7404 48.2706C20.863 50.3882 19.547 50.8117 18.6696 50.8117H5.94795L7.26399 47H16.9149C17.3536 47 17.7923 47 17.7923 46.5764L18.231 45.3059L17.7923 44.8823H11.6508C9.89606 44.8823 9.0187 43.6117 9.45738 41.9176L11.2121 37.6823C11.6508 36.4117 12.9668 35.1412 14.2829 35.1412H26.1272L24.8112 38.9529H16.0376C15.5989 38.9529 15.1602 39.3764 15.1602 39.3764L14.7215 40.647C14.2829 41.0706 14.7215 41.0706 15.1602 41.0706ZM31.3913 50.8117H26.5659L30.9527 38.9529H26.1272L27.4432 35.1412H42.3583L41.0423 38.9529H35.7781L31.3913 50.8117ZM37.9715 50.8117L43.6744 35.1412H48.4998L42.797 50.8117H37.9715ZM56.8347 50.8117L59.0281 44.4588H53.3253L51.1319 50.8117H46.3064L52.0093 35.1412H56.8347L54.6413 40.647H60.7829L62.5376 35.1412H67.363L61.6602 50.8117H56.8347ZM80.0847 50.8117H65.1696L70.8725 35.1412H75.698L71.3112 47H81.8395L80.0847 50.8117Z" fill="#F46717"/>
</svg>
