<svg width="90" height="86" viewBox="0 0 90 86" fill="none" xmlns="http://www.w3.org/2000/svg">
<path fill-rule="evenodd" clip-rule="evenodd" d="M79.449 24.7222C80.0911 24.5006 80.8101 24.6505 81.2931 25.1058C81.7761 25.5613 81.9348 26.2397 81.6999 26.8446L77.3123 38.141C77.2247 38.3667 77.0858 38.5718 76.9055 38.7419L63.4503 51.4289C62.7648 52.075 61.654 52.075 60.9687 51.4289C60.2836 50.7828 60.2836 49.7353 60.9687 49.0893L73.2185 37.5389L68.1067 32.719L36.0489 62.9462L41.1608 67.766L52.3712 57.1957C53.0569 56.5496 54.1676 56.5496 54.8527 57.1957C55.538 57.8418 55.538 58.8893 54.8527 59.5354L40.0559 73.4873C38.6672 74.7966 36.8426 75.4515 35.0186 75.4515C33.1941 75.4516 31.3702 74.7968 29.9813 73.4871C27.2037 70.8682 27.2037 66.6069 29.9813 63.9878L31.5532 62.5057C31.4889 62.3334 31.452 62.1492 31.452 61.9561V42.7649C31.452 41.8512 32.2377 41.1106 33.2065 41.1106H47.2434C48.2123 41.1106 48.998 41.8512 48.998 42.7649C48.998 43.6786 48.2123 44.4194 47.2434 44.4194H34.9612V59.2925L60.9808 34.7585L40.225 15.1877L14.4742 39.4679C14.1451 39.7781 13.699 39.9524 13.2336 39.9524H7.06299V81.809H33.2041C34.173 81.809 34.9587 82.5497 34.9587 83.4634C34.9587 84.3771 34.173 85.1178 33.2041 85.1178H5.30847C4.3396 85.1178 3.55383 84.3771 3.55383 83.4634V39.9524H1.79931C1.08947 39.9524 0.449826 39.5494 0.17822 38.931C-0.0932645 38.3129 0.0568819 37.6012 0.558591 37.1281L38.9844 0.89653C39.6699 0.250473 40.7804 0.250473 41.4658 0.89653L61.4683 19.7568C62.1534 20.403 62.1534 21.4505 61.4683 22.0967C60.7827 22.7427 59.6721 22.7427 58.9867 22.0967L40.225 4.40617L6.0354 36.6437H12.5068L38.9844 11.6781C39.3134 11.3679 39.7598 11.1936 40.225 11.1936C40.6903 11.1936 41.1365 11.3679 41.4657 11.6781L63.4624 32.419L66.8309 29.2426C67.0116 29.0726 67.229 28.9417 67.4684 28.859L79.449 24.7222ZM37.5745 71.1474L38.6794 70.1056L33.5679 65.2857L32.4629 66.3277C31.7799 66.9714 31.4043 67.8274 31.4043 68.7377C31.4043 69.648 31.7801 70.5038 32.4629 71.1474C33.1455 71.7912 34.0531 72.1457 35.0188 72.1457C35.9844 72.1457 36.8917 71.7912 37.5745 71.1474ZM71.3074 31.057L74.9812 34.521L77.1042 29.0554L71.3074 31.057ZM86.8846 35.4734C87.3863 35.0007 88.1411 34.8586 88.7969 35.1149C89.4525 35.371 89.8799 35.9744 89.8799 36.6435V83.4632C89.8799 84.3769 89.0942 85.1177 88.1254 85.1177H38.4702C37.7605 85.1177 37.1207 84.7146 36.849 84.0964C36.5776 83.4783 36.7279 82.7666 37.2295 82.2933L48.1604 71.9866L48.1614 71.9858L48.1622 71.9849L69.004 52.3332L69.0048 52.3324L69.0056 52.3315L86.8846 35.4734ZM42.7063 81.8088H86.3707V40.6376L79.6743 46.9505L81.3492 48.5299C82.0344 49.1759 82.0344 50.2235 81.3492 50.8696C81.0066 51.1924 80.5576 51.3542 80.1085 51.3542C79.6595 51.3542 79.2106 51.1926 78.8679 50.8696L77.1931 49.2905L72.7266 53.5018L74.4016 55.0812C75.0867 55.7274 75.0867 56.7749 74.4016 57.4209C74.0588 57.7441 73.6099 57.9056 73.1609 57.9056C72.7118 57.9056 72.2628 57.7441 71.9202 57.4209L70.2452 55.8417L65.7789 60.053L67.4539 61.6322C68.139 62.2785 68.139 63.3261 67.4539 63.9722C67.1112 64.2952 66.6622 64.4567 66.2133 64.4567C65.7642 64.4567 65.3152 64.2952 64.9725 63.9722L63.2976 62.3928L58.8311 66.6043L60.506 68.1836C61.1912 68.8296 61.1912 69.8772 60.506 70.5233C60.1633 70.8462 59.7144 71.0078 59.2654 71.0078C58.8164 71.0078 58.3673 70.8464 58.0247 70.5233L56.3499 68.9441L51.8833 73.1556L53.5582 74.7348C54.2435 75.3811 54.2435 76.4287 53.5582 77.0747C53.2156 77.3978 52.7666 77.5593 52.3176 77.5593C51.8686 77.5593 51.4196 77.3978 51.0769 77.0747L49.402 75.4954L42.7063 81.8088ZM12.3271 47.0663H26.3639C27.333 47.0663 28.1185 47.807 28.1185 48.7207V61.956C28.1185 62.8697 27.3328 63.6103 26.3639 63.6103H12.3271C11.3582 63.6103 10.5725 62.8697 10.5725 61.956V48.7207C10.5725 47.807 11.3582 47.0663 12.3271 47.0663ZM14.0817 60.3016H24.6094V50.3752H14.0817V60.3016ZM80.024 55.0856C79.3684 54.8293 78.6135 54.971 78.1119 55.444L58.4098 74.0213C57.9081 74.4945 57.7577 75.2061 58.0293 75.8244C58.3009 76.4426 58.9407 76.8456 59.6504 76.8456H79.3527C80.3215 76.8456 81.1072 76.1049 81.1072 75.1912V56.614C81.1072 55.9449 80.6798 55.3417 80.024 55.0856ZM77.598 73.5368H63.8865L77.598 60.6081V73.5368ZM59.1196 53.1709C58.7935 52.8633 58.3408 52.6863 57.8794 52.6863C57.4178 52.6863 56.9652 52.8633 56.6388 53.1709C56.3125 53.4803 56.1248 53.9056 56.1248 54.3407C56.1248 54.7775 56.3123 55.2026 56.6388 55.5119C56.9652 55.8197 57.4161 55.9951 57.8794 55.9951C58.3408 55.9951 58.7935 55.8197 59.1196 55.5119C59.446 55.2026 59.6339 54.7758 59.6339 54.3407C59.6339 53.9056 59.4462 53.4803 59.1196 53.1709ZM33.5579 31.6803C33.5579 28.2137 36.5488 25.3935 40.2253 25.3935C43.9017 25.3935 46.8928 28.2137 46.8928 31.6803C46.8928 35.1467 43.9017 37.967 40.2253 37.967C36.5488 37.967 33.5579 35.1467 33.5579 31.6803ZM37.067 31.6803C37.067 33.3224 38.4839 34.6581 40.2253 34.6581C41.9668 34.6581 43.3835 33.3223 43.3835 31.6803C43.3835 30.0382 41.9668 28.7023 40.2253 28.7023C38.4839 28.7023 37.067 30.0382 37.067 31.6803Z" fill="#444444"/>
</svg>
