<svg width="20" height="20" viewBox="0 0 20 20" fill="none" xmlns="http://www.w3.org/2000/svg">
<path d="M12.8767 10.3196C12.6941 10.137 12.6941 9.86301 12.8767 9.68037L19.726 2.83105C19.9087 2.6484 20 2.37443 20 2.19178C20 2.00913 19.9087 1.73516 19.726 1.55251L18.4475 0.273973C18.2648 0.0913242 17.9909 0 17.8082 0C17.5342 0 17.3516 0.0913242 17.1689 0.273973L10.3196 7.12329C10.137 7.30594 9.86301 7.30594 9.68037 7.12329L2.83105 0.273973C2.6484 0.0913242 2.37443 0 2.19178 0C2.00913 0 1.73516 0.0913242 1.55251 0.273973L0.273973 1.55251C0.0913242 1.73516 0 2.00913 0 2.19178C0 2.37443 0.0913242 2.6484 0.273973 2.83105L7.12329 9.68037C7.30594 9.86301 7.30594 10.137 7.12329 10.3196L0.273973 17.1689C0.0913242 17.3516 0 17.6256 0 17.8082C0 17.9909 0.0913242 18.2648 0.273973 18.4475L1.55251 19.726C1.73516 19.9087 2.00913 20 2.19178 20C2.37443 20 2.6484 19.9087 2.83105 19.726L9.68037 12.8767C9.86301 12.6941 10.137 12.6941 10.3196 12.8767L17.1689 19.726C17.3516 19.9087 17.6256 20 17.8082 20C17.9909 20 18.2648 19.9087 18.4475 19.726L19.726 18.4475C19.9087 18.2648 20 17.9909 20 17.8082C20 17.6256 19.9087 17.3516 19.726 17.1689L12.8767 10.3196Z" fill="black"/>
</svg>
