<svg width="31" height="31" viewBox="0 0 31 31" fill="none" xmlns="http://www.w3.org/2000/svg">
<path d="M30.6181 18.8138L25.5637 10.3891L30.0998 9.12912C30.5675 8.99922 30.8413 8.51475 30.7114 8.04705C30.5815 7.57935 30.0969 7.30548 29.6293 7.43544L23.9907 9.00168C23.9903 9.00179 23.9899 9.00191 23.9895 9.00203L16.6224 11.0484V1.37892C16.6224 0.893522 16.2288 0.5 15.7434 0.5C15.258 0.5 14.8645 0.893522 14.8645 1.37892V11.5367L7.04547 13.7085C7.04506 13.7086 7.04465 13.7088 7.04424 13.7088L1.3871 15.2802C0.919335 15.4101 0.645581 15.8946 0.775427 16.3623C0.883534 16.7513 1.2368 17.0062 1.62177 17.0062C1.69964 17.0062 1.77886 16.9957 1.85749 16.9739L5.38407 15.9943L0.868768 23.5207C0.786853 23.6573 0.743492 23.8136 0.743492 23.9729C0.743492 27.572 3.67164 30.5 7.27076 30.5C10.87 30.5 13.7981 27.572 13.7981 23.9729C13.7981 23.8136 13.7548 23.6573 13.6728 23.5207L8.61832 15.096L22.3293 11.2875L17.814 18.8138C17.7321 18.9504 17.6887 19.1067 17.6887 19.266C17.6887 22.8651 20.6169 25.7931 24.216 25.7931C25.9595 25.7931 27.5986 25.1142 28.8315 23.8813C30.0644 22.6484 30.7434 21.0094 30.7433 19.2659C30.7434 19.1067 30.7001 18.9503 30.6181 18.8138ZM7.27076 28.7422C4.94121 28.7422 2.99728 27.063 2.58342 24.8518H11.9581C11.5443 27.063 9.60037 28.7422 7.27076 28.7422ZM11.367 23.0939H3.17464L7.27076 16.2665L11.367 23.0939ZM24.216 11.5596L28.3123 18.387H20.1198L24.216 11.5596ZM24.2161 24.0354C21.8866 24.0354 19.9426 22.3562 19.5286 20.1449H28.9035C28.4896 22.3562 26.5457 24.0354 24.2161 24.0354Z" fill="#444444"/>
</svg>
