<svg width="45" height="30" viewBox="0 0 45 30" fill="none" xmlns="http://www.w3.org/2000/svg">
<path d="M36.341 21.9355C35.2657 21.9355 34.2442 22.3566 33.4736 23.1183C32.703 23.8889 32.2729 24.8925 32.2729 25.9677C32.2729 27.043 32.694 28.0466 33.4736 28.8172C34.2532 29.5789 35.2657 30 36.341 30C38.5453 30 40.3374 28.19 40.3374 25.9677C40.3374 23.7455 38.5453 21.9355 36.341 21.9355ZM36.341 28.2079C35.1044 28.2079 34.065 27.1864 34.065 25.9677C34.065 24.7491 35.1044 23.7276 36.341 23.7276C37.5596 23.7276 38.5453 24.7312 38.5453 25.9677C38.5453 27.2043 37.5596 28.2079 36.341 28.2079ZM37.3804 8.50358C37.2191 8.35125 37.004 8.27061 36.78 8.27061H32.1833C31.6904 8.27061 31.2872 8.67383 31.2872 9.16667V16.5143C31.2872 17.0072 31.6904 17.4104 32.1833 17.4104H39.4772C39.97 17.4104 40.3732 17.0072 40.3732 16.5143V11.595C40.3732 11.3441 40.2657 11.1022 40.0775 10.9319L37.3804 8.50358ZM38.5811 15.6183H33.0793V10.0538H36.4306L38.5811 11.9892V15.6183ZM14.4592 21.9355C13.384 21.9355 12.3625 22.3566 11.5919 23.1183C10.8212 23.8889 10.3911 24.8925 10.3911 25.9677C10.3911 27.043 10.8123 28.0466 11.5919 28.8172C12.3714 29.5789 13.384 30 14.4592 30C16.6635 30 18.4557 28.19 18.4557 25.9677C18.4557 23.7455 16.6635 21.9355 14.4592 21.9355ZM14.4592 28.2079C13.2227 28.2079 12.1833 27.1864 12.1833 25.9677C12.1833 24.7491 13.2227 23.7276 14.4592 23.7276C15.6779 23.7276 16.6635 24.7312 16.6635 25.9677C16.6635 27.2043 15.6779 28.2079 14.4592 28.2079ZM8.48254 23.0376H6.68146V20.6541C6.68146 20.1613 6.27824 19.7581 5.78541 19.7581C5.29257 19.7581 4.88935 20.1613 4.88935 20.6541V23.9337C4.88935 24.4265 5.29257 24.8297 5.78541 24.8297H8.48254C8.97537 24.8297 9.3786 24.4265 9.3786 23.9337C9.3786 23.4409 8.97537 23.0376 8.48254 23.0376ZM13.0256 18.1541C13.0256 17.6613 12.6223 17.2581 12.1295 17.2581H1.26032C0.767484 17.2581 0.364258 17.6613 0.364258 18.1541C0.364258 18.647 0.767484 19.0502 1.26032 19.0502H12.1295C12.6223 19.0502 13.0256 18.6559 13.0256 18.1541ZM3.07931 14.9194L13.9485 14.9821C14.4413 14.9821 14.8445 14.5878 14.8535 14.095C14.8625 13.5932 14.4592 13.19 13.9664 13.19L3.09723 13.1272C3.08827 13.1272 3.08827 13.1272 3.08827 13.1272C2.59544 13.1272 2.19222 13.5215 2.19222 14.0143C2.18325 14.5161 2.58648 14.9194 3.07931 14.9194ZM4.90727 10.8513H15.7764C16.2693 10.8513 16.6725 10.448 16.6725 9.9552C16.6725 9.46236 16.2693 9.05914 15.7764 9.05914H4.90727C4.41444 9.05914 4.01121 9.46236 4.01121 9.9552C4.01121 10.448 4.41444 10.8513 4.90727 10.8513ZM44.0381 9.64158L37.6223 4.32796C37.461 4.19355 37.2639 4.12186 37.0489 4.12186H29.504V0.896057C29.504 0.403226 29.1008 0 28.608 0H5.78541C5.29257 0 4.88935 0.403226 4.88935 0.896057V7.4552C4.88935 7.94803 5.29257 8.35126 5.78541 8.35126C6.27824 8.35126 6.68146 7.94803 6.68146 7.4552V1.79211H27.7209V23.0376H20.3732C19.8804 23.0376 19.4772 23.4409 19.4772 23.9337C19.4772 24.4265 19.8804 24.8297 20.3732 24.8297H31.3141C31.8069 24.8297 32.2101 24.4265 32.2101 23.9337C32.2101 23.4409 31.8069 23.0376 31.3141 23.0376H29.513V5.91398H36.7352L42.5775 10.7527L42.5148 23.0197H41.5829C41.0901 23.0197 40.6868 23.4229 40.6868 23.9158C40.6868 24.4086 41.0901 24.8118 41.5829 24.8118H43.4019C43.8947 24.8118 44.298 24.4176 44.298 23.9247L44.3696 10.3405C44.3607 10.0717 44.2442 9.81183 44.0381 9.64158Z" fill="#444444"/>
</svg>
