<svg width="19" height="24" viewBox="0 0 19 24" fill="none" xmlns="http://www.w3.org/2000/svg">
<path d="M14.4 8.79999H4.4C4.1792 8.79999 4 8.97879 4 9.19999C4 9.42119 4.1792 9.59999 4.4 9.59999H14.4C14.6208 9.59999 14.8 9.42119 14.8 9.19999C14.8 8.97879 14.6208 8.79999 14.4 8.79999Z" fill="white"/>
<path d="M4.4 6.39998H8.4C8.6208 6.39998 8.8 6.22118 8.8 5.99998C8.8 5.77878 8.6208 5.59998 8.4 5.59998H4.4C4.1792 5.59998 4 5.77878 4 5.99998C4 6.22118 4.1792 6.39998 4.4 6.39998Z" fill="white"/>
<path d="M14.4 12H4.4C4.1792 12 4 12.1788 4 12.4C4 12.6212 4.1792 12.8 4.4 12.8H14.4C14.6208 12.8 14.8 12.6212 14.8 12.4C14.8 12.1788 14.6208 12 14.4 12Z" fill="white"/>
<path d="M14.4 15.2H4.4C4.1792 15.2 4 15.3788 4 15.6C4 15.8212 4.1792 16 4.4 16H14.4C14.6208 16 14.8 15.8212 14.8 15.6C14.8 15.3788 14.6208 15.2 14.4 15.2Z" fill="white"/>
<path d="M14.4 18.4H4.4C4.1792 18.4 4 18.5788 4 18.8C4 19.0212 4.1792 19.2 4.4 19.2H14.4C14.6208 19.2 14.8 19.0212 14.8 18.8C14.8 18.5788 14.6208 18.4 14.4 18.4Z" fill="white"/>
<path d="M12.9656 0H0V24H18.8V5.8344L12.9656 0ZM13.2 1.3656L17.4344 5.6H13.2V1.3656ZM0.8 23.2V0.8H12.4V6.4H18V23.2H0.8Z" fill="white"/>
</svg>
