<svg width="30" height="30" viewBox="0 0 30 30" fill="none" xmlns="http://www.w3.org/2000/svg">
<g opacity="0.7">
<path d="M1.87476 15.9821V27.9975C1.87476 29.1029 2.71663 30 3.74976 30H13.1248V15.9821H1.87476Z" fill="#FF3300"/>
<path d="M28.125 7.97173H22.1925C22.6181 7.66133 22.9837 7.35294 23.2388 7.07658C24.7519 5.4525 24.7519 2.80911 23.2388 1.18502C21.7687 -0.397009 19.2075 -0.393004 17.7394 1.18502C16.9256 2.05614 14.7694 5.60269 15.0675 7.97173H14.9325C15.2288 5.60269 13.0725 2.05614 12.2606 1.18502C10.7906 -0.393004 8.22937 -0.393004 6.76125 1.18502C5.25 2.80911 5.25 5.4525 6.75938 7.07658C7.01625 7.35294 7.38188 7.66133 7.8075 7.97173H1.875C0.841875 7.97173 0 8.87088 0 9.9743V12.9782C0 13.5309 0.42 13.9794 0.9375 13.9794H13.125V9.9743H16.875V13.9794H29.0625C29.58 13.9794 30 13.5309 30 12.9782V9.9743C30 8.87088 29.16 7.97173 28.125 7.97173ZM13.0144 7.90565C13.0144 7.90565 12.9356 7.97173 12.6675 7.97173C11.3719 7.97173 8.89875 6.53389 8.09062 5.66477C7.305 4.81969 7.305 3.44192 8.09062 2.59683C8.47125 2.18831 8.97563 1.96402 9.51188 1.96402C10.0463 1.96402 10.5506 2.18831 10.9312 2.59683C12.195 3.95458 13.4513 7.42303 13.0144 7.90565ZM17.3306 7.97173C17.0644 7.97173 16.9856 7.90765 16.9856 7.90565C16.5487 7.42303 17.805 3.95458 19.0688 2.59683C19.8244 1.78179 21.1463 1.77778 21.9094 2.59683C22.6969 3.44192 22.6969 4.81969 21.9094 5.66477C21.1013 6.53389 18.6281 7.97173 17.3306 7.97173Z" fill="#FF3300"/>
<path d="M16.8748 15.9821V30H26.2498C27.2848 30 28.1248 29.1029 28.1248 27.9975V15.9821H16.8748Z" fill="#FF3300"/>
</g>
</svg>
