<svg width="31" height="31" viewBox="0 0 31 31" fill="none" xmlns="http://www.w3.org/2000/svg">
<path d="M21.4606 0H10.2106C5.0337 0 0.835571 4.21006 0.835571 9.40164V20.6836C0.835571 25.8752 5.0337 30.0852 10.2106 30.0852H21.4606C26.6375 30.0852 30.8356 25.8752 30.8356 20.6836V9.40164C30.8356 4.21006 26.6375 0 21.4606 0ZM28.0231 20.6836C28.0231 24.3126 25.0794 27.2647 21.4606 27.2647H10.2106C6.59182 27.2647 3.64807 24.3126 3.64807 20.6836V9.40164C3.64807 5.77261 6.59182 2.82049 10.2106 2.82049H21.4606C25.0794 2.82049 28.0231 5.77261 28.0231 9.40164V20.6836Z" fill="white"/>
<path d="M15.8356 7.52148C11.6937 7.52148 8.33557 10.8891 8.33557 15.0428C8.33557 19.1965 11.6937 22.5641 15.8356 22.5641C19.9775 22.5641 23.3356 19.1965 23.3356 15.0428C23.3356 10.8891 19.9775 7.52148 15.8356 7.52148ZM15.8356 19.7436C13.2518 19.7436 11.1481 17.6338 11.1481 15.0428C11.1481 12.4498 13.2518 10.342 15.8356 10.342C18.4193 10.342 20.523 12.4498 20.523 15.0428C20.523 17.6338 18.4193 19.7436 15.8356 19.7436Z" fill="white"/>
<path d="M23.8982 7.95951C24.4502 7.95951 24.8976 7.5108 24.8976 6.95729C24.8976 6.40379 24.4502 5.95508 23.8982 5.95508C23.3463 5.95508 22.8988 6.40379 22.8988 6.95729C22.8988 7.5108 23.3463 7.95951 23.8982 7.95951Z" fill="white"/>
</svg>
