<svg width="31" height="31" viewBox="0 0 31 31" fill="none" xmlns="http://www.w3.org/2000/svg">
<path d="M24.2837 25.3127C24.9309 25.3127 25.4556 24.788 25.4556 24.1408C25.4556 23.4936 24.9309 22.9689 24.2837 22.9689C23.6365 22.9689 23.1118 23.4936 23.1118 24.1408C23.1118 24.788 23.6365 25.3127 24.2837 25.3127Z" fill="#444444"/>
<path d="M7.84813 28.1562H3.69928C3.19901 28.1562 2.89719 27.8771 2.76184 27.7106C2.52817 27.4231 2.43764 27.0491 2.51364 26.6841C3.73057 20.8387 8.88916 16.5699 14.8444 16.4313C14.9436 16.435 15.043 16.4375 15.1431 16.4375C15.244 16.4375 15.3443 16.435 15.4443 16.4312C16.9006 16.4645 18.323 16.7383 19.6769 17.2467C20.2828 17.4743 20.9584 17.1675 21.1859 16.5615C21.4135 15.9557 21.1067 15.28 20.5008 15.0525C20.3068 14.9796 20.1115 14.9114 19.9152 14.8467C21.8547 13.3919 23.1118 11.0744 23.1118 8.46875C23.1118 4.0748 19.5371 0.5 15.1431 0.5C10.749 0.5 7.1743 4.0748 7.1743 8.46875C7.1743 11.0767 8.4336 13.396 10.376 14.8507C8.59649 15.4365 6.92657 16.3475 5.46512 17.5496C2.78551 19.7537 0.922407 22.8281 0.219106 26.2064C-0.00132395 27.265 0.262699 28.3522 0.9435 29.1893C1.62084 30.0223 2.62532 30.5 3.69928 30.5H7.84813C8.49536 30.5 9.02001 29.9754 9.02001 29.3281C9.02001 28.6809 8.49536 28.1562 7.84813 28.1562ZM9.51805 8.46875C9.51805 5.36709 12.0414 2.84375 15.1431 2.84375C18.2447 2.84375 20.7681 5.36709 20.7681 8.46875C20.7681 11.4785 18.3918 13.9436 15.4169 14.087C15.3257 14.0854 15.2345 14.084 15.1431 14.084C15.0514 14.084 14.9598 14.0853 14.8683 14.087C11.8938 13.9432 9.51805 11.4782 9.51805 8.46875Z" fill="#444444"/>
<path d="M29.2455 20.6918C28.7439 19.5697 27.6139 18.8427 26.3641 18.8398H22.7095C22.7068 18.8398 22.7044 18.8398 22.7017 18.8398C21.3833 18.8398 20.2331 19.6168 19.7703 20.8207C19.7087 20.9809 19.6334 21.1827 19.5548 21.418H11.8822C11.5654 21.418 11.2621 21.5462 11.0414 21.7735L9.02835 23.847C8.58497 24.3037 8.5872 25.0308 9.03333 25.4847L11.0841 27.5714C11.3044 27.7955 11.6056 27.9218 11.9199 27.9218H15.7285C16.3757 27.9218 16.9004 27.3972 16.9004 26.7499C16.9004 26.1027 16.3757 25.5781 15.7285 25.5781H12.4113L11.5073 24.6583L12.3778 23.7617H20.4339C20.9738 23.7617 21.4438 23.3929 21.5722 22.8685C21.667 22.4814 21.7859 22.1092 21.9579 21.6617C22.0714 21.3666 22.3563 21.1836 22.7045 21.1836C22.7052 21.1836 22.706 21.1836 22.7068 21.1836H26.3613C26.6927 21.1844 26.978 21.3625 27.1057 21.6484C27.4203 22.3522 27.796 23.4418 27.7988 24.6358C27.8016 25.8387 27.4264 26.9533 27.111 27.6765C26.9838 27.9682 26.6962 28.1562 26.375 28.1562C26.3744 28.1562 26.3737 28.1562 26.3731 28.1562H22.6744C22.3502 28.1555 22.0465 27.9469 21.9187 27.6372C21.7817 27.3049 21.6629 26.9255 21.5556 26.4772C21.405 25.8478 20.7724 25.4597 20.1432 25.6103C19.5138 25.7609 19.1256 26.3933 19.2763 27.0228C19.4123 27.5911 19.568 28.0844 19.7521 28.5308C20.2442 29.724 21.3892 30.497 22.6717 30.4999H26.3704C26.3729 30.4999 26.3753 30.4999 26.3778 30.4999C27.6288 30.4999 28.7594 29.7599 29.2594 28.6132C29.6644 27.6844 30.1464 26.2395 30.1425 24.6303C30.1388 23.0254 29.6526 21.6027 29.2455 20.6918Z" fill="#444444"/>
</svg>
