<svg width="20" height="31" viewBox="0 0 20 31" fill="none" xmlns="http://www.w3.org/2000/svg">
<path d="M1.11179 16.1436C0.345544 17.6498 1.21554 18.3698 3.20053 19.5998C4.88803 20.6423 7.21927 21.0236 8.71676 21.1761C8.10301 21.7661 10.9155 19.0611 2.81553 26.8523C1.09804 28.4985 3.86303 31.1398 5.57927 29.5285L10.2255 25.0473C12.0042 26.7585 13.7092 28.3985 14.8717 29.5348C16.5892 31.1523 19.353 28.5335 17.6542 26.8585C17.5267 26.7373 11.358 20.8198 11.7342 21.1823C13.2505 21.0298 15.5467 20.6261 17.2142 19.6061L17.213 19.6048C19.198 18.3686 20.068 17.6498 19.313 16.1436C18.8567 15.2886 17.6267 14.5736 15.9892 15.8098C15.9892 15.8098 13.778 17.5036 10.2118 17.5036C6.64427 17.5036 4.43428 15.8098 4.43428 15.8098C2.79803 14.5673 1.56304 15.2886 1.11179 16.1436Z" fill="white"/>
<path d="M10.2093 15.2199C14.5567 15.2199 18.1067 11.8224 18.1067 7.63995C18.1067 3.43997 14.5567 0.0424805 10.2093 0.0424805C5.86053 0.0424805 2.31055 3.43997 2.31055 7.63995C2.31055 11.8224 5.86053 15.2199 10.2093 15.2199ZM10.2093 3.89122C12.3455 3.89122 14.088 5.56746 14.088 7.63995C14.088 9.69494 12.3455 11.3712 10.2093 11.3712C8.07302 11.3712 6.33053 9.69494 6.33053 7.63995C6.32928 5.56621 8.07177 3.89122 10.2093 3.89122Z" fill="white"/>
</svg>
