<svg width="24" height="24" viewBox="0 0 24 24" fill="none" xmlns="http://www.w3.org/2000/svg">
<path fill-rule="evenodd" clip-rule="evenodd" d="M6 4.51575V2.25C6 1.0095 4.9905 0 3.75 0C2.5095 0 1.5 1.0095 1.5 2.25V4.51575C0.594 5.202 0 6.27675 0 7.5C0 8.72325 0.594 9.798 1.5 10.4827V21.75C1.5 22.9905 2.5095 24 3.75 24C4.9905 24 6 22.9905 6 21.75V10.4827C6.906 9.79875 7.5 8.72325 7.5 7.5C7.5 6.27675 6.906 5.202 6 4.51575ZM3 2.25C3 1.83525 3.33525 1.5 3.75 1.5C4.16475 1.5 4.5 1.83525 4.5 2.25V3.825C4.25775 3.77625 4.00725 3.75 3.75 3.75C3.49275 3.75 3.24225 3.77625 3 3.825V2.25ZM4.5 21.75C4.5 22.1647 4.16475 22.5 3.75 22.5C3.33525 22.5 3 22.1647 3 21.75V11.1735C3.24225 11.2238 3.49275 11.25 3.75 11.25C4.00725 11.25 4.25775 11.2238 4.5 11.1735V21.75ZM5.89875 8.13L5.88939 8.1616C5.8809 8.19056 5.87246 8.21933 5.862 8.2485C5.79075 8.4465 5.69925 8.634 5.5785 8.8005C5.577 8.80275 5.57512 8.80462 5.57325 8.8065C5.57137 8.80837 5.5695 8.81025 5.568 8.8125C5.4375 8.991 5.28225 9.14925 5.106 9.28275C5.103 9.28575 5.10075 9.28725 5.0985 9.28875C4.91775 9.42525 4.716 9.53475 4.49925 9.61125C4.2645 9.696 4.01475 9.75 3.75 9.75C3.48525 9.75 3.2355 9.696 3 9.6105C2.78325 9.534 2.5815 9.4245 2.40075 9.288C2.3985 9.2865 2.39625 9.285 2.39325 9.282C2.217 9.1485 2.06175 8.99025 1.93125 8.81175C1.92975 8.8095 1.92788 8.80762 1.926 8.80575C1.92412 8.80387 1.92225 8.802 1.92075 8.79975C1.8 8.6325 1.7085 8.445 1.63725 8.24775C1.62679 8.21858 1.61835 8.18981 1.60986 8.16085L1.6005 8.12925C1.54125 7.929 1.5 7.71975 1.5 7.5C1.5 7.27875 1.54125 7.0695 1.60125 6.8685L1.60983 6.83957C1.61859 6.80979 1.62722 6.78043 1.638 6.7515C1.7085 6.5535 1.8 6.366 1.9215 6.198C1.923 6.19575 1.92488 6.19388 1.92675 6.192L1.92675 6.192C1.92863 6.19012 1.9305 6.18825 1.932 6.186C2.0625 6.009 2.21775 5.84925 2.394 5.71575C2.39578 5.71486 2.3973 5.71343 2.39872 5.71211L2.39872 5.71211C2.39968 5.71121 2.40059 5.71036 2.4015 5.70975C2.5815 5.5755 2.78325 5.46525 3 5.388C3.2355 5.304 3.48525 5.25 3.75 5.25C4.01475 5.25 4.2645 5.304 4.5 5.388C4.71675 5.466 4.9185 5.5755 5.09925 5.7105C5.10016 5.71111 5.10107 5.71196 5.10203 5.71286C5.10345 5.71418 5.10497 5.71561 5.10675 5.7165C5.283 5.85 5.43825 6.00975 5.56875 6.18675C5.57025 6.189 5.57212 6.19088 5.574 6.19275C5.57588 6.19462 5.57775 6.1965 5.57925 6.19875C5.7 6.366 5.7915 6.5535 5.862 6.7515C5.87625 6.78975 5.8875 6.82875 5.89875 6.8685C5.95875 7.0695 6 7.27875 6 7.5C6 7.71975 5.95875 7.929 5.89875 8.13ZM22.5 4.51575V2.25C22.5 1.0095 21.4905 0 20.25 0C19.0095 0 18 1.0095 18 2.25V4.51575C17.0933 5.202 16.5 6.27675 16.5 7.5C16.5 8.72325 17.0933 9.798 18 10.4827V21.75C18 22.9905 19.0095 24 20.25 24C21.4905 24 22.5 22.9905 22.5 21.75V10.4827C23.4053 9.79875 24 8.72325 24 7.5C24 6.27675 23.4053 5.202 22.5 4.51575ZM19.5 2.25C19.5 1.83525 19.8352 1.5 20.25 1.5C20.6648 1.5 21 1.83525 21 2.25V3.825C20.757 3.77625 20.5065 3.75 20.25 3.75C19.992 3.75 19.7415 3.77625 19.5 3.825V2.25ZM21 21.75C21 22.1647 20.6648 22.5 20.25 22.5C19.8352 22.5 19.5 22.1647 19.5 21.75V11.1735C19.7415 11.2238 19.992 11.25 20.25 11.25C20.5065 11.25 20.757 11.2238 21 11.1735V21.75ZM22.3987 8.13L22.391 8.15572C22.3817 8.18667 22.3726 8.21735 22.362 8.2485C22.29 8.4465 22.1993 8.634 22.0778 8.8005C22.0748 8.805 22.0703 8.808 22.0673 8.8125C21.9368 8.991 21.7815 9.14925 21.606 9.28275C21.603 9.28575 21.6 9.28725 21.5985 9.28875C21.417 9.42525 21.216 9.53475 20.9993 9.61125C20.7645 9.696 20.514 9.75 20.25 9.75C19.9845 9.75 19.7355 9.696 19.5 9.6105C19.2833 9.534 19.0808 9.4245 18.9008 9.288C18.8978 9.2865 18.8963 9.285 18.8932 9.282C18.7162 9.1485 18.561 8.99025 18.4305 8.81175C18.429 8.8095 18.4271 8.80762 18.4253 8.80575C18.4234 8.80387 18.4215 8.802 18.42 8.79975C18.3 8.6325 18.2078 8.445 18.1373 8.24775C18.1266 8.21931 18.1185 8.19126 18.1104 8.16304C18.1072 8.15181 18.1039 8.14056 18.1005 8.12925C18.0413 7.929 18 7.71975 18 7.5C18 7.27875 18.0413 7.0695 18.1013 6.8685L18.1108 6.83599L18.1108 6.83597C18.119 6.80742 18.1271 6.77926 18.138 6.7515C18.2085 6.5535 18.3008 6.366 18.4208 6.198C18.4223 6.19575 18.4242 6.19388 18.426 6.192C18.4279 6.19012 18.4298 6.18825 18.4313 6.186C18.5618 6.009 18.717 5.84925 18.894 5.71575C18.895 5.71523 18.8959 5.71454 18.8967 5.71379C18.8971 5.71345 18.8974 5.7131 18.8978 5.71275C18.8989 5.71163 18.9 5.7105 18.9015 5.70975C19.0815 5.57475 19.284 5.46525 19.5007 5.38725C19.7355 5.304 19.9845 5.25 20.25 5.25C20.514 5.25 20.7645 5.304 21 5.388C21.2168 5.466 21.4177 5.5755 21.5992 5.7105C21.6007 5.712 21.6038 5.715 21.6068 5.7165C21.7822 5.85 21.9375 6.00975 22.068 6.18675C22.0695 6.189 22.0714 6.19088 22.0732 6.19275C22.0751 6.19462 22.077 6.1965 22.0785 6.19875C22.2 6.3675 22.2907 6.555 22.3627 6.75225C22.3727 6.78061 22.3815 6.8098 22.3903 6.8389L22.3995 6.86925C22.4587 7.0695 22.5 7.27875 22.5 7.5C22.5 7.71975 22.4587 7.929 22.3987 8.13ZM14.25 2.25V13.5157C15.1553 14.202 15.75 15.2767 15.75 16.5C15.75 17.7232 15.1553 18.7987 14.25 19.4827V21.75C14.25 22.9905 13.2405 24 12 24C10.7595 24 9.75 22.9905 9.75 21.75V19.4827C8.844 18.798 8.25 17.7232 8.25 16.5C8.25 15.2767 8.844 14.2013 9.75 13.5157V2.25C9.75 1.0095 10.7595 0 12 0C13.2405 0 14.25 1.0095 14.25 2.25ZM12 1.5C11.5852 1.5 11.25 1.83525 11.25 2.25V12.825C11.4922 12.7762 11.7427 12.75 12 12.75C12.2565 12.75 12.507 12.777 12.75 12.825V2.25C12.75 1.83525 12.4148 1.5 12 1.5ZM12 22.5C12.4148 22.5 12.75 22.1647 12.75 21.75V20.1735C12.507 20.2238 12.2565 20.25 12 20.25C11.7427 20.25 11.4922 20.2238 11.25 20.1735V21.75C11.25 22.1647 11.5852 22.5 12 22.5ZM14.1413 17.1547C14.1438 17.1465 14.1462 17.1383 14.1487 17.13C14.2087 16.929 14.25 16.7197 14.25 16.5C14.25 16.2787 14.2087 16.0695 14.1495 15.8693C14.1464 15.8592 14.1433 15.849 14.1402 15.8388C14.1315 15.8097 14.1227 15.7806 14.1127 15.7523C14.0407 15.555 13.95 15.3675 13.8285 15.1987C13.827 15.1964 13.8251 15.1946 13.8232 15.1927C13.8214 15.1909 13.8195 15.1891 13.818 15.1868C13.6875 15.0098 13.5322 14.85 13.3568 14.7165C13.3538 14.715 13.3507 14.712 13.3492 14.7105C13.1677 14.5755 12.9668 14.466 12.75 14.388C12.5145 14.304 12.264 14.25 12 14.25C11.7352 14.25 11.4855 14.304 11.2508 14.3873C11.034 14.4653 10.8322 14.5748 10.6515 14.7098C10.6506 14.7104 10.6497 14.7113 10.6487 14.7122C10.6473 14.7135 10.6458 14.7149 10.644 14.7157C10.4678 14.8492 10.3125 15.009 10.182 15.186C10.1805 15.1882 10.1786 15.1901 10.1768 15.192C10.1749 15.1939 10.173 15.1957 10.1715 15.198C10.0508 15.366 9.95925 15.5535 9.888 15.7515C9.87726 15.7804 9.86866 15.8096 9.85993 15.8393C9.85708 15.849 9.85421 15.8587 9.85125 15.8685C9.79125 16.0695 9.75 16.2787 9.75 16.5C9.75 16.7197 9.79125 16.929 9.8505 17.1292C9.85366 17.1397 9.85671 17.1501 9.85975 17.1605C9.86828 17.1896 9.87675 17.2184 9.88725 17.2477C9.9585 17.445 10.05 17.6325 10.1707 17.7997C10.1722 17.802 10.1741 17.804 10.176 17.8059C10.1779 17.8077 10.1797 17.8096 10.1812 17.8118C10.3117 17.9902 10.467 18.1485 10.6432 18.282C10.6463 18.285 10.6485 18.2865 10.6508 18.288C10.8315 18.4245 11.0333 18.534 11.25 18.6105C11.4855 18.696 11.7352 18.75 12 18.75C12.264 18.75 12.5145 18.696 12.7493 18.6112C12.966 18.5347 13.167 18.4253 13.3485 18.2887C13.3491 18.2882 13.3499 18.2876 13.3508 18.287C13.3523 18.2859 13.3542 18.2846 13.356 18.2828C13.5315 18.1493 13.6868 17.991 13.8173 17.8125C13.8188 17.8102 13.8207 17.8084 13.8225 17.8065C13.8244 17.8046 13.8263 17.8027 13.8278 17.8005C13.9493 17.634 14.04 17.4465 14.112 17.2485C14.1227 17.217 14.132 17.186 14.1413 17.1547Z" fill="#444444"/>
</svg>
