<svg width="31" height="30" viewBox="0 0 31 30" fill="none" xmlns="http://www.w3.org/2000/svg">
<path d="M29.2145 23.1423L23.1424 19.0929C22.3718 18.5832 21.3389 18.7509 20.7692 19.4784L19.0005 21.7525C18.7732 22.0522 18.36 22.1392 18.0311 21.9565L17.6947 21.771C16.5793 21.1631 15.1916 20.4062 12.3955 17.6091C9.59939 14.8121 8.841 13.4232 8.23307 12.31L8.04858 11.9735C7.86339 11.6447 7.94869 11.2298 8.24853 11.0006L10.5212 9.23242C11.2483 8.66268 11.4163 7.63006 10.9071 6.85926L6.85772 0.787152C6.33591 0.00222969 5.28899 -0.233399 4.48116 0.252212L1.94203 1.77747C1.14422 2.24651 0.558893 3.00612 0.308793 3.89714C-0.605544 7.22864 0.082303 12.9783 8.55206 21.449C15.2896 28.186 20.3053 29.9978 23.7528 29.9978C24.5463 30.0012 25.3366 29.8979 26.1025 29.6908C26.9937 29.441 27.7534 28.8557 28.2222 28.0576L29.749 25.52C30.2353 24.712 29.9998 23.6644 29.2145 23.1423Z" fill="#59B400"/>
<path d="M17.0006 5.00152C21.6922 5.00674 25.4941 8.80873 25.4994 13.5003C25.4994 13.7764 25.7232 14.0002 25.9993 14.0002C26.2754 14.0002 26.4992 13.7764 26.4992 13.5003C26.4934 8.25674 22.2442 4.00745 17.0006 4.00171C16.7245 4.00171 16.5007 4.2255 16.5007 4.50162C16.5007 4.77773 16.7245 5.00152 17.0006 5.00152Z" fill="#59B400"/>
<path d="M17.0006 8.00108C20.0363 8.00465 22.4963 10.4646 22.4998 13.5003C22.4998 13.7764 22.7237 14.0002 22.9997 14.0002C23.2759 14.0002 23.4997 13.7764 23.4997 13.5003C23.4955 9.91265 20.5882 7.00537 17.0006 7.00127C16.7245 7.00127 16.5007 7.22506 16.5007 7.50117C16.5007 7.77728 16.7245 8.00108 17.0006 8.00108Z" fill="#59B400"/>
<path d="M17.0006 11.0006C18.3804 11.0023 19.4986 12.1204 19.5003 13.5003C19.5003 13.7764 19.7241 14.0002 20.0002 14.0002C20.2762 14.0002 20.5001 13.7764 20.5001 13.5003C20.4979 11.5685 18.9324 10.003 17.0006 10.0008C16.7245 10.0008 16.5007 10.2246 16.5007 10.5007C16.5007 10.7768 16.7245 11.0006 17.0006 11.0006Z" fill="#59B400"/>
</svg>
