<svg width="30" height="18" viewBox="0 0 30 18" fill="none" xmlns="http://www.w3.org/2000/svg">
<path d="M29.6817 15.7386C29.6464 15.6626 29.6137 15.5996 29.5832 15.5491C29.0795 14.6393 28.117 13.5226 26.6962 12.1988L26.6661 12.1684L26.6511 12.1536L26.6359 12.1383H26.6206C25.9758 11.5218 25.5674 11.1073 25.3964 10.8951C25.0835 10.4909 25.0134 10.0816 25.1845 9.66703C25.3052 9.35378 25.7591 8.69222 26.5449 7.68147C26.9582 7.14579 27.2855 6.71648 27.5273 6.39303C29.2708 4.06857 30.0267 2.5832 29.7948 1.93635L29.7047 1.78519C29.6442 1.69419 29.488 1.61094 29.2364 1.53501C28.9841 1.45925 28.6618 1.44672 28.2687 1.49721L23.9154 1.52737C23.8449 1.50231 23.7442 1.50465 23.6129 1.53501C23.4819 1.56538 23.4164 1.58062 23.4164 1.58062L23.3406 1.61859L23.2805 1.66419C23.2301 1.69435 23.1747 1.74739 23.1142 1.82321C23.054 1.89876 23.0037 1.98743 22.9634 2.08847C22.4894 3.31128 21.9506 4.44818 21.3458 5.49913C20.9728 6.1258 20.6305 6.66891 20.3177 7.12875C20.0054 7.58845 19.7433 7.92713 19.5319 8.14423C19.3201 8.36155 19.129 8.53565 18.9573 8.66716C18.7859 8.79873 18.6552 8.85431 18.5646 8.83398C18.4738 8.81365 18.3883 8.79347 18.3073 8.7733C18.1663 8.68229 18.053 8.55853 17.9674 8.4019C17.8816 8.24528 17.8237 8.04814 17.7935 7.81064C17.7634 7.57299 17.7456 7.36859 17.7406 7.19672C17.7358 7.02506 17.738 6.78226 17.7482 6.469C17.7587 6.15559 17.7634 5.94353 17.7634 5.83236C17.7634 5.44827 17.7709 5.03143 17.7859 4.58172C17.8012 4.13201 17.8135 3.7757 17.8238 3.5132C17.8341 3.25044 17.8388 2.97244 17.8388 2.67936C17.8388 2.38627 17.821 2.15643 17.7859 1.98961C17.7511 1.823 17.6978 1.66127 17.6276 1.50449C17.5569 1.34786 17.4535 1.2267 17.3177 1.14068C17.1817 1.05478 17.0126 0.986605 16.8114 0.935953C16.2772 0.814739 15.597 0.749167 14.7705 0.738973C12.8963 0.718798 11.6919 0.84017 11.1578 1.10293C10.9463 1.21395 10.7548 1.36564 10.5835 1.55753C10.4021 1.77994 10.3768 1.90131 10.5078 1.92127C11.1124 2.01212 11.5406 2.22943 11.7926 2.57301L11.8833 2.75507C11.954 2.88642 12.0245 3.11897 12.0951 3.45241C12.1655 3.78584 12.211 4.15469 12.231 4.55873C12.2813 5.29658 12.2813 5.92819 12.231 6.45361C12.1805 6.97925 12.1329 7.38844 12.0874 7.68152C12.0419 7.9746 11.974 8.21209 11.8833 8.39394C11.7926 8.57584 11.7322 8.68702 11.7019 8.72737C11.6716 8.76772 11.6464 8.79315 11.6264 8.80314C11.4954 8.85347 11.3592 8.87912 11.2182 8.87912C11.077 8.87912 10.9058 8.80829 10.7042 8.66674C10.5028 8.52519 10.2937 8.33076 10.077 8.08312C9.86037 7.83544 9.61596 7.48932 9.34378 7.0447C9.0718 6.60009 8.78961 6.07462 8.49736 5.46829L8.25557 5.02856C8.10441 4.74568 7.89793 4.33377 7.63591 3.79322C7.37373 3.25245 7.142 2.72937 6.94054 2.22407C6.86002 2.01186 6.73904 1.85029 6.57782 1.73911L6.50217 1.6935C6.45187 1.65315 6.37113 1.6103 6.26038 1.56464C6.14945 1.51903 6.03372 1.48633 5.91269 1.4662L1.77094 1.49636C1.34771 1.49636 1.06054 1.59252 0.909339 1.78456L0.848824 1.8754C0.818592 1.926 0.803345 2.00681 0.803345 2.11805C0.803345 2.22922 0.833576 2.36567 0.894091 2.52724C1.49871 3.95228 2.15622 5.32663 2.86662 6.65048C3.57702 7.97434 4.19434 9.04073 4.71823 9.84872C5.24221 10.6573 5.77631 11.4204 6.32052 12.1377C6.86473 12.8553 7.22496 13.3151 7.40121 13.5172C7.57768 13.7196 7.71628 13.8709 7.81703 13.9719L8.195 14.3356C8.43685 14.5782 8.79199 14.8688 9.2606 15.2073C9.72933 15.546 10.2482 15.8794 10.8176 16.2081C11.3871 16.5363 12.0495 16.804 12.8054 17.0111C13.5612 17.2185 14.2968 17.3018 15.0123 17.2616H16.7507C17.1032 17.231 17.3703 17.1199 17.5519 16.928L17.612 16.852C17.6524 16.7917 17.6904 16.698 17.7253 16.5719C17.7606 16.4456 17.7782 16.3064 17.7782 16.1551C17.7679 15.7206 17.8009 15.329 17.8763 14.9803C17.9516 14.6319 18.0375 14.3691 18.1335 14.1921C18.2295 14.0153 18.3378 13.8662 18.4584 13.7452C18.5792 13.6239 18.6653 13.5506 18.7158 13.5252C18.766 13.4999 18.8061 13.4826 18.8363 13.4722C19.0781 13.3914 19.3627 13.4697 19.6906 13.7074C20.0182 13.9448 20.3254 14.2382 20.6128 14.5867C20.9 14.9354 21.2451 15.3268 21.648 15.7613C22.0514 16.1959 22.4039 16.519 22.7062 16.7316L23.0084 16.9134C23.2102 17.0348 23.4722 17.1459 23.7948 17.2471C24.1167 17.348 24.3988 17.3733 24.641 17.3228L28.5105 17.2623C28.8932 17.2623 29.191 17.1987 29.4023 17.0726C29.614 16.9463 29.7397 16.8071 29.7803 16.6558C29.8207 16.5042 29.8228 16.3324 29.7879 16.1401C29.7521 15.9484 29.7168 15.8143 29.6817 15.7386Z" fill="white"/>
</svg>
