<svg width="30" height="21" viewBox="0 0 30 21" fill="none" xmlns="http://www.w3.org/2000/svg">
<path d="M28.5396 2.15636C27.4916 0.907062 25.5567 0.397461 21.8616 0.397461H8.44822C4.6685 0.397461 2.70087 0.939935 1.65683 2.27C0.638916 3.56684 0.638916 5.4776 0.638916 8.12216V13.1627C0.638916 18.286 1.84666 20.8873 8.44822 20.8873H21.8617C25.0661 20.8873 26.8417 20.4376 27.9905 19.3351C29.1686 18.2045 29.6712 16.3585 29.6712 13.1627V8.12216C29.6712 5.33325 29.5924 3.41121 28.5396 2.15636ZM19.2777 11.3383L13.1868 14.5307C13.0506 14.6021 12.9017 14.6375 12.7529 14.6375C12.5846 14.6375 12.4166 14.592 12.2677 14.5016C11.9876 14.3314 11.8165 14.0268 11.8165 13.6983V7.33399C11.8165 7.00604 11.9871 6.70174 12.2667 6.53137C12.5464 6.361 12.8943 6.34935 13.1846 6.50056L19.2755 9.67238C19.5855 9.83373 19.7801 10.1545 19.7806 10.5046C19.7809 10.8549 19.5871 11.1762 19.2777 11.3383Z" fill="white"/>
</svg>
